<svg width="100" height="135" viewBox="0 0 100 135" fill="none" xmlns="http://www.w3.org/2000/svg">
<path d="M39 88C34.038 88 30 83.963 30 79V61C30 56.037 34.038 52 39 52C43.962 52 48 56.037 48 61V79C48 83.963 43.962 88 39 88ZM39 54C35.14 54 32 57.141 32 61V79C32 82.859 35.14 86 39 86C42.86 86 46 82.859 46 79V61C46 57.141 42.86 54 39 54ZM59 48C54.038 48 50 43.963 50 39V21C50 16.037 54.038 12 59 12C63.962 12 68 16.037 68 21V39C68 43.963 63.962 48 59 48ZM59 14C55.14 14 52 17.141 52 21V39C52 42.859 55.14 46 59 46C62.86 46 66 42.859 66 39V21C66 17.141 62.86 14 59 14ZM39 50H21C16.038 50 12 45.963 12 41C12 36.037 16.038 32 21 32H39C43.962 32 48 36.037 48 41C48 45.963 43.962 50 39 50ZM21 34C17.14 34 14 37.141 14 41C14 44.859 17.14 48 21 48H39C42.86 48 46 44.859 46 41C46 37.141 42.86 34 39 34H21ZM77 68H59C54.038 68 50 63.963 50 59C50 54.037 54.038 50 59 50H77C81.962 50 86 54.037 86 59C86 63.963 81.962 68 77 68ZM59 52C55.14 52 52 55.141 52 59C52 62.859 55.14 66 59 66H77C80.86 66 84 62.859 84 59C84 55.141 80.86 52 77 52H59ZM59 88C54.038 88 50 83.963 50 79V71C50 70.447 50.448 70 51 70H59C63.962 70 68 74.037 68 79C68 83.963 63.962 88 59 88ZM52 72V79C52 82.859 55.14 86 59 86C62.86 86 66 82.859 66 79C66 75.141 62.86 72 59 72H52ZM19 70C14.038 70 10 65.963 10 61C10 56.037 14.038 52 19 52H27C27.552 52 28 52.447 28 53V61C28 65.963 23.962 70 19 70ZM19 54C15.14 54 12 57.141 12 61C12 64.859 15.14 68 19 68C22.86 68 26 64.859 26 61V54H19ZM79 48H71C70.448 48 70 47.553 70 47V39C70 34.037 74.038 30 79 30C83.962 30 88 34.037 88 39C88 43.963 83.962 48 79 48ZM72 46H79C82.86 46 86 42.859 86 39C86 35.141 82.86 32 79 32C75.14 32 72 35.141 72 39V46ZM47 30H39C34.038 30 30 25.963 30 21C30 16.037 34.038 12 39 12C43.962 12 48 16.037 48 21V29C48 29.553 47.552 30 47 30ZM39 14C35.14 14 32 17.141 32 21C32 24.859 35.14 28 39 28H46V21C46 17.141 42.86 14 39 14Z" fill="#512D5D"/>
<path d="M24.028 129.288C22.924 129.288 21.9 129.08 20.956 128.664C20.012 128.232 19.196 127.664 18.508 126.96L19.708 125.568C20.268 126.16 20.924 126.64 21.676 127.008C22.444 127.36 23.236 127.536 24.052 127.536C25.092 127.536 25.9 127.304 26.476 126.84C27.052 126.36 27.34 125.736 27.34 124.968C27.34 124.424 27.22 123.992 26.98 123.672C26.756 123.352 26.444 123.08 26.044 122.856C25.66 122.632 25.22 122.408 24.724 122.184L22.468 121.2C21.972 120.992 21.476 120.72 20.98 120.384C20.5 120.048 20.092 119.616 19.756 119.088C19.436 118.56 19.276 117.912 19.276 117.144C19.276 116.344 19.484 115.632 19.9 115.008C20.332 114.368 20.924 113.872 21.676 113.52C22.428 113.152 23.276 112.968 24.22 112.968C25.164 112.968 26.036 113.152 26.836 113.52C27.636 113.872 28.316 114.336 28.876 114.912L27.796 116.208C27.316 115.744 26.78 115.384 26.188 115.128C25.612 114.856 24.956 114.72 24.22 114.72C23.34 114.72 22.628 114.928 22.084 115.344C21.556 115.76 21.292 116.32 21.292 117.024C21.292 117.52 21.42 117.936 21.676 118.272C21.948 118.592 22.284 118.856 22.684 119.064C23.084 119.272 23.492 119.464 23.908 119.64L26.14 120.6C26.748 120.856 27.292 121.168 27.772 121.536C28.268 121.888 28.66 122.328 28.948 122.856C29.236 123.368 29.38 124.016 29.38 124.8C29.38 125.632 29.164 126.392 28.732 127.08C28.3 127.752 27.684 128.288 26.884 128.688C26.084 129.088 25.132 129.288 24.028 129.288ZM32.4803 129V113.256H34.4723V127.296H41.3603V129H32.4803ZM46.9345 120.192L46.1905 122.592H50.9185L50.1745 120.192C49.8865 119.312 49.6145 118.44 49.3585 117.576C49.1025 116.696 48.8465 115.8 48.5905 114.888H48.4945C48.2545 115.8 48.0065 116.696 47.7505 117.576C47.4945 118.44 47.2225 119.312 46.9345 120.192ZM42.1345 129L47.4625 113.256H49.7185L55.0465 129H52.9105L51.4225 124.2H45.6865L44.1745 129H42.1345ZM62.9948 129.288C61.6828 129.288 60.5068 128.968 59.4668 128.328C58.4428 127.672 57.6268 126.736 57.0188 125.52C56.4268 124.304 56.1308 122.84 56.1308 121.128C56.1308 119.432 56.4348 117.976 57.0428 116.76C57.6508 115.544 58.4828 114.608 59.5388 113.952C60.5948 113.296 61.7868 112.968 63.1148 112.968C64.0748 112.968 64.9228 113.168 65.6588 113.568C66.3948 113.952 66.9868 114.4 67.4348 114.912L66.3548 116.208C65.9388 115.76 65.4668 115.4 64.9388 115.128C64.4108 114.856 63.8108 114.72 63.1388 114.72C62.1468 114.72 61.2748 114.984 60.5228 115.512C59.7868 116.024 59.2108 116.752 58.7948 117.696C58.3948 118.64 58.1948 119.768 58.1948 121.08C58.1948 122.392 58.3948 123.536 58.7948 124.512C59.1948 125.472 59.7548 126.216 60.4748 126.744C61.2108 127.272 62.0748 127.536 63.0668 127.536C63.8188 127.536 64.4908 127.376 65.0828 127.056C65.6748 126.736 66.2188 126.304 66.7148 125.76L67.8188 127.008C67.1948 127.728 66.4908 128.288 65.7068 128.688C64.9228 129.088 64.0188 129.288 62.9948 129.288ZM70.7538 129V113.256H72.7458V121.152H72.8178L79.3698 113.256H81.6258L76.7058 119.256L82.3938 129H80.1618L75.4578 120.816L72.7458 124.008V129H70.7538Z" fill="#512D5D"/>
</svg>
