<svg width="132" height="143" viewBox="0 0 132 143" fill="none" xmlns="http://www.w3.org/2000/svg">
<path d="M54.43 3.56055C46.0952 3.56055 39.3 10.3557 39.3 18.6905C39.3 24.5651 42.7709 29.5358 47.682 32.0405C42.7709 34.5453 39.3 39.516 39.3 45.3905C39.3 51.2651 42.7709 56.2358 47.682 58.7405C42.7709 61.2453 39.3 66.216 39.3 72.0906C39.3 80.4254 46.0952 87.2206 54.43 87.2206C62.7648 87.2206 69.56 80.4254 69.56 72.0906V58.7405V52.7887C71.9476 57.3196 76.5591 60.5205 82.02 60.5205C89.8634 60.5205 96.26 54.124 96.26 46.2805C96.26 39.8338 91.8566 34.5836 85.9624 32.8402C91.9053 30.7976 96.26 25.3125 96.26 18.6905C96.26 10.3557 89.4648 3.56055 81.13 3.56055H67.78H54.43ZM54.43 7.12055H66V30.2605H54.43C48.0193 30.2605 42.86 25.1013 42.86 18.6905C42.86 12.2798 48.0193 7.12055 54.43 7.12055ZM69.56 7.12055H81.13C87.5407 7.12055 92.7 12.2798 92.7 18.6905C92.7 25.1013 87.5407 30.2605 81.13 30.2605H69.56V7.12055ZM54.43 33.8205H66V56.9605H54.43C48.0193 56.9605 42.86 51.8013 42.86 45.3905C42.86 38.9798 48.0193 33.8205 54.43 33.8205ZM69.56 33.8205H75.5119C72.9577 35.1665 70.9059 37.2183 69.56 39.7724V33.8205ZM82.02 35.6005C87.9395 35.6005 92.7 40.3611 92.7 46.2805C92.7 52.2 87.9395 56.9605 82.02 56.9605C76.1005 56.9605 71.34 52.2 71.34 46.2805C71.34 40.3611 76.1005 35.6005 82.02 35.6005ZM54.43 60.5205H66V72.0906C66 78.5013 60.8407 83.6606 54.43 83.6606C48.0193 83.6606 42.86 78.5013 42.86 72.0906C42.86 65.6798 48.0193 60.5205 54.43 60.5205Z" fill="#512D5D"/>
<path d="M36.4256 137V121.256H45.4976V122.936H38.4176V128.264H44.4176V129.944H38.4176V137H36.4256ZM48.285 137V121.256H50.277V137H48.285ZM60.7817 137.288C59.4057 137.288 58.1817 136.968 57.1097 136.328C56.0377 135.672 55.1977 134.736 54.5897 133.52C53.9817 132.304 53.6777 130.84 53.6777 129.128C53.6777 127.432 53.9897 125.976 54.6137 124.76C55.2377 123.544 56.0937 122.608 57.1817 121.952C58.2697 121.296 59.5097 120.968 60.9017 120.968C61.9897 120.968 62.9017 121.176 63.6377 121.592C64.3897 121.992 64.9897 122.432 65.4377 122.912L64.3337 124.208C63.9337 123.792 63.4697 123.44 62.9417 123.152C62.4137 122.864 61.7497 122.72 60.9497 122.72C59.8937 122.72 58.9737 122.984 58.1897 123.512C57.4057 124.024 56.7977 124.752 56.3657 125.696C55.9497 126.64 55.7417 127.768 55.7417 129.08C55.7417 131.064 56.1897 132.64 57.0857 133.808C57.9977 134.96 59.2937 135.536 60.9737 135.536C61.5337 135.536 62.0697 135.456 62.5817 135.296C63.0937 135.12 63.5017 134.888 63.8057 134.6V130.496H60.4697V128.84H65.6297V135.464C65.1337 135.992 64.4617 136.432 63.6137 136.784C62.7817 137.12 61.8377 137.288 60.7817 137.288ZM69.4022 137V121.256H71.8022L74.8262 129.656C75.0182 130.2 75.2022 130.752 75.3782 131.312C75.5702 131.856 75.7622 132.4 75.9542 132.944H76.0502C76.2422 132.4 76.4182 131.856 76.5782 131.312C76.7542 130.752 76.9382 130.2 77.1302 129.656L80.1062 121.256H82.5302V137H80.6582V128.336C80.6582 127.632 80.6902 126.856 80.7542 126.008C80.8182 125.144 80.8742 124.368 80.9222 123.68H80.8262L79.5782 127.256L76.6022 135.416H75.2822L72.3062 127.256L71.0582 123.68H70.9622C71.0102 124.368 71.0582 125.144 71.1062 126.008C71.1702 126.856 71.2022 127.632 71.2022 128.336V137H69.4022ZM89.5517 128.192L88.8077 130.592H93.5357L92.7917 128.192C92.5037 127.312 92.2317 126.44 91.9757 125.576C91.7197 124.696 91.4637 123.8 91.2077 122.888H91.1117C90.8717 123.8 90.6237 124.696 90.3677 125.576C90.1117 126.44 89.8397 127.312 89.5517 128.192ZM84.7517 137L90.0797 121.256H92.3357L97.6637 137H95.5277L94.0397 132.2H88.3037L86.7917 137H84.7517Z" fill="#512D5D"/>
</svg>
