<svg width="132" height="143" viewBox="0 0 132 143" fill="none" xmlns="http://www.w3.org/2000/svg">
<path d="M34.45 11.1992C33.625 11.3492 33.0562 12.118 33.15 12.9492L38.8 76.0492C38.875 76.693 39.3312 77.2242 39.95 77.3992L65.55 84.7492C65.8437 84.8367 66.1562 84.8367 66.45 84.7492L92.05 77.3992C92.6687 77.2242 93.125 76.693 93.2 76.0492L98.85 12.9492C98.8937 12.4992 98.7437 12.0555 98.4375 11.718C98.1312 11.3867 97.7 11.1992 97.25 11.1992H34.75C34.7 11.1992 34.65 11.1992 34.6 11.1992C34.55 11.1992 34.5 11.1992 34.45 11.1992ZM36.5 14.3992H95.5L90.15 74.6492L66 81.4992L41.85 74.6492L36.5 14.3992ZM46.05 24.0992C45.225 24.2492 44.6562 25.018 44.75 25.8492L46.9 49.4992C46.95 50.3242 47.625 50.9742 48.45 50.9992H74L73.3 58.3492L66.05 59.8992L58.7 58.3492L58.45 55.7492C58.4 54.9055 57.6937 54.2492 56.85 54.2492H49.05C48.6 54.2492 48.1687 54.4367 47.8625 54.768C47.5562 55.1055 47.4062 55.5492 47.45 55.9992L48.35 65.7992C48.4 66.443 48.8312 66.9992 49.45 67.1992L65.35 72.0492L65.55 72.0992C65.8437 72.1867 66.1562 72.1867 66.45 72.0992L82.55 67.1992C83.1875 67.018 83.6437 66.4617 83.7 65.7992L85.8 41.7492C85.8437 41.3055 85.7 40.868 85.4062 40.5367C85.1125 40.2055 84.6937 40.0117 84.25 39.9992H57L56.6 35.0492H84.95C85.7812 35.0555 86.475 34.4242 86.55 33.5992L87.25 25.8492C87.2937 25.3992 87.1437 24.9555 86.8375 24.618C86.5312 24.2867 86.1 24.0992 85.65 24.0992H46.35C46.25 24.0867 46.15 24.0867 46.05 24.0992ZM48.1 27.2992H83.9L83.5 31.8492H54.85C54.4 31.8492 53.9687 32.0367 53.6625 32.368C53.3562 32.7055 53.2062 33.1492 53.25 33.5992L54 41.7492C54.075 42.5555 54.7437 43.1805 55.55 43.1992H82.5L80.6 64.4492L66 68.8492L51.4 64.4492L50.8 57.4492H55.4L55.6 59.7992C55.65 60.5055 56.1562 61.093 56.85 61.2492L65.75 63.0992C65.9625 63.143 66.1875 63.143 66.4 63.0992L75.15 61.2492C75.8437 61.093 76.35 60.5055 76.4 59.7992L77.35 49.4992C77.375 49.0555 77.2187 48.6242 76.9187 48.3055C76.6125 47.9805 76.1937 47.7992 75.75 47.7992H49.9L48.1 27.2992Z" fill="#512D5D"/>
<path d="M39.16 129V113.256H41.152V119.856H48.472V113.256H50.488V129H48.472V121.584H41.152V129H39.16ZM58.0803 129V114.936H53.3283V113.256H64.8483V114.936H60.0963V129H58.0803ZM67.6834 129V113.256H70.0834L73.1074 121.656C73.2994 122.2 73.4834 122.752 73.6594 123.312C73.8514 123.856 74.0434 124.4 74.2354 124.944H74.3314C74.5234 124.4 74.6994 123.856 74.8594 123.312C75.0354 122.752 75.2194 122.2 75.4114 121.656L78.3874 113.256H80.8114V129H78.9394V120.336C78.9394 119.632 78.9714 118.856 79.0354 118.008C79.0994 117.144 79.1554 116.368 79.2034 115.68H79.1074L77.8594 119.256L74.8834 127.416H73.5634L70.5874 119.256L69.3394 115.68H69.2434C69.2914 116.368 69.3394 117.144 69.3874 118.008C69.4514 118.856 69.4834 119.632 69.4834 120.336V129H67.6834ZM85.1209 129V113.256H87.1129V127.296H94.0009V129H85.1209Z" fill="#512D5D"/>
</svg>
