<svg width="132" height="143" viewBox="0 0 132 143" fill="none" xmlns="http://www.w3.org/2000/svg">
<g clip-path="url(#clip0_119_2023)">
<path d="M78.0596 9.16786L32.5514 12.4636C32.5375 12.4646 32.5236 12.4658 32.5097 12.4671C32.4864 12.4701 32.4632 12.4736 32.4401 12.4776C32.397 12.4829 32.3541 12.4899 32.3115 12.4984C32.2941 12.5028 32.2767 12.5074 32.2594 12.5123C32.2396 12.5166 32.2199 12.5213 32.2003 12.5262C32.1569 12.5385 32.114 12.5524 32.0716 12.5679C32.0435 12.5788 32.0157 12.5904 31.9882 12.6027C31.9719 12.6094 31.9556 12.6164 31.9395 12.6236C31.846 12.6667 31.7565 12.7179 31.6718 12.7765C31.6566 12.7856 31.6416 12.7949 31.6266 12.8043C31.5896 12.8319 31.5536 12.8609 31.5189 12.8913C31.5118 12.8982 31.5049 12.9051 31.498 12.9121C31.4681 12.9378 31.4392 12.9645 31.4111 12.9921C31.3933 13.0114 31.3759 13.0311 31.3589 13.0512C31.3324 13.0805 31.3069 13.1106 31.2824 13.1416C31.273 13.153 31.2638 13.1646 31.2546 13.1763C31.2277 13.2124 31.2022 13.2496 31.1781 13.2876C31.1711 13.2991 31.1641 13.3107 31.1573 13.3224C31.1339 13.3598 31.1118 13.398 31.0912 13.4371C31.0829 13.4532 31.0748 13.4694 31.0669 13.4858C31.0479 13.5279 31.0305 13.5708 31.0148 13.6144C31.0124 13.619 31.0101 13.6236 31.0078 13.6283C30.9719 13.7288 30.9452 13.8324 30.9278 13.9377C30.9241 13.9562 30.9206 13.9747 30.9174 13.9933C30.9109 14.0406 30.9062 14.0882 30.9035 14.1359V14.1428C30.9015 14.1752 30.9003 14.2077 30.9 14.2402V60.0543C30.9 61.8799 31.461 63.6652 32.5097 65.1614C32.5371 65.2008 32.5661 65.239 32.5966 65.2761L43.586 78.5009C43.692 78.6918 43.8323 78.8615 43.9997 79.0016L44.695 79.8359C44.7833 79.9422 44.8836 80.0379 44.994 80.121C46.0391 81.135 47.4846 81.7334 49.0442 81.6333L97.1042 78.5322C99.8972 78.3517 102.1 76.0009 102.1 73.2027V26.9366C102.1 25.2928 101.327 23.8356 100.15 22.8551C100.066 22.7597 99.9731 22.6734 99.8715 22.5978L99.0094 21.9616C98.9015 21.8589 98.7812 21.7701 98.6513 21.6974L83.9871 10.8818C82.2798 9.62194 80.1752 9.01436 78.0596 9.16786ZM78.3169 12.7174C79.5868 12.6253 80.8501 12.9914 81.8734 13.7465L92.7863 21.7982L48.2411 24.7151C46.7074 24.8152 45.2071 24.2477 44.1179 23.161H44.1144L36.692 15.7351L78.3169 12.7174ZM34.46 18.5372L41.6009 25.6781L43.36 27.4372V72.6568L35.4196 63.0998C34.7981 62.2067 34.46 61.1454 34.46 60.0543V18.5372ZM96.6453 25.1601C97.6976 25.0925 98.54 25.8834 98.54 26.9366V73.2027C98.54 74.1567 97.8269 74.9176 96.8747 74.9792L48.8148 78.0803C48.2921 78.1138 47.8213 77.9348 47.4798 77.6179L47.4763 77.6144L47.4728 77.6109C47.4655 77.6041 47.4626 77.5936 47.4554 77.5866C47.4486 77.5773 47.4416 77.568 47.4346 77.5588C47.1198 77.2405 46.92 76.8062 46.92 76.3038V30.0377C46.92 29.081 47.632 28.3228 48.5853 28.2611L96.6453 25.1601ZM90.5231 33.8202L81.491 34.3208C80.1132 34.4632 78.5081 35.4898 78.5081 37.1577L82.5131 37.4914V56.5221L68.6624 35.1586L58.2814 35.7427C56.3395 35.8851 55.8096 37.3285 55.8096 39.1636H59.8146V66.8684C59.8146 66.8684 57.9415 67.3739 57.3149 67.5359C55.9835 67.8794 55.8096 69.0373 55.8096 69.8721C55.8096 69.8721 62.4891 69.5368 65.5614 69.3054C69.0484 69.0384 69.1631 66.7015 69.1631 66.7015L65.1581 65.8671V45.338C65.1581 45.338 75.3392 61.6956 78.4524 66.5033C79.9174 68.7622 81.0113 69.2046 82.9372 69.2046C84.5179 69.2046 86.0126 68.7377 87.8496 67.7445V36.8413C87.8496 36.8413 88.1879 36.8233 89.2541 36.4797C90.4699 36.0864 90.5231 34.9878 90.5231 33.8202Z" fill="#512D5D"/>
<path d="M27.8905 141V125.256H29.9545L35.6425 135.144L37.3465 138.408H37.4425C37.3945 137.608 37.3385 136.784 37.2745 135.936C37.2265 135.072 37.2025 134.224 37.2025 133.392V125.256H39.0985V141H37.0345L31.3225 131.088L29.6185 127.848H29.5225C29.5865 128.632 29.6425 129.44 29.6905 130.272C29.7545 131.104 29.7865 131.936 29.7865 132.768V141H27.8905ZM49.2375 141.288C47.9255 141.288 46.7575 140.952 45.7335 140.28C44.7255 139.608 43.9335 138.656 43.3575 137.424C42.7975 136.192 42.5175 134.736 42.5175 133.056C42.5175 131.376 42.7975 129.936 43.3575 128.736C43.9335 127.52 44.7255 126.592 45.7335 125.952C46.7575 125.296 47.9255 124.968 49.2375 124.968C50.5655 124.968 51.7335 125.296 52.7415 125.952C53.7495 126.592 54.5415 127.52 55.1175 128.736C55.6935 129.936 55.9815 131.376 55.9815 133.056C55.9815 134.736 55.6935 136.192 55.1175 137.424C54.5415 138.656 53.7495 139.608 52.7415 140.28C51.7335 140.952 50.5655 141.288 49.2375 141.288ZM49.2375 139.536C50.1815 139.536 50.9975 139.272 51.6855 138.744C52.3895 138.2 52.9335 137.448 53.3175 136.488C53.7015 135.512 53.8935 134.368 53.8935 133.056C53.8935 131.104 53.4695 129.56 52.6215 128.424C51.7735 127.288 50.6455 126.72 49.2375 126.72C47.8295 126.72 46.7015 127.288 45.8535 128.424C45.0055 129.56 44.5815 131.104 44.5815 133.056C44.5815 134.368 44.7735 135.512 45.1575 136.488C45.5415 137.448 46.0855 138.2 46.7895 138.744C47.4935 139.272 48.3095 139.536 49.2375 139.536ZM62.0451 141V126.936H57.2931V125.256H68.8131V126.936H64.0611V141H62.0451ZM71.6483 141V125.256H73.6403V141H71.6483ZM83.761 141.288C82.449 141.288 81.281 140.952 80.257 140.28C79.249 139.608 78.457 138.656 77.881 137.424C77.321 136.192 77.041 134.736 77.041 133.056C77.041 131.376 77.321 129.936 77.881 128.736C78.457 127.52 79.249 126.592 80.257 125.952C81.281 125.296 82.449 124.968 83.761 124.968C85.089 124.968 86.257 125.296 87.265 125.952C88.273 126.592 89.065 127.52 89.641 128.736C90.217 129.936 90.505 131.376 90.505 133.056C90.505 134.736 90.217 136.192 89.641 137.424C89.065 138.656 88.273 139.608 87.265 140.28C86.257 140.952 85.089 141.288 83.761 141.288ZM83.761 139.536C84.705 139.536 85.521 139.272 86.209 138.744C86.913 138.2 87.457 137.448 87.841 136.488C88.225 135.512 88.417 134.368 88.417 133.056C88.417 131.104 87.993 129.56 87.145 128.424C86.297 127.288 85.169 126.72 83.761 126.72C82.353 126.72 81.225 127.288 80.377 128.424C79.529 129.56 79.105 131.104 79.105 133.056C79.105 134.368 79.297 135.512 79.681 136.488C80.065 137.448 80.609 138.2 81.313 138.744C82.017 139.272 82.833 139.536 83.761 139.536ZM93.8905 141V125.256H95.9545L101.642 135.144L103.346 138.408H103.442C103.394 137.608 103.338 136.784 103.274 135.936C103.226 135.072 103.202 134.224 103.202 133.392V125.256H105.098V141H103.034L97.3225 131.088L95.6185 127.848H95.5225C95.5865 128.632 95.6425 129.44 95.6905 130.272C95.7545 131.104 95.7865 131.936 95.7865 132.768V141H93.8905Z" fill="#512D5D"/>
</g>
<defs>
<clipPath id="clip0_119_2023">
<rect width="132" height="143" fill="white"/>
</clipPath>
</defs>
</svg>
