<svg width="132" height="143" viewBox="0 0 132 143" fill="none" xmlns="http://www.w3.org/2000/svg">
<g clip-path="url(#clip0_119_2023)">
<mask id="mask0_119_2023" style="mask-type:luminance" maskUnits="userSpaceOnUse" x="28" y="9" width="77" height="76">
<path d="M104.5 9H28.5V85H104.5V9Z" fill="white"/>
</mask>
<g mask="url(#mask0_119_2023)">
<mask id="mask1_119_2023" style="mask-type:luminance" maskUnits="userSpaceOnUse" x="38" y="18" width="57" height="58">
<path d="M94.7394 18.4453H38.2606V75.5559H94.7394V18.4453Z" fill="white"/>
</mask>
<g mask="url(#mask1_119_2023)">
<mask id="mask2_119_2023" style="mask-type:luminance" maskUnits="userSpaceOnUse" x="38" y="18" width="57" height="58">
<path d="M94.7394 18.4453H38.2606V75.5559H94.7394V18.4453Z" fill="white"/>
</mask>
<g mask="url(#mask2_119_2023)">
<mask id="mask3_119_2023" style="mask-type:luminance" maskUnits="userSpaceOnUse" x="38" y="18" width="233" height="58">
<path d="M270.651 18.4453H38.2606V75.5559H270.651V18.4453Z" fill="white"/>
</mask>
<g mask="url(#mask3_119_2023)">
<path d="M175.59 40.667V40.6862C175.474 40.6862 175.357 40.7054 175.241 40.7054C175.125 40.7054 175.009 40.6862 174.893 40.6862C167.98 40.6862 163.701 44.9991 163.701 51.9221V55.3257C163.701 61.9973 168.038 66.1359 174.989 66.1359C175.132 66.1397 175.274 66.1334 175.415 66.117C175.512 66.117 175.59 66.1359 175.686 66.1359C180.353 66.1359 183.606 64.4346 185.678 60.9145L181.553 58.5353C180.179 60.5658 178.339 62.0937 175.706 62.0937C172.182 62.0937 170.071 59.9277 170.071 56.2727V55.3058H186.414V51.2834C186.414 44.8244 182.174 40.6663 175.59 40.6663V40.667ZM175.241 44.6318C178.456 44.7867 180.392 46.9137 180.392 50.4138V51.3807H170.052V50.8194C170.052 46.952 171.892 44.786 175.241 44.6311V44.6318ZM149.856 40.6862C146.778 40.6862 144.125 41.9628 142.731 44.0898L142.382 44.6311V41.2659H136.535V73.9293H142.673V62.5201L143.021 63.0423C144.338 64.995 146.913 66.1552 149.915 66.1552H150.07H150.205C155.259 66.1552 160.351 62.8676 160.351 55.4997V51.3614C160.351 46.0626 157.214 40.7061 150.166 40.7061L150.127 40.6869H149.992L149.856 40.6862ZM148.424 45.289C151.987 45.3472 154.194 47.7641 154.194 51.6321V55.1899C154.194 59.0575 151.967 61.4559 148.365 61.5333C145.016 61.4752 142.673 58.9226 142.673 55.2865V51.6315C142.673 47.9573 145.035 45.3657 148.424 45.2883V45.289ZM227.968 32.6223L216.157 65.5756H222.798L225.064 58.517H237.959V58.5944L240.225 65.5945H246.866L235.036 32.6415H234.339L234.319 32.6223H227.968ZM231.493 38.2886L236.43 53.8565H226.515L231.493 38.2886ZM270.625 37.2634V32.6223H250.371V37.2634H257.477V60.8952H250.371V65.5364H270.625V60.8952H263.519V37.2634H270.625ZM203.977 40.6869H203.802H203.705C200.278 40.6869 197.838 41.847 196.638 44.0713L196.27 44.7483V41.2673H190.422V65.5563H196.56V51.091C196.56 47.6873 198.4 45.7344 201.575 45.6761C204.615 45.7344 206.358 47.6489 206.358 50.9559V65.5563H212.496V49.9109C212.496 44.1289 209.321 40.6862 203.996 40.6862L203.977 40.6869ZM116.802 31.9453C107.76 31.9453 102.125 37.5732 102.125 46.643V51.5355C102.125 60.6056 107.74 66.2326 116.802 66.2326H116.938H117.074C126.117 66.2326 131.751 60.6056 131.751 51.5355V46.643C131.751 37.5732 126.117 31.9453 117.074 31.9453H116.938H116.802ZM116.938 36.8578C122.322 36.916 125.42 40.358 125.42 46.3141V51.8836C125.42 57.8398 122.322 61.2825 116.938 61.34C111.555 61.2819 108.457 57.8398 108.457 51.8836V46.3141C108.457 40.358 111.555 36.9153 116.938 36.8578ZM63.4761 18.4474C57.2215 18.4474 51.6646 22.4698 49.7277 28.4067C45.7067 29.2345 42.2363 31.7494 40.201 35.3105C37.064 40.7253 37.7804 47.5324 41.9828 52.1736C40.6854 56.0611 41.1307 60.315 43.2028 63.8351C46.3205 69.2688 52.5936 72.0539 58.7323 70.7579C61.4513 73.8228 65.3598 75.5702 69.4598 75.5538C75.7143 75.5538 81.2714 71.5318 83.2083 65.5945C87.2358 64.7628 90.702 62.2488 92.7157 58.691C95.8719 53.2763 95.1555 46.4689 90.9537 41.8278V41.8086C92.2505 37.9213 91.8058 33.6644 89.7338 30.128C86.6153 24.7133 80.3415 21.9278 74.2228 23.2236C71.4914 20.167 67.5781 18.4278 63.4761 18.4474ZM63.4761 22.1607L63.4569 22.1799C65.9743 22.1799 68.3949 23.0502 70.3312 24.6557C70.2538 24.6941 70.0985 24.7907 69.9827 24.8489L58.5971 31.4046C58.016 31.7335 57.6675 32.3523 57.6675 33.0293V48.4226L52.7686 45.5994V32.8745C52.7663 26.9641 57.5583 22.1691 63.4761 22.1601V22.1607ZM77.1917 26.6422C81.032 26.6348 84.5829 28.6804 86.4995 32.0042C87.7387 34.1703 88.203 36.7036 87.777 39.1595C87.6995 39.1012 87.5452 39.0245 87.4478 38.9663L76.0623 32.3907C75.4797 32.0616 74.7671 32.0616 74.1845 32.3907L60.8428 40.0873V34.4403L71.8605 28.0778C73.4805 27.1398 75.319 26.6444 77.1917 26.6415V26.6422ZM49.0313 32.4873V46.005C49.0313 46.6821 49.3799 47.2817 49.961 47.6298L63.2827 55.3071L58.3639 58.1496L47.3654 51.8062C42.2476 48.8441 40.4978 42.3026 43.4545 37.186C44.7072 35.0174 46.6801 33.3549 49.0313 32.4866V32.4873ZM74.552 35.8326L85.5697 42.1759C90.7013 45.1348 92.4434 51.6713 89.4808 56.7961L89.4998 56.8154C88.2416 58.9813 86.2661 60.6444 83.9231 61.4957V47.9772C83.9231 47.3001 83.5746 46.6814 82.9936 46.3531L69.6526 38.6559L74.552 35.8326ZM66.458 40.4937L72.0739 43.7424V50.2205L66.458 53.4693L60.8428 50.2205V43.7424L66.458 40.4937ZM75.2877 45.5994L80.1866 48.4226V61.1284C80.1866 67.046 75.3845 71.842 69.479 71.842V71.823C66.9808 71.823 64.541 70.9524 62.624 69.3478C62.7015 69.3093 62.8758 69.212 62.9725 69.1538L74.3578 62.5981C74.9391 62.2693 75.307 61.6505 75.2871 60.9736L75.2877 45.5994ZM72.0923 53.9147V59.5613L61.0747 65.9044C55.9433 68.844 49.3984 67.1035 46.4357 61.998H46.4549C45.1966 59.8509 44.7506 57.2983 45.1767 54.8427C45.2542 54.9008 45.4093 54.9776 45.506 55.0357L56.8915 61.6113C57.4741 61.9405 58.1868 61.9405 58.7694 61.6113L72.0923 53.9147Z" fill="#371D3F"/>
</g>
</g>
</g>
</g>
</g>
<path d="M27.5729 128.288C26.2609 128.288 25.0849 127.968 24.0449 127.328C23.0209 126.672 22.2049 125.736 21.5969 124.52C21.0049 123.304 20.7089 121.84 20.7089 120.128C20.7089 118.432 21.0129 116.976 21.6209 115.76C22.2289 114.544 23.0609 113.608 24.1169 112.952C25.1729 112.296 26.3649 111.968 27.6929 111.968C28.6529 111.968 29.5009 112.168 30.2369 112.568C30.9729 112.952 31.5649 113.4 32.0129 113.912L30.9329 115.208C30.5169 114.76 30.0449 114.4 29.5169 114.128C28.9889 113.856 28.3889 113.72 27.7169 113.72C26.7249 113.72 25.8529 113.984 25.1009 114.512C24.3649 115.024 23.7889 115.752 23.3729 116.696C22.9729 117.64 22.7729 118.768 22.7729 120.08C22.7729 121.392 22.9729 122.536 23.3729 123.512C23.7729 124.472 24.3329 125.216 25.0529 125.744C25.7889 126.272 26.6529 126.536 27.6449 126.536C28.3969 126.536 29.0689 126.376 29.6609 126.056C30.2529 125.736 30.7969 125.304 31.2929 124.76L32.3969 126.008C31.7729 126.728 31.0689 127.288 30.2849 127.688C29.5009 128.088 28.5969 128.288 27.5729 128.288ZM35.3319 128V112.256H37.3239V118.856H44.6439V112.256H46.6599V128H44.6439V120.584H37.3239V128H35.3319ZM53.7001 119.192L52.9561 121.592H57.6841L56.9401 119.192C56.6521 118.312 56.3801 117.44 56.1241 116.576C55.8681 115.696 55.6121 114.8 55.3561 113.888H55.2601C55.0201 114.8 54.7721 115.696 54.5161 116.576C54.2601 117.44 53.9881 118.312 53.7001 119.192ZM48.9001 128L54.2281 112.256H56.4841L61.8121 128H59.6761L58.1881 123.2H52.4521L50.9401 128H48.9001ZM65.9943 128V113.936H61.2423V112.256H72.7623V113.936H68.0103V128H65.9943ZM81.2036 128.288C79.8276 128.288 78.6036 127.968 77.5316 127.328C76.4596 126.672 75.6196 125.736 75.0116 124.52C74.4036 123.304 74.0996 121.84 74.0996 120.128C74.0996 118.432 74.4116 116.976 75.0356 115.76C75.6596 114.544 76.5156 113.608 77.6036 112.952C78.6916 112.296 79.9316 111.968 81.3236 111.968C82.4116 111.968 83.3236 112.176 84.0596 112.592C84.8116 112.992 85.4116 113.432 85.8596 113.912L84.7556 115.208C84.3556 114.792 83.8916 114.44 83.3636 114.152C82.8356 113.864 82.1716 113.72 81.3716 113.72C80.3156 113.72 79.3956 113.984 78.6116 114.512C77.8276 115.024 77.2196 115.752 76.7876 116.696C76.3716 117.64 76.1636 118.768 76.1636 120.08C76.1636 122.064 76.6116 123.64 77.5076 124.808C78.4196 125.96 79.7156 126.536 81.3956 126.536C81.9556 126.536 82.4916 126.456 83.0036 126.296C83.5156 126.12 83.9236 125.888 84.2276 125.6V121.496H80.8916V119.84H86.0516V126.464C85.5556 126.992 84.8836 127.432 84.0356 127.784C83.2036 128.12 82.2596 128.288 81.2036 128.288ZM89.8241 128V112.256H94.3121C95.4961 112.256 96.5281 112.4 97.4081 112.688C98.2881 112.976 98.9761 113.464 99.4721 114.152C99.9681 114.824 100.216 115.736 100.216 116.888C100.216 118.536 99.6801 119.76 98.6081 120.56C97.5361 121.36 96.1361 121.76 94.4081 121.76H91.8161V128H89.8241ZM91.8161 120.128H94.1681C95.5441 120.128 96.5601 119.872 97.2161 119.36C97.8881 118.832 98.2241 118.008 98.2241 116.888C98.2241 115.752 97.8721 114.968 97.1681 114.536C96.4801 114.088 95.4481 113.864 94.0721 113.864H91.8161V120.128ZM106.096 128V113.936H101.344V112.256H112.864V113.936H108.112V128H106.096Z" fill="#512D5D"/>
<defs>
<clipPath id="clip0_119_2023">
<rect width="76" height="76" fill="white" transform="translate(28.5 9)"/>
</clipPath>
</defs>
</svg>
