<svg width="132" height="143" viewBox="0 0 132 143" fill="none" xmlns="http://www.w3.org/2000/svg">
<path d="M66.5 37.3333H89.8334V14H43.1667L66.5 37.3333ZM66.5 37.3333H43.1667V60.6667M66.5 37.3333L89.8334 60.6667H43.1667M43.1667 60.6667H66.5V84L43.1667 60.6667Z" stroke="#512D5D" stroke-width="2"/>
<path d="M27.16 123V107.256H36.232V108.936H29.152V114.264H35.152V115.944H29.152V123H27.16ZM39.0194 123V107.256H43.9394C45.0114 107.256 45.9634 107.4 46.7954 107.688C47.6274 107.96 48.2754 108.424 48.7394 109.08C49.2194 109.72 49.4594 110.584 49.4594 111.672C49.4594 112.888 49.1394 113.872 48.4994 114.624C47.8594 115.36 46.9954 115.864 45.9074 116.136L49.9154 123H47.6594L43.8674 116.352H41.0114V123H39.0194ZM41.0114 114.72H43.6514C44.8834 114.72 45.8274 114.472 46.4834 113.976C47.1394 113.464 47.4674 112.696 47.4674 111.672C47.4674 110.632 47.1394 109.904 46.4834 109.488C45.8274 109.072 44.8834 108.864 43.6514 108.864H41.0114V114.72ZM55.3017 114.192L54.5577 116.592H59.2857L58.5417 114.192C58.2537 113.312 57.9817 112.44 57.7257 111.576C57.4697 110.696 57.2137 109.8 56.9577 108.888H56.8617C56.6217 109.8 56.3737 110.696 56.1177 111.576C55.8617 112.44 55.5897 113.312 55.3017 114.192ZM50.5017 123L55.8297 107.256H58.0857L63.4137 123H61.2777L59.7897 118.2H54.0537L52.5417 123H50.5017ZM65.6444 123V107.256H68.0444L71.0684 115.656C71.2604 116.2 71.4444 116.752 71.6204 117.312C71.8124 117.856 72.0044 118.4 72.1964 118.944H72.2924C72.4844 118.4 72.6604 117.856 72.8204 117.312C72.9964 116.752 73.1804 116.2 73.3724 115.656L76.3484 107.256H78.7724V123H76.9004V114.336C76.9004 113.632 76.9324 112.856 76.9964 112.008C77.0604 111.144 77.1164 110.368 77.1644 109.68H77.0684L75.8204 113.256L72.8444 121.416H71.5244L68.5484 113.256L67.3004 109.68H67.2044C67.2524 110.368 67.3004 111.144 67.3484 112.008C67.4124 112.856 67.4444 113.632 67.4444 114.336V123H65.6444ZM83.0819 123V107.256H92.1539V108.936H85.0739V113.88H91.0499V115.584H85.0739V121.296H92.3939V123H83.0819ZM95.7381 123V107.256H100.658C101.73 107.256 102.682 107.4 103.514 107.688C104.346 107.96 104.994 108.424 105.458 109.08C105.938 109.72 106.178 110.584 106.178 111.672C106.178 112.888 105.858 113.872 105.218 114.624C104.578 115.36 103.714 115.864 102.626 116.136L106.634 123H104.378L100.586 116.352H97.7301V123H95.7381ZM97.7301 114.72H100.37C101.602 114.72 102.546 114.472 103.202 113.976C103.858 113.464 104.186 112.696 104.186 111.672C104.186 110.632 103.858 109.904 103.202 109.488C102.546 109.072 101.602 108.864 100.37 108.864H97.7301V114.72Z" fill="#512D5D"/>
</svg>
