<svg width="132" height="143" viewBox="0 0 132 143" fill="none" xmlns="http://www.w3.org/2000/svg">
<path d="M59.1318 6.50631C61.087 6.50437 63.0414 6.50244 64.9936 6.50214V6.52103H65.4936C67.6859 6.52103 69.8764 6.51284 72.0659 6.50464C77.3153 6.485 82.5584 6.46538 87.8045 6.55882C92.8465 6.65156 97.3244 8.24057 100.81 12.0385L100.811 12.0391C103.163 14.5927 104.543 17.5864 105.115 21.019C105.431 23.0059 105.506 25.0196 105.506 27.0528C105.497 33.7832 105.497 40.5136 105.497 47.2459C105.497 53.9783 105.497 60.7127 105.487 67.4518V67.4525C105.487 71.7134 104.739 75.7583 102.213 79.2365C99.3242 83.2111 95.4342 85.471 90.5649 86.1723C88.5358 86.4515 86.4996 86.5083 84.4247 86.5083C81.1063 86.5083 77.7881 86.5095 74.4697 86.5107C64.5163 86.5142 54.5612 86.5178 44.5951 86.4894H44.5937C40.5943 86.4894 36.7846 85.8348 33.4135 83.6362C29.1808 80.8758 26.7022 76.9684 25.8911 71.9726L25.8906 71.9698C25.5571 69.9869 25.5 67.9766 25.5 65.9383C25.5095 59.2081 25.5095 52.478 25.5095 45.7458V45.7456C25.5095 39.0132 25.5095 32.2788 25.5189 25.5397V25.539C25.5189 21.2788 26.2666 17.2518 28.794 13.7538L28.7946 13.7528C31.6634 9.76225 35.5706 7.52068 40.4414 6.83802L40.4421 6.83793C42.4136 6.55894 44.3924 6.50212 46.3914 6.50211C50.6334 6.51473 54.8846 6.51052 59.1318 6.50631Z" stroke="#512D5D"/>
<path d="M76.8712 34.9484C75.546 38.7157 74.2019 42.464 72.8768 46.2313C70.0182 54.3338 67.1785 62.4363 64.3199 70.5199C64.2252 70.7849 64.0927 71.031 63.9791 71.2961C63.6005 71.4854 63.203 71.5422 62.8054 71.5422C61.1773 71.5422 59.5493 71.5422 57.9212 71.5422C57.5236 71.5422 57.0882 71.58 56.8043 71.2014C56.7285 71.1068 56.7285 70.9932 56.7853 70.8796C58.7731 60.2593 60.7609 49.6389 62.7486 39.0186C62.8054 38.7346 62.8243 38.4506 62.8622 38.1856C63.0515 37.9016 62.8433 37.5798 62.919 37.2958C62.9947 37.0876 63.1272 36.8793 63.1272 36.6522C63.1272 36.6711 63.1272 36.6143 63.1272 36.6143C63.1272 36.6143 63.1272 36.6332 63.1272 36.6522C63.1083 36.8225 63.0515 36.9551 62.9758 37.1065C62.8811 37.2769 62.8243 37.4662 62.6729 37.6177C59.3221 46.1177 55.9902 54.5988 52.6394 63.0989C51.5414 65.8818 50.4623 68.6647 49.3643 71.4475C49.2507 71.4854 49.1372 71.5233 49.0236 71.5422C47.1115 71.599 45.1995 71.5611 43.3064 71.5611C42.7384 71.5611 42.2084 71.4854 42.2273 70.7281C43.0035 67.1312 43.7607 63.5154 44.5369 59.9185C46.0703 52.9329 47.6037 45.9473 49.1561 38.9618C49.2886 38.3938 49.194 37.9205 48.9668 37.4094C46.7897 32.4873 44.6316 27.5463 42.4545 22.6242C42.303 22.2835 42.0569 21.9806 42.0948 21.5262C44.3665 21.5262 46.6383 21.5262 48.91 21.5262C49.175 21.5262 49.3833 21.6209 49.5915 21.7912C54.0592 25.9561 58.527 30.1399 63.1272 34.2479C60.988 30.0641 58.8488 25.8804 56.6339 21.5262C57.8644 21.5262 58.9624 21.6587 60.0225 21.5073C62.8243 21.1097 64.9825 22.0941 67.0649 23.9494C70.2264 26.7512 73.634 29.269 77.0984 31.8058C75.1864 28.4361 73.2743 25.0663 71.2676 21.5451C73.0282 21.5451 74.6374 21.6209 76.2465 21.5262C77.8556 21.4126 79.1997 21.867 80.5628 22.7378C84.1029 25.0474 87.7188 27.2245 91.3157 29.4394C91.8268 29.7423 91.9782 30.0073 91.7889 30.6131C87.4537 44.0164 83.1564 57.4196 78.8211 70.8039C78.7454 71.031 78.7643 71.315 78.4993 71.4665C76.2844 71.6747 74.0505 71.5422 71.8356 71.5422C71.6462 71.5422 71.4759 71.4475 71.3433 71.2961C71.8734 67.8695 72.4035 64.443 72.9336 61.0354C74.2966 52.4218 75.6596 43.8081 77.0416 35.1945C77.0984 34.9673 76.9848 34.7023 77.0984 34.4751C77.0984 34.4562 77.1173 34.4372 77.0984 34.4183C77.0795 34.5887 77.0227 34.7969 76.8712 34.9484Z" fill="#512D5D"/>
<path d="M40.9912 135.014V119.27H43.3912L46.4152 127.67C46.6072 128.214 46.7912 128.766 46.9672 129.326C47.1592 129.87 47.3512 130.414 47.5432 130.958H47.6392C47.8312 130.414 48.0072 129.87 48.1672 129.326C48.3432 128.766 48.5272 128.214 48.7192 127.67L51.6952 119.27H54.1192V135.014H52.2472V126.35C52.2472 125.646 52.2792 124.87 52.3432 124.022C52.4072 123.158 52.4632 122.382 52.5112 121.694H52.4152L51.1672 125.27L48.1912 133.43H46.8712L43.8952 125.27L42.6472 121.694H42.5512C42.5992 122.382 42.6472 123.158 42.6952 124.022C42.7592 124.87 42.7912 125.646 42.7912 126.35V135.014H40.9912ZM58.4287 135.014V119.27H60.4207V135.014H58.4287ZM64.7334 135.014V119.27H69.6534C70.7254 119.27 71.6774 119.414 72.5094 119.702C73.3414 119.974 73.9894 120.438 74.4534 121.094C74.9334 121.734 75.1734 122.598 75.1734 123.686C75.1734 124.902 74.8534 125.886 74.2134 126.638C73.5734 127.374 72.7094 127.878 71.6214 128.15L75.6294 135.014H73.3734L69.5814 128.366H66.7254V135.014H64.7334ZM66.7254 126.734H69.3654C70.5974 126.734 71.5414 126.486 72.1974 125.99C72.8534 125.478 73.1814 124.71 73.1814 123.686C73.1814 122.646 72.8534 121.918 72.1974 121.502C71.5414 121.086 70.5974 120.878 69.3654 120.878H66.7254V126.734ZM84.2055 135.302C82.8935 135.302 81.7255 134.966 80.7015 134.294C79.6935 133.622 78.9015 132.67 78.3255 131.438C77.7655 130.206 77.4855 128.75 77.4855 127.07C77.4855 125.39 77.7655 123.95 78.3255 122.75C78.9015 121.534 79.6935 120.606 80.7015 119.966C81.7255 119.31 82.8935 118.982 84.2055 118.982C85.5335 118.982 86.7015 119.31 87.7095 119.966C88.7175 120.606 89.5095 121.534 90.0855 122.75C90.6615 123.95 90.9495 125.39 90.9495 127.07C90.9495 128.75 90.6615 130.206 90.0855 131.438C89.5095 132.67 88.7175 133.622 87.7095 134.294C86.7015 134.966 85.5335 135.302 84.2055 135.302ZM84.2055 133.55C85.1495 133.55 85.9655 133.286 86.6535 132.758C87.3575 132.214 87.9015 131.462 88.2855 130.502C88.6695 129.526 88.8615 128.382 88.8615 127.07C88.8615 125.118 88.4375 123.574 87.5895 122.438C86.7415 121.302 85.6135 120.734 84.2055 120.734C82.7975 120.734 81.6695 121.302 80.8215 122.438C79.9735 123.574 79.5495 125.118 79.5495 127.07C79.5495 128.382 79.7415 129.526 80.1255 130.502C80.5095 131.462 81.0535 132.214 81.7575 132.758C82.4615 133.286 83.2775 133.55 84.2055 133.55Z" fill="#512D5D"/>
</svg>
