<svg width="132" height="143" viewBox="0 0 132 143" fill="none" xmlns="http://www.w3.org/2000/svg">
<path d="M53.1073 16.0191C55.5941 19.5124 58.0425 22.958 60.5579 26.4895C62.3656 23.9507 64.1541 21.45 65.9809 18.8825C67.8077 21.4404 69.5962 23.9602 71.4325 26.5372C73.9479 22.9962 76.4251 19.522 78.9405 16C79.7535 17.1358 80.5282 18.2239 81.3029 19.3024C82.9192 21.574 84.5356 23.8361 86.1328 26.1173C86.2954 26.3463 86.3911 26.6613 86.4006 26.9381C86.4293 28.6275 86.4198 30.3074 86.4102 31.9967C86.4102 32.3213 86.4963 32.5026 86.8119 32.6458C88.7439 33.543 90.6663 34.4688 92.5983 35.3755C92.9044 35.5187 93 35.6905 93 36.0246C92.9904 48.6521 92.9904 61.2796 93 73.9166C93 74.2125 92.9617 74.4034 92.6557 74.5561C83.9139 78.6603 75.1817 82.774 66.4495 86.8973C66.1435 87.0404 65.9044 87.0309 65.6079 86.8877C56.8661 82.7549 48.1148 78.6317 39.3539 74.5179C39.0765 74.3843 39 74.2316 39 73.9357C39.0096 61.2891 39.0096 48.6425 39 35.9959C39 35.6905 39.1052 35.5473 39.3634 35.4233C41.305 34.5165 43.2465 33.5812 45.1977 32.6744C45.542 32.5122 45.6568 32.3308 45.6472 31.9586C45.6281 30.2692 45.6281 28.5893 45.6472 26.8999C45.6472 26.69 45.695 26.4418 45.8098 26.2795C48.153 22.9389 50.5345 19.5983 52.916 16.2577C52.9543 16.1909 53.0117 16.1336 53.1073 16.0191ZM42.0893 40.3674C42.0893 40.6251 42.0893 40.7587 42.0893 40.9019C42.0893 51.2673 42.0893 61.6423 42.0797 72.0077C42.0797 72.3418 42.1849 72.504 42.491 72.6472C47.3401 74.9188 52.1796 77.2095 57.0191 79.4907C59.3528 80.5883 61.6769 81.6859 64.0106 82.7836C64.1445 82.8504 64.288 82.8886 64.4602 82.9649C64.4697 82.7454 64.4793 82.6022 64.4793 82.4686C64.4793 72.1127 64.4793 61.7664 64.4888 51.4105C64.4888 51.0669 64.4028 50.876 64.068 50.7233C57.5834 47.669 51.0988 44.6052 44.6047 41.5509C43.8013 41.1691 42.9979 40.7969 42.0893 40.3674ZM89.9394 40.4055C89.729 40.4819 89.6142 40.5201 89.4995 40.5773C82.3645 43.937 75.22 47.3063 68.0755 50.6564C67.6451 50.8569 67.5207 51.0955 67.5207 51.5536C67.5399 61.8427 67.5303 72.1318 67.5303 82.4209C67.5303 82.5831 67.5494 82.7549 67.559 82.9935C67.7885 82.8886 67.9607 82.8217 68.1233 82.7454C70.7535 81.5046 73.3741 80.2638 76.0042 79.023C80.4803 76.9136 84.9469 74.8043 89.4325 72.7045C89.8342 72.5136 89.9394 72.294 89.9394 71.8741C89.9299 61.585 89.9299 51.2959 89.9299 41.0068C89.9394 40.8255 89.9394 40.6537 89.9394 40.4055ZM66.9756 47.8217C68.3337 47.1822 69.6057 46.6 70.8491 45.9891C70.9543 45.9319 71.0308 45.7028 71.0308 45.5596C71.0404 40.8732 71.0308 36.1773 71.0499 31.4909C71.0499 31.1186 70.916 31.0327 70.5717 31.0423C69.5484 31.0614 68.5345 31.0709 67.5112 31.0423C67.0521 31.0232 66.9564 31.1855 66.966 31.6054C66.9756 36.8168 66.9756 42.0377 66.9756 47.249C66.9756 47.3922 66.9756 47.5544 66.9756 47.8217ZM65.0053 47.7835C65.0053 47.5163 65.0053 47.3254 65.0053 47.144C65.0053 43.1067 65.0053 39.0598 65.0053 35.0224C65.0053 33.8293 64.9957 32.6362 65.0053 31.4432C65.0053 31.1377 64.9097 31.0232 64.594 31.0232C63.4942 31.0423 62.3943 31.0327 61.2944 31.0232C60.9979 31.0232 60.9118 31.1186 60.9118 31.4145C60.9214 36.12 60.9118 40.835 60.9309 45.5405C60.9309 45.7028 61.1031 45.9414 61.2561 46.0178C61.8108 46.3232 62.4038 46.5713 62.9777 46.8386C63.6185 47.144 64.2689 47.4399 65.0053 47.7835ZM73.8619 44.5097C74.0149 44.4715 74.101 44.4715 74.1679 44.4334C75.3443 43.8798 76.5303 43.3262 77.6971 42.744C77.831 42.6772 77.9458 42.429 77.9458 42.2667C77.9554 37.7044 77.9554 33.1421 77.9649 28.5798C77.9649 28.2362 77.8406 28.1503 77.525 28.1598C76.492 28.1789 75.4495 28.1885 74.4166 28.1598C73.9766 28.1503 73.8523 28.2744 73.8619 28.7134C73.881 33.8007 73.8714 38.8879 73.8714 43.9752C73.8618 44.1279 73.8619 44.2902 73.8619 44.5097ZM58.1668 44.5765C58.1668 44.2902 58.1668 44.1184 58.1668 43.9466C58.1668 38.9261 58.1668 33.9057 58.1668 28.8757C58.1668 28.7611 58.1573 28.6561 58.1668 28.5416C58.1955 28.2457 58.0712 28.1598 57.7843 28.1598C57.0861 28.1789 56.3783 28.1598 55.6801 28.1598C55.1732 28.1598 54.6663 28.1598 54.169 28.1598C54.1403 28.2744 54.1116 28.3412 54.1116 28.3984C54.1116 33.0562 54.102 37.714 54.1211 42.3717C54.1211 42.5149 54.2742 42.7153 54.4081 42.7821C54.915 43.0494 55.441 43.288 55.9575 43.5266C56.6461 43.8702 57.3443 44.1947 58.1668 44.5765ZM48.0287 28.198C48.0287 28.4175 48.0287 28.5893 48.0287 28.7611C48.0287 32.0063 48.0669 35.2419 48 38.4871C47.9809 39.4702 48.1626 40.1287 49.1955 40.3578C49.3773 40.396 49.5399 40.5201 49.712 40.5964C50.4867 40.9591 51.2519 41.3123 52.0744 41.6941C52.0744 37.1508 52.0744 32.684 52.0744 28.1885C50.7354 28.198 49.4155 28.198 48.0287 28.198ZM79.9734 41.6941C81.2072 41.1118 82.3645 40.5487 83.5409 40.0238C83.8852 39.871 84 39.6897 84 39.3079C83.9809 35.7669 83.9904 32.2258 83.9904 28.6752C83.9904 28.5225 83.9809 28.3698 83.9713 28.1885C82.6227 28.1885 81.3124 28.1885 79.983 28.1885C79.9734 32.6935 79.9734 37.1508 79.9734 41.6941ZM70.2561 29.0379C69.2806 27.6635 68.3719 26.375 67.4442 25.1055C67.3581 24.991 67.1477 24.9242 67.0043 24.9242C66.3634 24.9147 65.7322 24.9528 65.0914 24.9337C64.7566 24.9242 64.5367 25.0387 64.3454 25.3155C63.6185 26.375 62.8533 27.4153 62.1073 28.4652C61.9926 28.6275 61.8874 28.7993 61.7439 29.0284C64.5941 29.0379 67.3677 29.0379 70.2561 29.0379ZM74.6748 26.1364C77.5441 26.1364 80.3177 26.1364 83.1296 26.1364C83.0914 26.0409 83.0818 25.9741 83.0531 25.9264C82.1828 24.6951 81.3124 23.4639 80.423 22.2422C80.3464 22.1372 80.1647 22.0417 80.0308 22.0417C79.2944 22.0322 78.5675 22.0417 77.831 22.0704C77.6971 22.0799 77.5154 22.1563 77.4389 22.2613C76.5303 23.5211 75.6408 24.7906 74.6748 26.1364ZM48.8321 26.1459C51.7109 26.1459 54.475 26.1459 57.3061 26.1459C57.2582 26.0409 57.2295 25.9646 57.1913 25.9073C56.3305 24.6856 55.4697 23.4639 54.5898 22.2613C54.5037 22.1372 54.2742 22.0513 54.1116 22.0513C53.423 22.0322 52.7439 22.0513 52.0553 22.0799C51.9022 22.0895 51.6918 22.1467 51.6057 22.2613C50.6971 23.5116 49.7981 24.781 48.8321 26.1459ZM86.4389 35.471C86.4389 36.5686 86.4389 37.5708 86.4389 38.6493C87.6344 38.0862 88.7726 37.5517 90.0446 36.9504C88.7822 36.435 87.644 35.9673 86.4389 35.471ZM45.5898 38.6398C45.5898 37.5517 45.5898 36.5495 45.5898 35.4805C44.3943 35.9673 43.2465 36.435 41.9936 36.9504C43.2657 37.5517 44.4038 38.0862 45.5898 38.6398Z" fill="#512D5D"/>
<path d="M26.3592 122V106.256H30.8472C32.0312 106.256 33.0632 106.4 33.9432 106.688C34.8232 106.976 35.5112 107.464 36.0072 108.152C36.5032 108.824 36.7512 109.736 36.7512 110.888C36.7512 112.536 36.2152 113.76 35.1432 114.56C34.0712 115.36 32.6712 115.76 30.9432 115.76H28.3512V122H26.3592ZM28.3512 114.128H30.7032C32.0792 114.128 33.0952 113.872 33.7512 113.36C34.4232 112.832 34.7592 112.008 34.7592 110.888C34.7592 109.752 34.4072 108.968 33.7032 108.536C33.0152 108.088 31.9832 107.864 30.6072 107.864H28.3512V114.128ZM39.953 122V106.256H49.025V107.936H41.945V112.88H47.921V114.584H41.945V120.296H49.265V122H39.953ZM52.6092 122V106.256H54.6732L60.3612 116.144L62.0652 119.408H62.1612C62.1132 118.608 62.0572 117.784 61.9932 116.936C61.9452 116.072 61.9212 115.224 61.9212 114.392V106.256H63.8172V122H61.7532L56.0412 112.088L54.3372 108.848H54.2412C54.3052 109.632 54.3612 110.44 54.4092 111.272C54.4732 112.104 54.5052 112.936 54.5052 113.768V122H52.6092ZM68.1483 122V106.256H72.6363C73.8203 106.256 74.8523 106.4 75.7323 106.688C76.6123 106.976 77.3003 107.464 77.7963 108.152C78.2923 108.824 78.5403 109.736 78.5403 110.888C78.5403 112.536 78.0043 113.76 76.9323 114.56C75.8603 115.36 74.4603 115.76 72.7323 115.76H70.1403V122H68.1483ZM70.1403 114.128H72.4923C73.8683 114.128 74.8843 113.872 75.5403 113.36C76.2123 112.832 76.5483 112.008 76.5483 110.888C76.5483 109.752 76.1963 108.968 75.4923 108.536C74.8043 108.088 73.7723 107.864 72.3963 107.864H70.1403V114.128ZM87.55 122.288C86.238 122.288 85.07 121.952 84.046 121.28C83.038 120.608 82.246 119.656 81.67 118.424C81.11 117.192 80.83 115.736 80.83 114.056C80.83 112.376 81.11 110.936 81.67 109.736C82.246 108.52 83.038 107.592 84.046 106.952C85.07 106.296 86.238 105.968 87.55 105.968C88.878 105.968 90.046 106.296 91.054 106.952C92.062 107.592 92.854 108.52 93.43 109.736C94.006 110.936 94.294 112.376 94.294 114.056C94.294 115.736 94.006 117.192 93.43 118.424C92.854 119.656 92.062 120.608 91.054 121.28C90.046 121.952 88.878 122.288 87.55 122.288ZM87.55 120.536C88.494 120.536 89.31 120.272 89.998 119.744C90.702 119.2 91.246 118.448 91.63 117.488C92.014 116.512 92.206 115.368 92.206 114.056C92.206 112.104 91.782 110.56 90.934 109.424C90.086 108.288 88.958 107.72 87.55 107.72C86.142 107.72 85.014 108.288 84.166 109.424C83.318 110.56 82.894 112.104 82.894 114.056C82.894 115.368 83.086 116.512 83.47 117.488C83.854 118.448 84.398 119.2 85.102 119.744C85.806 120.272 86.622 120.536 87.55 120.536ZM100.358 122V107.936H95.6056V106.256H107.126V107.936H102.374V122H100.358Z" fill="#512D5D"/>
</svg>
