<svg width="132" height="143" viewBox="0 0 132 143" fill="none" xmlns="http://www.w3.org/2000/svg">
<g clip-path="url(#clip0_119_2023)">
<path d="M69.3019 62.5626C69.3019 62.8644 69.0599 63.1091 68.7615 63.1091C68.463 63.1091 68.2211 62.8644 68.2211 62.5626C68.2211 62.2607 68.463 62.016 68.7615 62.016C69.0599 62.016 69.3019 62.2607 69.3019 62.5626ZM68.2211 63.8729C68.0617 63.8729 67.9219 63.9354 67.8013 64.0223C67.825 63.9522 67.8454 63.8798 67.8454 63.8013C67.8454 63.4194 67.539 63.1091 67.161 63.1091C66.7831 63.1091 66.4767 63.4194 66.4767 63.8013C66.4767 64.1839 66.7831 64.4934 67.161 64.4934C67.3024 64.4934 67.4263 64.4401 67.5356 64.3654C67.507 64.4446 67.4851 64.5285 67.4851 64.6177C67.4851 65.0285 67.8149 65.3624 68.2211 65.3624C68.6277 65.3624 68.9574 65.0285 68.9574 64.6177C68.9574 64.2068 68.6277 63.8729 68.2211 63.8729ZM66.9421 65.5255C66.9153 65.0788 66.5573 64.7221 66.1089 64.7221C66.0301 64.7221 65.9593 64.7473 65.8873 64.7671C66.0169 64.6238 66.101 64.437 66.101 64.2274C66.101 63.783 65.7445 63.4224 65.3051 63.4224C64.8657 63.4224 64.5092 63.783 64.5092 64.2274C64.5092 64.6718 64.8657 65.0323 65.3051 65.0323C65.3737 65.0323 65.4351 65.0095 65.4988 64.9927C65.3563 65.1452 65.2655 65.3487 65.2655 65.5751C65.2655 65.9631 65.527 66.2771 65.8779 66.3808C65.8775 66.3922 65.8715 66.4014 65.8715 66.4128C65.8715 66.9205 66.2788 67.3329 66.7816 67.3329C67.2839 67.3329 67.6912 66.9205 67.6912 66.4128C67.6912 65.9623 67.3649 65.6048 66.9421 65.5255ZM64.8378 66.3549C64.8774 66.2504 64.9045 66.1399 64.9045 66.021C64.9045 65.5331 64.5333 65.1452 64.0634 65.0979C64.1791 64.9485 64.2594 64.7686 64.2594 64.5635C64.2594 64.1428 63.962 63.8081 63.5724 63.7205C63.7506 63.5703 63.8708 63.3531 63.8708 63.1C63.8708 62.7859 63.6899 62.5214 63.4329 62.385C63.8301 62.3675 64.1486 62.0412 64.1486 61.6357C64.1486 61.2187 63.8143 60.881 63.402 60.881C62.9898 60.881 62.6555 61.2187 62.6555 61.6357C62.6555 61.9185 62.8161 62.1563 63.044 62.2859C62.6062 62.2958 62.2527 62.6541 62.2527 63.1C62.2527 63.4819 62.5168 63.7876 62.8662 63.8783C62.6604 64.0391 62.5191 64.28 62.5191 64.5636C62.5191 65.008 62.85 65.3601 63.2732 65.4203C63.136 65.5842 63.0437 65.7893 63.0437 66.021C63.0437 66.4723 63.3644 66.8313 63.783 66.9228C63.7141 67.0638 63.6666 67.217 63.6666 67.3855C63.6666 67.9686 64.1342 68.4412 64.7108 68.4412C65.2874 68.4412 65.755 67.9686 65.755 67.3855C65.755 66.8481 65.3518 66.4212 64.8378 66.3549ZM54.1532 59.8695C54.1532 60.2438 53.9407 60.5586 53.6388 60.7301C53.6939 60.7202 53.744 60.6966 53.8016 60.6966C54.3492 60.6966 54.7931 61.1455 54.7931 61.6989C54.7931 61.859 54.7483 62.0046 54.6827 62.1388C54.8557 61.9878 55.0739 61.8872 55.3203 61.8872C55.8577 61.8872 56.2911 62.3232 56.3035 62.8637C56.4101 62.4498 56.7583 62.1426 57.1955 62.1228C57.1043 61.984 57.038 61.8262 57.038 61.6463C57.038 61.16 57.4276 60.7659 57.9085 60.7659C58.3889 60.7659 58.7786 61.16 58.7786 61.6463C58.7786 62.0991 58.436 62.4589 58.0012 62.5077C58.1312 62.6762 58.2212 62.8789 58.2212 63.1091C58.2212 63.3691 58.1172 63.6016 57.9559 63.7784C58.1346 63.953 58.2401 64.1916 58.2687 64.4545C58.2977 64.2015 58.4066 63.9766 58.5837 63.8135C58.3836 63.6404 58.2502 63.3927 58.2502 63.1061C58.2502 62.6144 58.6267 62.2234 59.1019 62.1799C58.9809 62.0328 58.8988 61.8499 58.8988 61.6433C58.8988 61.333 59.0706 61.0739 59.3148 60.9245C58.9546 60.8658 58.6746 60.5639 58.6746 60.182C58.6746 59.759 59.0137 59.4159 59.4324 59.4159C59.8511 59.4159 60.1902 59.759 60.1902 60.182C60.1902 60.4503 60.0463 60.6744 59.8405 60.8116C60.2562 60.8635 60.5829 61.208 60.5829 61.6433C60.5829 62.0709 60.2663 62.4094 59.8609 62.4703C60.0146 62.638 60.1133 62.8591 60.1133 63.1061C60.1133 63.3569 60.0127 63.5817 59.8545 63.751C60.1084 63.9385 60.2841 64.2266 60.2841 64.5689C60.2841 64.7556 60.2215 64.9218 60.1356 65.0727C60.471 65.2648 60.7072 65.6147 60.7072 66.0317C60.7072 66.1514 60.6745 66.2611 60.6398 66.3694C60.7544 66.4243 60.8587 66.4951 60.9503 66.5813C60.8459 66.4197 60.7698 66.2375 60.7698 66.0294C60.7698 65.8099 60.8531 65.617 60.9695 65.4493C60.6232 65.3075 60.3779 64.9676 60.3779 64.5658C60.3779 64.2815 60.5068 64.033 60.702 63.8585C60.4386 63.7068 60.2528 63.4316 60.2528 63.103C60.2528 62.6426 60.6059 62.2768 61.0509 62.2371C60.8847 62.09 60.7743 61.8804 60.7743 61.6395C60.7743 61.3102 60.971 61.0289 61.2514 60.9047C61.21 60.9123 61.1723 60.9298 61.1289 60.9298C60.7186 60.9298 60.3862 60.5929 60.3862 60.1782C60.3862 59.7635 60.7186 59.4266 61.1289 59.4266C61.5393 59.4266 61.8717 59.7635 61.8717 60.1782C61.8717 60.4854 61.6878 60.7492 61.4263 60.865C61.4741 60.8559 61.5182 60.8361 61.5687 60.8361C62.0074 60.8361 62.3631 61.1959 62.3631 61.6395C62.3631 62.0511 62.0522 62.3789 61.6573 62.4246C61.857 62.5862 61.9934 62.8241 61.9934 63.1031C61.9934 63.3439 61.8969 63.5619 61.7417 63.7205C62.0499 63.8783 62.267 64.1931 62.267 64.5658C62.267 64.7534 62.1999 64.918 62.1076 65.0659C62.5104 65.2031 62.8047 65.5766 62.8047 66.0294C62.8047 66.1559 62.775 66.2741 62.7335 66.3862C63.2159 66.5287 63.5754 66.9609 63.5754 67.4945C63.5754 68.1424 63.0561 68.6676 62.4155 68.6676C61.8623 68.6676 61.4214 68.2674 61.3053 67.743C61.1892 68.3139 60.7129 68.7515 60.1137 68.7515C59.6265 68.7515 59.2146 68.4603 59.0115 68.0471C58.8034 68.5106 58.3475 68.8361 57.8116 68.8361C57.3213 68.8361 56.9106 68.5533 56.6822 68.1523C56.4508 68.5754 56.0216 68.8734 55.5099 68.8734C55.0143 68.8734 54.599 68.5914 54.362 68.1897C54.1246 68.5945 53.7067 68.8788 53.2077 68.8788C52.6248 68.8788 52.136 68.5045 51.9415 67.9839C51.6943 68.2324 51.3544 68.3864 50.9783 68.3864C50.2235 68.3864 49.6112 67.7674 49.6112 67.0036C49.6112 66.9441 49.6375 66.8931 49.6447 66.8359C49.5049 66.8854 49.3598 66.9258 49.2031 66.9258C48.4539 66.9258 47.8464 66.3115 47.8464 65.5538C47.8464 65.2565 47.9599 64.9965 48.1185 64.7717C47.4477 64.7092 46.9164 64.1565 46.9164 63.4613C46.9164 62.9323 47.2273 62.4833 47.6697 62.2676C47.2793 62.0458 47.0042 61.6387 47.0042 61.1539C47.0042 60.4549 47.5544 59.8931 48.2398 59.8672C48.0198 59.6408 47.8822 59.3306 47.8822 58.9876C47.8822 58.2924 48.4392 57.729 49.1266 57.729C49.1473 57.729 49.1646 57.7397 49.1853 57.7412C48.9457 57.5149 48.7912 57.1985 48.7912 56.8402C48.7912 56.155 49.3402 55.6 50.0178 55.6C50.0679 55.6 50.1101 55.6229 50.1583 55.629C49.8855 55.4049 49.7001 55.0763 49.7001 54.6929C49.7001 54.0176 50.2412 53.4702 50.9086 53.4702C50.9878 53.4702 51.0567 53.5007 51.1313 53.516C50.8235 53.298 50.609 52.9549 50.609 52.5456C50.609 51.8801 51.1423 51.3412 51.7999 51.3412C51.9084 51.3412 52.006 51.3763 52.1062 51.4037C51.7611 51.1972 51.518 50.8336 51.518 50.3983C51.518 49.7427 52.0433 49.2114 52.6911 49.2114C52.8286 49.2114 52.956 49.2465 53.0785 49.2907C52.696 49.1001 52.4269 48.7106 52.4269 48.251C52.4269 47.6053 52.9443 47.0824 53.5823 47.0824C53.9226 47.0824 54.2211 47.2372 54.4325 47.4742C54.5647 47.4155 54.7095 47.3797 54.8636 47.3797C55.208 47.3797 55.5004 47.5543 55.6968 47.8096C55.8317 47.7395 55.9787 47.6899 56.1411 47.6899C56.493 47.6899 56.7874 47.8866 56.9618 48.1671C57.0945 48.0894 57.2399 48.033 57.4046 48.033C57.8229 48.033 58.1587 48.3272 58.2597 48.7183C58.3497 48.6839 58.4451 48.6596 58.5472 48.6596C58.9987 48.6596 59.3646 49.0293 59.3646 49.4859C59.3646 49.7283 59.2575 49.9409 59.0932 50.0926C59.1792 50.056 59.2734 50.0355 59.3725 50.0355C59.7712 50.0355 60.0941 50.3625 60.0941 50.7657C60.0941 50.9639 60.0146 51.143 59.8876 51.2741C60.0014 51.1705 60.1484 51.1034 60.3135 51.1034C60.6688 51.1034 60.9571 51.3946 60.9571 51.7544C60.9571 52.1134 60.6688 52.4046 60.3135 52.4046C59.9585 52.4046 59.6702 52.1134 59.6702 51.7544C59.6702 51.5775 59.741 51.4182 59.8541 51.3008C59.726 51.419 59.5594 51.4952 59.3725 51.4952C58.9742 51.4952 58.6512 51.1682 58.6512 50.7657C58.6512 50.5637 58.733 50.3808 58.8641 50.2481C58.7669 50.2901 58.6599 50.3129 58.5472 50.3129C58.193 50.3129 57.8987 50.082 57.7852 49.7626C57.6688 49.8182 57.5422 49.8548 57.4046 49.8548C57.1118 49.8548 56.8642 49.7046 56.6995 49.4859C56.539 49.601 56.3532 49.6833 56.1411 49.6833C55.8573 49.6833 55.606 49.5583 55.4258 49.3639C55.26 49.4706 55.0746 49.5484 54.8636 49.5484C54.5825 49.5484 54.3311 49.4333 54.14 49.2541C53.972 49.3502 53.7888 49.4195 53.5823 49.4195C53.4474 49.4195 53.3223 49.3845 53.2021 49.3418C53.3125 49.3967 53.4165 49.4622 53.5039 49.5476C53.6584 49.463 53.8265 49.402 54.0146 49.402C54.3345 49.402 54.6156 49.5476 54.8146 49.771C54.9683 49.6726 55.1402 49.601 55.3354 49.601C55.6629 49.601 55.9395 49.7709 56.1215 50.0164C56.2707 49.9074 56.4448 49.8296 56.6434 49.8296C57.0331 49.8296 57.3594 50.0797 57.4894 50.428C57.5927 50.3808 57.7053 50.351 57.8263 50.351C58.2815 50.351 58.6501 50.7245 58.6501 51.1842C58.6501 51.3542 58.5875 51.5036 58.5012 51.6355C58.5657 51.6164 58.6297 51.5943 58.7006 51.5943C59.1046 51.5943 59.432 51.9259 59.432 52.3345C59.432 52.4526 59.3985 52.5609 59.3499 52.66C59.4482 52.5997 59.5571 52.5555 59.6804 52.5555C60.0402 52.5555 60.3323 52.8505 60.3323 53.2149C60.3323 53.5785 60.0402 53.8735 59.6804 53.8735C59.3205 53.8735 59.0284 53.5785 59.0284 53.2149C59.0284 53.1189 59.0507 53.0289 59.0872 52.9466C58.9734 53.0213 58.846 53.0746 58.7006 53.0746C58.2962 53.0746 57.9687 52.7431 57.9687 52.3345C57.9687 52.1973 58.0155 52.0761 58.0803 51.9655C57.9989 51.9922 57.9164 52.0174 57.8263 52.0174C57.4977 52.0174 57.2188 51.8192 57.0866 51.5379C56.9535 51.6141 56.8077 51.6705 56.6434 51.6705C56.3777 51.6705 56.1441 51.5509 55.9775 51.3672C55.8034 51.5188 55.5833 51.6195 55.3354 51.6195C55.0791 51.6195 54.8504 51.5143 54.6736 51.3534C54.489 51.4998 54.267 51.6012 54.0146 51.6012C53.868 51.6012 53.7293 51.5699 53.6015 51.5166C53.7225 51.5699 53.8303 51.6461 53.9245 51.7369C54.0948 51.6042 54.2983 51.512 54.5301 51.512C54.8323 51.512 55.0957 51.653 55.2804 51.8657C55.4424 51.7216 55.6497 51.6263 55.8826 51.6263C56.2488 51.6263 56.5594 51.8466 56.7071 52.1607C56.8269 52.0928 56.9581 52.0433 57.1054 52.0433C57.564 52.0433 57.936 52.4191 57.936 52.8825C57.936 52.9893 57.9118 53.0899 57.876 53.1836C57.9265 53.1722 57.974 53.1524 58.0283 53.1524C58.4379 53.1524 58.7703 53.4886 58.7703 53.9032C58.7703 53.9749 58.7484 54.0404 58.73 54.106C58.8253 54.0511 58.9297 54.0115 59.0473 54.0115C59.4094 54.0115 59.703 54.3088 59.703 54.6754C59.703 55.0413 59.4094 55.3386 59.0473 55.3386C58.6847 55.3386 58.3912 55.0413 58.3912 54.6754C58.3912 54.6213 58.4097 54.5733 58.4217 54.523C58.3056 54.5984 58.176 54.6533 58.0283 54.6533C57.6187 54.6533 57.2863 54.3171 57.2863 53.9032C57.2863 53.8232 57.3085 53.7492 57.3315 53.6768C57.258 53.6982 57.1857 53.7226 57.1054 53.7226C56.8017 53.7226 56.5473 53.5488 56.4026 53.3026C56.2526 53.41 56.08 53.4863 55.8826 53.4863C55.6406 53.4863 55.4239 53.3872 55.2596 53.2324C55.1711 53.3277 55.0656 53.4039 54.9465 53.4588C55.0049 53.4466 55.0592 53.423 55.1213 53.423C55.4643 53.423 55.7522 53.6204 55.9127 53.9002C56.0491 53.8034 56.2059 53.734 56.3849 53.734C56.8473 53.734 57.2219 54.1136 57.2219 54.5809C57.2219 54.6411 57.2 54.6945 57.1879 54.7509C57.2437 54.7379 57.2965 54.7166 57.3564 54.7166C57.7683 54.7166 58.1025 55.055 58.1025 55.472C58.1025 55.5093 58.0867 55.5413 58.0818 55.5764C58.1805 55.5162 58.2898 55.472 58.4138 55.472C58.7759 55.472 59.0695 55.7693 59.0695 56.1351C59.0695 56.5018 58.7759 56.7983 58.4138 56.7983C58.0517 56.7983 57.7581 56.5018 57.7581 56.1351C57.7581 56.1169 57.7668 56.1024 57.7683 56.0841C57.6484 56.1672 57.512 56.2266 57.3564 56.2266C56.9441 56.2266 56.6099 55.8882 56.6099 55.472C56.6099 55.4384 56.6246 55.4102 56.6287 55.3782C56.5503 55.4026 56.4712 55.4278 56.3849 55.4278C56.1053 55.4278 55.8701 55.2806 55.7183 55.068C55.5555 55.2082 55.3516 55.302 55.1213 55.302C54.8918 55.302 54.6887 55.209 54.5267 55.0695C54.4867 55.1229 54.4498 55.1755 54.4001 55.2204C54.7023 55.2334 54.9563 55.3942 55.1198 55.629C55.2687 55.5017 55.4541 55.4163 55.664 55.4163C56.135 55.4163 56.5168 55.8028 56.5168 56.2792C56.5168 56.293 56.5096 56.3044 56.5089 56.3181C56.5669 56.3036 56.6223 56.2823 56.6845 56.2823C57.0983 56.2823 57.434 56.6223 57.434 57.0407C57.434 57.4592 57.0982 57.7984 56.6845 57.7984C56.2862 57.7984 55.9677 57.4813 55.9444 57.085C55.8554 57.1162 55.7635 57.1421 55.664 57.1421C55.4085 57.1421 55.1865 57.0232 55.0301 56.8433C54.8591 57.0171 54.622 57.1253 54.3601 57.1253C54.1423 57.1253 53.9513 57.0384 53.7915 56.9134C53.7689 56.9508 53.7462 56.9866 53.7195 57.0209C53.9724 57.0545 54.1883 57.1787 54.3409 57.37C54.4984 57.2077 54.7166 57.1055 54.9597 57.1055C55.4394 57.1055 55.8283 57.4989 55.8283 57.9837C55.8283 58.4692 55.4394 58.8626 54.9597 58.8626C54.7128 58.8626 54.4928 58.7566 54.3345 58.5889C54.1574 58.8061 53.8996 58.9533 53.5993 58.9533M53.7327 64.8532C53.9339 64.992 54.102 65.1719 54.1939 65.4028C54.2237 65.3533 54.2531 65.3045 54.2893 65.2603C54.1423 65.0774 54.0455 64.8548 54.036 64.6032C53.9509 64.7061 53.8488 64.7869 53.7327 64.8532ZM56.0623 65.1345C56.1795 65.2458 56.2749 65.3769 56.3419 65.5271C56.3691 65.4684 56.4116 65.4211 56.4474 65.3685C56.3167 65.2428 56.2285 65.0819 56.172 64.9043C56.1448 64.9874 56.1068 65.0613 56.0623 65.1345ZM58.2695 64.6855C58.2533 64.8365 58.2099 64.9752 58.1398 65.1017C58.3471 65.2664 58.4888 65.4928 58.5521 65.7603C58.5849 65.6315 58.6365 65.5164 58.7092 65.4104C58.4681 65.2466 58.3049 64.9912 58.2695 64.6855ZM55.8351 63.7174C55.9941 63.8524 56.109 64.0262 56.1735 64.2305C56.2364 64.0368 56.3457 63.8714 56.4957 63.7418C56.3559 63.5741 56.2643 63.366 56.259 63.1313C56.1946 63.3805 56.045 63.584 55.8351 63.7174ZM53.8016 62.7021C53.4365 62.7021 53.1309 62.4932 52.959 62.196C52.9636 62.2379 52.9831 62.2737 52.9831 62.3172C52.9831 62.5092 52.9236 62.6808 52.8399 62.8393C52.9538 62.7997 53.0713 62.7661 53.1987 62.7661C53.7983 62.7661 54.2799 63.2487 54.301 63.8501C54.3906 63.7426 54.4973 63.6565 54.6201 63.5902C54.4427 63.4095 54.3326 63.161 54.3326 62.8858C54.3326 62.7273 54.3767 62.5832 54.4419 62.4498C54.2682 62.6015 54.0489 62.7021 53.8016 62.7021ZM53.1644 60.8696C52.9157 60.8696 52.6952 60.7682 52.5211 60.615C52.439 60.8772 52.266 61.0876 52.035 61.2248C52.3772 61.2782 52.6606 61.4794 52.8249 61.7729C52.823 61.747 52.8102 61.7249 52.8102 61.699C52.8102 61.3232 53.0235 61.0083 53.3261 60.8368C53.2714 60.846 53.2217 60.8696 53.1644 60.8696ZM54.5301 53.5549C54.3021 53.5549 54.1024 53.4649 53.9335 53.3361C53.8913 53.3772 53.8359 53.4009 53.7877 53.4352C54.0432 53.4519 54.2765 53.5526 54.4468 53.7248C54.529 53.6357 54.6262 53.564 54.7366 53.5129C54.6676 53.5274 54.6036 53.5549 54.5301 53.5549ZM53.5838 51.5097C53.4972 51.4716 53.4256 51.4106 53.3525 51.3519C53.311 51.3809 53.2722 51.4129 53.2273 51.4373C53.3521 51.4441 53.4738 51.4639 53.5838 51.5097ZM54.4736 47.2539C54.6412 47.2539 54.798 47.2128 54.9412 47.1464C55.1345 47.3584 55.4055 47.4956 55.713 47.4956C55.8897 47.4956 56.0488 47.4407 56.195 47.3637C56.3732 47.5916 56.637 47.7471 56.9468 47.7471C57.1231 47.7471 57.2795 47.6869 57.422 47.6038C57.5791 47.8592 57.8463 48.0383 58.1655 48.0383C58.2819 48.0383 58.392 48.0124 58.4937 47.9712C58.5781 48.3333 58.8849 48.6077 59.2681 48.6077C59.6875 48.6077 60.021 48.2815 60.0632 47.8683C60.1612 48.1404 60.4137 48.3371 60.7167 48.3371C61.1041 48.3371 61.4184 48.02 61.4184 47.6274C61.4184 47.2356 61.1041 46.9185 60.7167 46.9185C60.3576 46.9185 60.0723 47.1952 60.0308 47.5474C59.928 47.2143 59.6314 46.9681 59.2681 46.9681C59.1844 46.9681 59.1083 46.9925 59.0326 47.0161C58.9715 46.5786 58.615 46.2363 58.1655 46.2363C58.0355 46.2363 57.9137 46.2675 57.8022 46.3186C57.6405 46.0023 57.3232 45.7789 56.9468 45.7789C56.8175 45.7789 56.6954 45.8071 56.5827 45.8536C56.3939 45.5617 56.0834 45.3574 55.713 45.3574C55.5909 45.3574 55.4786 45.3894 55.3693 45.4275C55.162 45.147 54.8466 44.9534 54.4736 44.9534C53.8454 44.9534 53.3359 45.4679 53.3359 46.1037C53.3359 46.7386 53.8454 47.2539 54.4736 47.2539ZM55.3644 45.0883C55.4989 45.0883 55.6241 45.0548 55.7435 45.0113C55.9338 45.2659 56.2217 45.442 56.562 45.442C56.7037 45.442 56.8386 45.4123 56.9618 45.3604C57.1333 45.6257 57.4152 45.8117 57.7521 45.8117C57.8926 45.8117 58.0241 45.7774 58.1444 45.7225C58.2887 46.016 58.5807 46.2226 58.9267 46.2226C59.0235 46.2226 59.1128 46.1959 59.1999 46.1669C59.2402 46.5785 59.5718 46.9033 59.989 46.9033C60.3447 46.9033 60.6364 46.6662 60.7427 46.3422C60.8512 46.5946 61.0992 46.7722 61.389 46.7722C61.7782 46.7722 62.094 46.4528 62.094 46.0587C62.094 45.6646 61.7782 45.3452 61.389 45.3452C61.0905 45.3452 60.838 45.5342 60.7351 45.7995C60.6195 45.4946 60.3315 45.2758 59.989 45.2758C59.9238 45.2758 59.8654 45.2987 59.8047 45.3132C59.7949 44.8299 59.4075 44.4396 58.9267 44.4396C58.8264 44.4396 58.7341 44.4663 58.6444 44.4975C58.5069 44.1309 58.1624 43.8679 57.7521 43.8679C57.6575 43.8679 57.5716 43.8969 57.4849 43.9228C57.3138 43.5775 56.9697 43.3343 56.562 43.3343C56.4727 43.3343 56.3928 43.364 56.3099 43.3862C56.1143 43.0553 55.7725 42.8236 55.3644 42.8236C54.7464 42.8236 54.2448 43.3305 54.2448 43.9563C54.2448 44.5814 54.7464 45.0883 55.3644 45.0883ZM56.2556 42.9235C56.3563 42.9235 56.4463 42.8907 56.539 42.8655C56.7173 43.1727 57.0334 43.3892 57.4114 43.3892C57.5173 43.3892 57.6134 43.3587 57.7095 43.3282C57.8625 43.6499 58.1813 43.8755 58.5578 43.8755C58.6697 43.8755 58.7733 43.8473 58.8732 43.8115C58.9915 44.1561 59.3065 44.4068 59.6879 44.4068C59.7697 44.4068 59.8432 44.3809 59.9185 44.3596C59.9178 44.371 59.9121 44.3802 59.9121 44.3908C59.9121 44.8368 60.269 45.1981 60.7099 45.1981C61.0155 45.1981 61.2725 45.0182 61.4063 44.7628C61.5126 45.0235 61.7651 45.2072 62.0609 45.2072C62.4524 45.2072 62.7701 44.8863 62.7701 44.4899C62.7701 44.0943 62.4524 43.7726 62.0609 43.7726C61.799 43.7726 61.5796 43.9236 61.4568 44.137C61.3505 43.8176 61.0615 43.5843 60.7099 43.5843C60.65 43.5843 60.5972 43.6057 60.5411 43.6186C60.5448 43.5866 60.5599 43.5584 60.5599 43.5249C60.5599 43.0378 60.1695 42.6429 59.6879 42.6429C59.6073 42.6429 59.5349 42.6689 59.461 42.6894C59.3578 42.2725 59.0021 41.9569 58.5578 41.9569C58.4903 41.9569 58.4308 41.9821 58.3671 41.9958C58.2228 41.5986 57.8538 41.312 57.4114 41.312C57.3545 41.312 57.3051 41.3356 57.2509 41.3448C57.076 40.9629 56.6992 40.6946 56.2556 40.6946C55.6474 40.6946 55.1541 41.1931 55.1541 41.809C55.1541 42.4242 55.6474 42.9235 56.2556 42.9235ZM57.1469 40.7578C57.2132 40.7578 57.2708 40.7312 57.3342 40.7197C57.4894 41.0818 57.8448 41.3364 58.2604 41.3364C58.3407 41.3364 58.4119 41.3082 58.4865 41.2899C58.6113 41.665 58.9508 41.9394 59.3634 41.9394C59.4543 41.9394 59.5368 41.9112 59.6201 41.8868C59.7 42.2854 60.0316 42.5911 60.4487 42.5911C60.5267 42.5911 60.5968 42.566 60.6688 42.5461C60.6594 42.5957 60.6394 42.6414 60.6394 42.6933C60.6394 43.1346 60.9937 43.4936 61.4308 43.4936C61.6976 43.4936 61.9222 43.3511 62.0654 43.146C62.16 43.4327 62.4185 43.6423 62.7331 43.6423C63.1266 43.6423 63.4458 43.3191 63.4458 42.9212C63.4458 42.5233 63.1266 42.2001 62.7331 42.2001C62.5048 42.2001 62.3107 42.3159 62.1803 42.4844C62.088 42.1459 61.7948 41.8921 61.4308 41.8921C61.3739 41.8921 61.3238 41.9135 61.2699 41.9249C61.2868 41.857 61.3113 41.7915 61.3113 41.7183C61.3113 41.2366 60.9254 40.8463 60.4487 40.8463C60.3881 40.8463 60.3346 40.8691 60.2773 40.8813C60.22 40.4133 59.8413 40.0466 59.3634 40.0466C59.3141 40.0466 59.2719 40.0672 59.2244 40.0749C59.1162 39.6282 58.736 39.2897 58.2604 39.2897C58.225 39.2897 58.1952 39.3065 58.1609 39.3103C58.0147 38.8796 57.6224 38.5656 57.1469 38.5656C56.5484 38.5656 56.0631 39.0557 56.0631 39.6617C56.0631 40.2669 56.5484 40.7578 57.1469 40.7578ZM58.0381 38.5922C58.0852 38.5922 58.1255 38.5709 58.1707 38.5648C58.2959 38.9772 58.661 39.2829 59.1098 39.2829C59.1705 39.2829 59.2229 39.2585 59.2809 39.2478C59.3657 39.6754 59.7214 40.004 60.1688 40.004C60.2392 40.004 60.3014 39.9788 60.367 39.9636C60.3949 40.4148 60.757 40.7746 61.21 40.7746C61.2842 40.7746 61.3505 40.7502 61.4191 40.7319C61.3905 40.8143 61.3671 40.9004 61.3671 40.9926C61.3671 41.4309 61.7187 41.7869 62.1521 41.7869C62.4599 41.7869 62.7203 41.6032 62.8488 41.3417C62.8447 41.3722 62.8308 41.3997 62.8308 41.4317C62.8308 41.8319 63.1515 42.1559 63.5471 42.1559C63.9428 42.1559 64.2635 41.8319 64.2635 41.4317C64.2635 41.0315 63.9428 40.7068 63.5471 40.7068C63.2675 40.7068 63.0316 40.8737 62.9137 41.11C62.9197 41.0696 62.937 41.0338 62.937 40.9926C62.937 40.5543 62.5858 40.1991 62.1521 40.1991C62.0982 40.1991 62.0507 40.2197 61.9994 40.2304C62.0386 40.1313 62.0631 40.0245 62.0631 39.9117C62.0631 39.4353 61.681 39.0488 61.21 39.0488C61.1681 39.0488 61.132 39.0671 61.0916 39.0732C61.0916 39.0717 61.0924 39.0709 61.0924 39.0694C61.0924 38.5534 60.679 38.1356 60.1688 38.1356C60.1379 38.1356 60.1119 38.1501 60.0821 38.1532C60.0199 37.6569 59.6174 37.2674 59.1098 37.2674C59.091 37.2674 59.0755 37.2773 59.0571 37.2781C58.9478 36.8001 58.5438 36.4358 58.0381 36.4358C57.4491 36.4358 56.972 36.9191 56.972 37.5144C56.972 38.1097 57.4491 38.5922 58.0381 38.5922ZM58.9451 36.4342C58.987 36.4342 59.0228 36.4152 59.0631 36.4099C59.1351 36.8893 59.5259 37.2628 60.0199 37.2628C60.0828 37.2628 60.1378 37.2377 60.1978 37.2262C60.2038 37.7347 60.6108 38.1455 61.1146 38.1455C61.2167 38.1455 61.3106 38.1181 61.4025 38.0869C61.392 38.141 61.3701 38.1913 61.3701 38.2492C61.3701 38.7272 61.7537 39.1152 62.2263 39.1152C62.3676 39.1152 62.4954 39.0717 62.6129 39.0107C62.5029 39.1487 62.4275 39.3172 62.4275 39.5077C62.4275 39.9521 62.7833 40.3119 63.2219 40.3119C63.6609 40.3119 64.0167 39.9521 64.0167 39.5077C64.0167 39.0641 63.6609 38.7043 63.2219 38.7043C63.0976 38.7043 62.9838 38.7386 62.879 38.7904C63.0003 38.641 63.0825 38.4573 63.0825 38.2492C63.0825 37.7713 62.6992 37.3833 62.2263 37.3833C62.1426 37.3833 62.0673 37.4084 61.9912 37.4313C62.0085 37.3604 62.0341 37.2918 62.0341 37.2156C62.0341 36.7018 61.6222 36.2856 61.1146 36.2856C61.0728 36.2856 61.037 36.3039 60.9967 36.31C60.9971 36.294 61.0053 36.2818 61.0053 36.2658C61.0053 35.7154 60.5641 35.2695 60.0199 35.2695C60.0037 35.2695 59.9905 35.2779 59.9743 35.2786C59.9246 34.7405 59.4904 34.3136 58.9451 34.3136C58.3663 34.3136 57.8968 34.7885 57.8968 35.3739C57.8968 35.9594 58.3663 36.4342 58.9451 36.4342ZM60.2539 34.5088C60.324 34.5088 60.3858 34.4821 60.4521 34.4684C60.4484 34.5027 60.4322 34.5324 60.4322 34.5674C60.4322 35.114 60.8704 35.5576 61.4116 35.5576C61.5182 35.5576 61.6158 35.5279 61.7123 35.4967C61.6863 35.5828 61.6588 35.6689 61.6588 35.7635C61.6588 36.281 62.0733 36.7003 62.5847 36.7003C62.7923 36.7003 62.9747 36.618 63.1292 36.5013C62.9913 36.6576 62.9012 36.8588 62.9012 37.0852C62.9012 37.5754 63.2939 37.9725 63.7785 37.9725C64.2631 37.9725 64.6558 37.5754 64.6558 37.0852C64.6558 36.5951 64.2631 36.1979 63.7785 36.1979C63.5841 36.1979 63.4137 36.2742 63.2683 36.3824C63.4149 36.217 63.5106 36.0036 63.5106 35.7634C63.5106 35.2466 63.0961 34.8274 62.5847 34.8274C62.4939 34.8274 62.4117 34.8548 62.3288 34.8792C62.362 34.7801 62.391 34.678 62.391 34.5674C62.391 34.0201 61.9523 33.5765 61.4116 33.5765C61.3566 33.5765 61.3087 33.5994 61.2559 33.6085C61.2627 33.5597 61.2842 33.517 61.2842 33.4667C61.2842 32.8912 60.8229 32.4247 60.2539 32.4247C59.6849 32.4247 59.2233 32.8912 59.2233 33.4667C59.2233 34.0422 59.6849 34.5088 60.2539 34.5088ZM62.0401 33.0338C62.1558 33.0338 62.2629 33.0033 62.3665 32.9674C62.3092 33.0925 62.2723 33.2297 62.2723 33.3768C62.2723 33.921 62.7083 34.3616 63.246 34.3616C63.7838 34.3616 64.2194 33.921 64.2194 33.3768C64.2194 32.8333 63.7838 32.3919 63.246 32.3919C63.1383 32.3919 63.0391 32.4217 62.9423 32.4537C63.0082 32.318 63.0527 32.1709 63.0527 32.0093C63.0527 31.4437 62.5994 30.9855 62.0401 30.9855C61.4809 30.9855 61.0276 31.4437 61.0276 32.0093C61.0276 32.5749 61.4809 33.0338 62.0401 33.0338ZM64.1569 32.1221C64.7063 32.1221 65.1517 31.6716 65.1517 31.1159C65.1517 30.5602 64.7063 30.1097 64.1569 30.1097C63.6074 30.1097 63.162 30.5602 63.162 31.1159C63.162 31.6716 63.6074 32.1221 64.1569 32.1221ZM66.4383 31.8469C66.9779 31.8469 67.4154 31.4048 67.4154 30.859C67.4154 30.3132 66.9779 29.8711 66.4383 29.8711C65.8986 29.8711 65.4615 30.3132 65.4615 30.859C65.4615 31.4048 65.8986 31.8469 66.4383 31.8469ZM68.6985 32.2318C69.228 32.2318 69.6576 31.7974 69.6576 31.2615C69.6576 30.7256 69.228 30.2911 68.6985 30.2911C68.1687 30.2911 67.7391 30.7256 67.7391 31.2615C67.7391 31.7974 68.1687 32.2318 68.6985 32.2318ZM71.5686 34.1299C71.4785 34.1017 71.3873 34.0727 71.2875 34.0727C70.7629 34.0727 70.3374 34.5034 70.3374 35.034C70.3374 35.1666 70.3642 35.2931 70.4124 35.4082C70.345 35.393 70.2817 35.3671 70.2097 35.3671C69.684 35.3671 69.2578 35.7978 69.2578 36.3298C69.2578 36.5311 69.3328 36.7071 69.4372 36.8611C69.3761 36.8489 69.3192 36.8238 69.2544 36.8238C68.7351 36.8238 68.3142 37.2499 68.3142 37.7751C68.3142 38.0129 68.4091 38.2241 68.552 38.391C68.4713 38.3666 68.3907 38.3399 68.3021 38.3399C67.8047 38.3399 67.4015 38.7477 67.4015 39.2508C67.4015 39.7539 67.8047 40.1618 68.3021 40.1618C68.7995 40.1618 69.2024 39.7539 69.2024 39.2508C69.2024 39.0267 69.1135 38.8285 68.9808 38.67C69.069 38.6974 69.1572 38.7256 69.2544 38.7256C69.7733 38.7256 70.1942 38.2995 70.1942 37.7751C70.1942 37.5777 70.1207 37.4046 70.0194 37.2529C70.0827 37.2667 70.1422 37.2918 70.2097 37.2918C70.735 37.2918 71.1612 36.8611 71.1612 36.3298C71.1612 36.1964 71.1341 36.0691 71.0851 35.9533C71.1525 35.9685 71.2158 35.9944 71.2874 35.9944C71.812 35.9944 72.2375 35.5645 72.2375 35.034C72.2375 34.9318 72.2092 34.8388 72.1802 34.7466C72.2638 34.7717 72.3471 34.7992 72.4391 34.7992C72.9493 34.7992 73.3627 34.3815 73.3627 33.8654C73.3627 33.3494 72.9493 32.9316 72.4391 32.9316C71.9292 32.9316 71.5158 33.3494 71.5158 33.8654C71.5158 33.9592 71.5433 34.0445 71.5686 34.1299ZM80.9455 55.1526C80.9455 55.5627 81.2741 55.895 81.6792 55.895C82.0843 55.895 82.4129 55.5627 82.4129 55.1526C82.4129 54.7432 82.0843 54.4109 81.6792 54.4109C81.2741 54.4109 80.9455 54.7432 80.9455 55.1526ZM81.8688 57.2976C81.8688 57.6917 82.1849 58.0118 82.575 58.0118C82.965 58.0118 83.2812 57.6917 83.2812 57.2976C83.2812 56.9027 82.965 56.5834 82.575 56.5834C82.1849 56.5834 81.8688 56.9027 81.8688 57.2976ZM82.792 59.4419C82.792 59.8215 83.0958 60.1287 83.4707 60.1287C83.8453 60.1287 84.149 59.8215 84.149 59.4419C84.149 59.063 83.8453 58.7558 83.4707 58.7558C83.0958 58.7558 82.792 59.063 82.792 59.4419ZM83.6704 61.6052C83.6704 61.9688 83.9621 62.2638 84.3212 62.2638C84.6807 62.2638 84.9724 61.9688 84.9724 61.6052C84.9724 61.2416 84.6807 60.9474 84.3212 60.9474C83.9621 60.9474 83.6704 61.2416 83.6704 61.6052ZM84.3928 63.2829C84.0488 63.2829 83.7695 63.565 83.7695 63.9133C83.7695 64.2617 84.0488 64.5437 84.3928 64.5437C84.7369 64.5437 85.0161 64.2617 85.0161 63.9133C85.0161 63.565 84.7369 63.2829 84.3928 63.2829ZM83.4436 65.4112C83.1146 65.4112 82.8478 65.6811 82.8478 66.0134C82.8478 66.3465 83.1146 66.6164 83.4436 66.6164C83.7726 66.6164 84.039 66.3465 84.039 66.0134C84.039 65.6811 83.7726 65.4112 83.4436 65.4112ZM81.8356 67.0524C81.5221 67.0524 81.2677 67.31 81.2677 67.6271C81.2677 67.9442 81.5221 68.2011 81.8356 68.2011C82.1495 68.2011 82.4035 67.9442 82.4035 67.6271C82.4035 67.31 82.1495 67.0524 81.8356 67.0524ZM80.0219 67.5311C79.6557 67.5311 79.3594 67.8316 79.3594 68.202C79.3594 68.5706 79.6557 68.8712 80.0219 68.8712C80.3881 68.8712 80.6843 68.5706 80.6843 68.202C80.6843 67.8316 80.3881 67.5311 80.0219 67.5311ZM64.3856 32.8043C64.3856 33.3448 64.819 33.7823 65.3533 33.7823C65.8877 33.7823 66.3211 33.3448 66.3211 32.8043C66.3211 32.2631 65.8877 31.8256 65.3533 31.8256C64.819 31.8256 64.3856 32.2631 64.3856 32.8043ZM66.5694 32.9057C66.5694 33.4431 67.0001 33.8784 67.5311 33.8784C68.0624 33.8784 68.4928 33.4431 68.4928 32.9057C68.4928 32.3683 68.0624 31.933 67.5311 31.933C67.0001 31.933 66.5694 32.3683 66.5694 32.9057ZM69.5736 32.7067C69.0456 32.7067 68.6175 33.1397 68.6175 33.6733C68.6175 33.918 68.7151 34.136 68.8636 34.306C68.7494 34.2572 68.6243 34.229 68.4924 34.229C67.9705 34.229 67.5473 34.6566 67.5473 35.1849C67.5473 35.7124 67.9705 36.1408 68.4924 36.1408C69.0143 36.1408 69.4375 35.7124 69.4375 35.1849C69.4375 34.9432 69.3411 34.7283 69.1949 34.5606C69.3113 34.6109 69.4387 34.6406 69.5736 34.6406C70.1015 34.6406 70.5296 34.2077 70.5296 33.6733C70.5296 33.4744 70.4558 33.2998 70.354 33.1466C70.4761 33.2053 70.6095 33.2441 70.7538 33.2441C71.2739 33.2441 71.6952 32.8173 71.6952 32.2921C71.6952 31.7661 71.2739 31.34 70.7538 31.34C70.2338 31.34 69.8125 31.7661 69.8125 32.2921C69.8125 32.4872 69.8845 32.658 69.984 32.8089C69.8585 32.7479 69.7224 32.7067 69.5736 32.7067ZM80.9881 56.485C80.5849 56.485 80.2578 56.8158 80.2578 57.2237C80.2578 57.6315 80.5849 57.9623 80.9881 57.9623C81.3917 57.9623 81.7188 57.6315 81.7188 57.2237C81.7188 56.8158 81.3917 56.485 80.9881 56.485ZM82.5346 59.2612C82.5346 58.8709 82.2219 58.5546 81.8356 58.5546C81.4493 58.5546 81.1366 58.8709 81.1366 59.2612C81.1366 59.6523 81.4493 59.9686 81.8356 59.9686C82.2219 59.9686 82.5346 59.6523 82.5346 59.2612ZM83.3509 61.2995C83.3509 60.926 83.0517 60.6234 82.6827 60.6234C82.3142 60.6234 82.015 60.926 82.015 61.2995C82.015 61.6723 82.3142 61.9749 82.6827 61.9749C83.0517 61.9749 83.3509 61.6723 83.3509 61.2995ZM83.2118 64.078C83.5634 64.078 83.8483 63.7899 83.8483 63.4346C83.8483 63.0787 83.5634 62.7905 83.2118 62.7905C82.8602 62.7905 82.5753 63.0787 82.5753 63.4346C82.5753 63.7899 82.8602 64.078 83.2118 64.078ZM65.3823 34.8861C65.3823 34.3654 64.9648 33.9431 64.45 33.9431C63.9349 33.9431 63.5177 34.3654 63.5177 34.8861C63.5177 35.4067 63.9349 35.829 64.45 35.829C64.9648 35.829 65.3823 35.4067 65.3823 34.8861ZM66.4967 33.7358C65.9781 33.7358 65.558 34.1612 65.558 34.6856C65.558 35.2093 65.9781 35.6346 66.4967 35.6346C67.0152 35.6346 67.4354 35.2093 67.4354 34.6856C67.4354 34.1612 67.0152 33.7358 66.4967 33.7358ZM79.5225 59.1674C79.5225 59.5684 79.8436 59.8931 80.2397 59.8931C80.6357 59.8931 80.9568 59.5684 80.9568 59.1674C80.9568 58.7673 80.6357 58.4425 80.2397 58.4425C79.8436 58.4425 79.5225 58.7673 79.5225 59.1674ZM80.3542 61.0945C80.3542 61.4756 80.6598 61.7843 81.0371 61.7843C81.4139 61.7843 81.7195 61.4756 81.7195 61.0945C81.7195 60.7126 81.4139 60.4038 81.0371 60.4038C80.6599 60.4038 80.3542 60.7126 80.3542 61.0945ZM82.4197 63.0451C82.4197 62.683 82.1295 62.3896 81.7715 62.3896C81.4135 62.3896 81.1234 62.683 81.1234 63.0451C81.1234 63.4072 81.4135 63.7007 81.7715 63.7007C82.1295 63.7007 82.4197 63.4072 82.4197 63.0451ZM82.385 64.5468C82.0462 64.5468 81.7715 64.8243 81.7715 65.1673C81.7715 65.5095 82.0463 65.7878 82.385 65.7878C82.7242 65.7878 82.9989 65.5095 82.9989 65.1673C82.9989 64.8243 82.7242 64.5468 82.385 64.5468ZM66.7371 63.1945C67.1011 63.1945 67.3973 62.8957 67.3973 62.5268C67.3973 62.1578 67.1011 61.859 66.7371 61.859C66.3723 61.859 66.0769 62.1578 66.0769 62.5268C66.0769 62.8957 66.3723 63.1945 66.7371 63.1945ZM65.0745 63.3752C65.4875 63.3752 65.8221 63.0367 65.8221 62.619C65.8221 62.2013 65.4875 61.8628 65.0745 61.8628C64.6618 61.8628 64.3268 62.2013 64.3268 62.619C64.3268 63.0367 64.6618 63.3752 65.0745 63.3752ZM65.6431 37.4968C66.1394 37.4968 66.5415 37.0898 66.5415 36.5875C66.5415 36.0859 66.1394 35.6788 65.6431 35.6788C65.1468 35.6788 64.7444 36.0859 64.7444 36.5875C64.7444 37.0898 65.1468 37.4968 65.6431 37.4968ZM68.4845 36.8283C68.4845 36.3146 68.0726 35.8976 67.5646 35.8976C67.0567 35.8976 66.6448 36.3146 66.6448 36.8283C66.6448 37.3421 67.0567 37.7583 67.5646 37.7583C68.0726 37.7583 68.4845 37.3421 68.4845 36.8283ZM78.7044 58.4707C78.2986 58.4707 77.9692 58.8031 77.9692 59.2139C77.9692 59.6248 78.2986 59.9572 78.7044 59.9572C79.1103 59.9572 79.4396 59.6248 79.4396 59.2139C79.4396 58.8031 79.1103 58.4707 78.7044 58.4707ZM78.7534 61.0259C78.7534 61.4154 79.0654 61.731 79.4506 61.731C79.8357 61.731 80.1477 61.4154 80.1477 61.0259C80.1477 60.6363 79.8357 60.3208 79.4506 60.3208C79.0654 60.3208 78.7534 60.6363 78.7534 61.0259ZM80.8562 62.8393C80.8562 62.4711 80.5611 62.1723 80.1971 62.1723C79.8331 62.1723 79.538 62.4711 79.538 62.8393C79.538 63.2075 79.8331 63.5063 80.1971 63.5063C80.5611 63.5063 80.8562 63.2075 80.8562 62.8393ZM81.1234 65.3136C81.4667 65.3136 81.7448 65.0324 81.7448 64.6855C81.7448 64.3379 81.4667 64.0567 81.1234 64.0567C80.7804 64.0567 80.502 64.3379 80.502 64.6855C80.502 65.0324 80.7804 65.3136 81.1234 65.3136ZM81.851 66.462C81.851 66.1358 81.5899 65.8712 81.2677 65.8712C80.9455 65.8712 80.6843 66.1358 80.6843 66.462C80.6843 66.7875 80.9455 67.052 81.2677 67.052C81.5899 67.052 81.851 66.7875 81.851 66.462ZM66.3832 61.0983C66.3832 60.708 66.0701 60.3917 65.6842 60.3917C65.2983 60.3917 64.9852 60.708 64.9852 61.0983C64.9852 61.4886 65.2983 61.8049 65.6842 61.8049C66.0701 61.8049 66.3832 61.4886 66.3832 61.0983ZM56.1558 62.0969C56.6385 62.0969 57.03 61.7012 57.03 61.2126C57.03 60.7248 56.6385 60.3284 56.1558 60.3284C55.673 60.3284 55.2815 60.7248 55.2815 61.2126C55.2815 61.7012 55.673 62.0969 56.1558 62.0969ZM55.8973 59.8001C55.8973 59.31 55.5042 58.9121 55.0192 58.9121C54.5342 58.9121 54.1408 59.31 54.1408 59.8001C54.1408 60.291 54.5342 60.6882 55.0192 60.6882C55.5042 60.6882 55.8973 60.291 55.8973 59.8001ZM63.9794 38.638C63.9794 39.1014 64.3509 39.478 64.8095 39.478C65.2678 39.478 65.6393 39.1014 65.6393 38.638C65.6393 38.1745 65.2678 37.7987 64.8095 37.7987C64.3509 37.7987 63.9794 38.1745 63.9794 38.638ZM65.7618 38.5435C65.7618 39.0267 66.1492 39.4185 66.627 39.4185C67.1049 39.4185 67.4923 39.0267 67.4923 38.5435C67.4923 38.0602 67.1049 37.6684 66.627 37.6684C66.1492 37.6684 65.7618 38.0602 65.7618 38.5435ZM77.2133 61.0983C77.2133 61.4954 77.5317 61.8179 77.9247 61.8179C78.3174 61.8179 78.6362 61.4954 78.6362 61.0983C78.6362 60.7004 78.3174 60.3787 77.9247 60.3787C77.5317 60.3787 77.2133 60.7004 77.2133 61.0983ZM79.2938 62.805C79.2938 62.4307 78.9938 62.1274 78.6238 62.1274C78.2537 62.1274 77.9538 62.4307 77.9538 62.805C77.9538 63.1793 78.2537 63.4827 78.6238 63.4827C78.9938 63.4827 79.2938 63.1793 79.2938 62.805ZM79.7358 63.8127C79.3891 63.8127 79.1073 64.0971 79.1073 64.4485C79.1073 64.7991 79.3891 65.0842 79.7358 65.0842C80.0833 65.0842 80.3644 64.7991 80.3644 64.4485C80.3644 64.0971 80.0833 63.8127 79.7358 63.8127ZM79.9308 65.4204C79.6068 65.4204 79.3437 65.6856 79.3437 66.0134C79.3437 66.3412 79.6068 66.608 79.9308 66.608C80.2549 66.608 80.5176 66.3412 80.5176 66.0134C80.5176 65.6856 80.2549 65.4204 79.9308 65.4204ZM68.0696 61.4626C68.0696 61.1364 67.8081 60.8719 67.4855 60.8719C67.1622 60.8719 66.9006 61.1364 66.9006 61.4626C66.9006 61.7889 67.1622 62.0534 67.4855 62.0534C67.8081 62.0534 68.0696 61.7889 68.0696 61.4626ZM66.113 60.0646C66.113 60.4138 66.3926 60.6958 66.7371 60.6958C67.0815 60.6958 67.3611 60.4138 67.3611 60.0646C67.3611 59.7155 67.0815 59.4335 66.7371 59.4335C66.3926 59.4335 66.113 59.7155 66.113 60.0646ZM64.5096 60.8719C64.8759 60.8719 65.1728 60.5708 65.1728 60.2003C65.1728 59.8299 64.8759 59.5295 64.5096 59.5295C64.1429 59.5295 63.846 59.8299 63.846 60.2003C63.846 60.5708 64.1429 60.8719 64.5096 60.8719ZM62.8183 60.8849C63.2068 60.8849 63.5215 60.5662 63.5215 60.1737C63.5215 59.7811 63.2068 59.4625 62.8183 59.4625C62.4302 59.4625 62.1151 59.7811 62.1151 60.1737C62.1151 60.5662 62.4302 60.8849 62.8183 60.8849ZM57.7743 60.7126C58.1911 60.7126 58.5291 60.3703 58.5291 59.9488C58.5291 59.5273 58.1911 59.185 57.7743 59.185C57.3571 59.185 57.0191 59.5273 57.0191 59.9488C57.0191 60.3703 57.3571 60.7126 57.7743 60.7126ZM57.417 58.7101C57.417 58.2901 57.0802 57.9494 56.6649 57.9494C56.2496 57.9494 55.9127 58.2901 55.9127 58.7101C55.9127 59.1301 56.2496 59.4708 56.6649 59.4708C57.0802 59.4708 57.417 59.1301 57.417 58.7101ZM60.7559 49.197C60.7559 48.7991 60.4374 48.4774 60.0448 48.4774C59.6517 48.4774 59.3333 48.7991 59.3333 49.197C59.3333 49.5941 59.6517 49.9158 60.0448 49.9158C60.4374 49.9158 60.7559 49.5941 60.7559 49.197ZM64.955 41.293C65.3744 41.293 65.7147 40.9492 65.7147 40.5246C65.7147 40.1008 65.3744 39.7562 64.955 39.7562C64.5356 39.7562 64.1953 40.1008 64.1953 40.5246C64.1953 40.9492 64.5356 41.293 64.955 41.293ZM66.6263 39.6686C66.1797 39.6686 65.818 40.0345 65.818 40.4857C65.818 40.9378 66.1797 41.3036 66.6263 41.3036C67.0728 41.3036 67.4346 40.9378 67.4346 40.4857C67.4346 40.0345 67.0728 39.6686 66.6263 39.6686ZM76.6435 61.0358C76.2452 61.0358 75.9222 61.362 75.9222 61.7653C75.9222 62.1678 76.2452 62.4948 76.6435 62.4948C77.0418 62.4948 77.3647 62.1678 77.3647 61.7653C77.3647 61.362 77.0418 61.0358 76.6435 61.0358ZM77.2871 64.0308C77.6613 64.0308 77.9643 63.7243 77.9643 63.3462C77.9643 62.9674 77.6613 62.661 77.2871 62.661C76.9133 62.661 76.6103 62.9674 76.6103 63.3462C76.6103 63.7243 76.9133 64.0308 77.2871 64.0308ZM78.9577 64.8128C78.9577 64.4591 78.6743 64.1725 78.3246 64.1725C77.9752 64.1725 77.6918 64.4591 77.6918 64.8128C77.6918 65.1665 77.9752 65.4532 78.3246 65.4532C78.6743 65.4532 78.9577 65.1665 78.9577 64.8128ZM78.6234 66.0134C78.2986 66.0134 78.0348 66.2802 78.0348 66.6095C78.0348 66.9388 78.2986 67.2056 78.6234 67.2056C78.949 67.2056 79.2128 66.9388 79.2128 66.6095C79.2128 66.2802 78.949 66.0134 78.6234 66.0134ZM65.7765 58.4227C65.4415 58.4227 65.1698 58.6979 65.1698 59.0364C65.1698 59.3756 65.4415 59.65 65.7765 59.65C66.1115 59.65 66.3832 59.3756 66.3832 59.0364C66.3832 58.6979 66.1115 58.4227 65.7765 58.4227ZM64.2315 59.3649C64.5782 59.3649 64.8593 59.0806 64.8593 58.7299C64.8593 58.3785 64.5782 58.0942 64.2315 58.0942C63.8844 58.0942 63.6033 58.3785 63.6033 58.7299C63.6033 59.0806 63.8844 59.3649 64.2315 59.3649ZM62.6491 59.3679C63.0075 59.3679 63.2984 59.0745 63.2984 58.7116C63.2984 58.3488 63.0075 58.0546 62.6491 58.0546C62.2904 58.0546 61.9998 58.3488 61.9998 58.7116C61.9998 59.0745 62.2904 59.3679 62.6491 59.3679ZM61.0709 59.3794C61.4327 59.3794 61.7262 59.0829 61.7262 58.717C61.7262 58.3511 61.4327 58.0538 61.0709 58.0538C60.7087 58.0538 60.4152 58.3511 60.4152 58.717C60.4152 59.0828 60.7087 59.3794 61.0709 59.3794ZM59.4961 59.3359C59.8582 59.3359 60.1518 59.0394 60.1518 58.6727C60.1518 58.3069 59.8582 58.0103 59.4961 58.0103C59.1339 58.0103 58.8407 58.3069 58.8407 58.6727C58.8407 59.0394 59.1339 59.3359 59.4961 59.3359ZM58.9896 57.6772C58.9896 57.3106 58.696 57.014 58.3339 57.014C57.9718 57.014 57.6782 57.3106 57.6782 57.6772C57.6782 58.0431 57.9718 58.3404 58.3339 58.3404C58.696 58.3404 58.9896 58.0431 58.9896 57.6772ZM60.9469 50.9357C61.2974 50.9357 61.5819 50.6483 61.5819 50.2939C61.5819 49.9387 61.2974 49.6513 60.9469 49.6513C60.5961 49.6513 60.3119 49.9387 60.3119 50.2939C60.3119 50.6483 60.5961 50.9357 60.9469 50.9357ZM60.9537 48.8334C60.9537 49.1832 61.2341 49.4668 61.58 49.4668C61.9259 49.4668 62.2067 49.1832 62.2067 48.8334C62.2067 48.4835 61.9259 48.1999 61.58 48.1999C61.2341 48.1999 60.9537 48.4835 60.9537 48.8334ZM61.5883 47.3728C61.5883 47.722 61.8679 48.0048 62.2135 48.0048C62.5587 48.0048 62.8387 47.722 62.8387 47.3728C62.8387 47.0237 62.5587 46.7402 62.2135 46.7402C61.8679 46.7402 61.5883 47.0237 61.5883 47.3728ZM62.2131 45.9123C62.2131 46.266 62.4969 46.5526 62.8466 46.5526C63.1963 46.5526 63.48 46.266 63.48 45.9123C63.48 45.5579 63.1963 45.2713 62.8466 45.2713C62.4969 45.2713 62.2131 45.5579 62.2131 45.9123ZM62.8383 44.4518C62.8383 44.8101 63.1254 45.1005 63.48 45.1005C63.8343 45.1005 64.1214 44.8101 64.1214 44.4518C64.1214 44.0928 63.8343 43.8024 63.48 43.8024C63.1254 43.8024 62.8383 44.0928 62.8383 44.4518ZM63.5479 43.0348C63.5479 43.3976 63.8388 43.6918 64.1979 43.6918C64.5567 43.6918 64.8476 43.3976 64.8476 43.0348C64.8476 42.6719 64.5567 42.3777 64.1979 42.3777C63.8388 42.3777 63.5479 42.6719 63.5479 43.0348ZM66.2408 42.3083C66.2408 41.9295 65.9374 41.623 65.5628 41.623C65.1883 41.623 64.8849 41.9295 64.8849 42.3083C64.8849 42.6872 65.1883 42.9944 65.5628 42.9944C65.9374 42.9944 66.2408 42.6872 66.2408 42.3083ZM67.7945 42.7154C67.7945 42.3022 67.4632 41.9668 67.0544 41.9668C66.6455 41.9668 66.3143 42.3022 66.3143 42.7154C66.3143 43.1293 66.6455 43.4639 67.0544 43.4639C67.4632 43.4639 67.7945 43.1293 67.7945 42.7154ZM76.6676 65.8183C76.6676 66.1735 76.9525 66.4616 77.3037 66.4616C77.6549 66.4616 77.9398 66.1735 77.9398 65.8183C77.9398 65.4631 77.6549 65.1749 77.3037 65.1749C76.9525 65.1749 76.6676 65.4631 76.6676 65.8183ZM68.5233 61.4245C68.8123 61.4245 69.0467 61.1875 69.0467 60.8948C69.0467 60.6028 68.8123 60.3657 68.5233 60.3657C68.2343 60.3657 67.9999 60.6028 67.9999 60.8948C67.9999 61.1875 68.2343 61.4245 68.5233 61.4245ZM67.903 59.0394C67.6234 59.0394 67.3962 59.2688 67.3962 59.5516C67.3962 59.8352 67.6234 60.0647 67.903 60.0647C68.183 60.0647 68.4099 59.8352 68.4099 59.5516C68.4099 59.2688 68.183 59.0394 67.903 59.0394ZM66.9293 57.9494C66.6587 57.9494 66.4394 58.1712 66.4394 58.4448C66.4394 58.7185 66.6587 58.9403 66.9293 58.9403C67.1998 58.9403 67.4195 58.7185 67.4195 58.4448C67.4195 58.1712 67.1998 57.9494 66.9293 57.9494ZM65.6842 58.143C65.9453 58.143 66.1575 57.9288 66.1575 57.6643C66.1575 57.3998 65.9453 57.1856 65.6842 57.1856C65.4227 57.1856 65.2109 57.3998 65.2109 57.6643C65.2109 57.9288 65.4227 58.143 65.6842 58.143ZM64.2695 57.7542C64.5292 57.7542 64.7394 57.5415 64.7394 57.2786C64.7394 57.0163 64.5292 56.8037 64.2695 56.8037C64.0103 56.8037 63.8 57.0163 63.8 57.2786C63.8 57.5415 64.0102 57.7542 64.2695 57.7542ZM62.3288 57.2481C62.3288 57.511 62.5398 57.7245 62.7998 57.7245C63.0599 57.7245 63.2709 57.511 63.2709 57.2481C63.2709 56.9851 63.0599 56.7716 62.7998 56.7716C62.5398 56.7716 62.3288 56.9851 62.3288 57.2481ZM61.3294 56.7785C61.0686 56.7785 60.8572 56.9927 60.8572 57.2564C60.8572 57.5202 61.0686 57.7344 61.3294 57.7344C61.5902 57.7344 61.8016 57.5202 61.8016 57.2564C61.8016 56.9927 61.5902 56.7785 61.3294 56.7785ZM60.5218 56.7122C60.5218 56.4477 60.3101 56.2327 60.0485 56.2327C59.787 56.2327 59.5748 56.4477 59.5748 56.7122C59.5748 56.9767 59.787 57.1909 60.0485 57.1909C60.3101 57.1909 60.5218 56.9767 60.5218 56.7122ZM59.6408 55.3012C59.6408 55.5665 59.8533 55.7814 60.1156 55.7814C60.3779 55.7814 60.5904 55.5665 60.5904 55.3012C60.5904 55.036 60.3779 54.821 60.1156 54.821C59.8533 54.821 59.6408 55.036 59.6408 55.3012ZM61.1941 53.9436C61.1941 53.6753 60.9789 53.458 60.714 53.458C60.4487 53.458 60.2336 53.6753 60.2336 53.9436C60.2336 54.2119 60.4487 54.4292 60.714 54.4292C60.9789 54.4292 61.1941 54.2119 61.1941 53.9436ZM61.3121 52.0844C61.0385 52.0844 60.8165 52.3085 60.8165 52.586C60.8165 52.8627 61.0385 53.0868 61.3121 53.0868C61.5857 53.0868 61.8076 52.8627 61.8076 52.586C61.8076 52.3085 61.5857 52.0844 61.3121 52.0844ZM62.4211 51.2276C62.4211 50.9426 62.1924 50.7116 61.9105 50.7116C61.6282 50.7116 61.3999 50.9426 61.3999 51.2276C61.3999 51.5135 61.6282 51.7445 61.9105 51.7445C62.1924 51.7445 62.4211 51.5135 62.4211 51.2276ZM62.5089 49.338C62.2184 49.338 61.9828 49.5766 61.9828 49.87C61.9828 50.1643 62.2184 50.4021 62.5089 50.4021C62.7991 50.4021 63.0346 50.1643 63.0346 49.87C63.0346 49.5766 62.7991 49.338 62.5089 49.338ZM63.107 47.9651C62.8081 47.9651 62.5658 48.2098 62.5658 48.5124C62.5658 48.8151 62.8081 49.0597 63.107 49.0597C63.4058 49.0597 63.6481 48.8151 63.6481 48.5124C63.6481 48.2098 63.4058 47.9651 63.107 47.9651ZM64.262 47.1548C64.262 46.8438 64.0125 46.5923 63.7054 46.5923C63.3979 46.5923 63.1488 46.8438 63.1488 47.1548C63.1488 47.4658 63.3979 47.7174 63.7054 47.7174C64.0125 47.7174 64.262 47.4658 64.262 47.1548ZM64.3038 45.2187C63.988 45.2187 63.7321 45.4778 63.7321 45.7972C63.7321 46.1166 63.988 46.375 64.3038 46.375C64.6192 46.375 64.8755 46.1166 64.8755 45.7972C64.8755 45.4778 64.6192 45.2187 64.3038 45.2187ZM65.5726 44.4907C65.5726 44.1629 65.31 43.8969 64.9859 43.8969C64.6618 43.8969 64.3988 44.1629 64.3988 44.4907C64.3988 44.8185 64.6618 45.0845 64.9859 45.0845C65.31 45.0845 65.5726 44.8185 65.5726 44.4907ZM66.9609 44.3878C66.9609 44.0463 66.687 43.7696 66.3493 43.7696C66.0113 43.7696 65.7373 44.0463 65.7373 44.3878C65.7373 44.73 66.0113 45.0068 66.3493 45.0068C66.687 45.0068 66.9609 44.7301 66.9609 44.3878ZM77.4032 67.1957C77.4032 67.6066 77.0738 67.9397 76.6676 67.9397C76.261 67.9397 75.9316 67.6066 75.9316 67.1957C75.9316 67.0928 75.9523 66.9952 75.9893 66.9068C75.8672 66.9792 75.733 67.0326 75.5808 67.0326C75.1274 67.0326 74.76 66.6606 74.76 66.2017C74.76 66.0561 74.8071 65.9265 74.8719 65.8076C74.8535 65.8084 74.838 65.8183 74.8192 65.8183C74.3357 65.8183 73.9442 65.4219 73.9442 64.9333C73.9442 64.7549 74.009 64.5986 74.0983 64.4599C73.6691 64.3783 73.3378 64.0147 73.3378 63.5566C73.3378 63.395 73.3887 63.2509 73.4595 63.1183C73.0439 63.004 72.7322 62.6358 72.7322 62.1792C72.7322 62.0306 72.7699 61.8926 72.828 61.766C72.4289 61.6258 72.1383 61.2538 72.1383 60.8025C72.1383 60.6585 72.1681 60.522 72.2209 60.397C71.838 60.243 71.5655 59.868 71.5655 59.4251C71.5655 59.2864 71.5953 59.156 71.6435 59.0348C71.2618 58.8732 70.9931 58.4928 70.9931 58.0484C70.9931 57.9135 71.024 57.787 71.0689 57.6688C70.6879 57.5004 70.4207 57.1185 70.4207 56.671C70.4207 56.5391 70.4524 56.4164 70.4949 56.2998C70.1151 56.126 69.8479 55.7433 69.8479 55.2944C69.8479 55.1632 69.8803 55.042 69.9214 54.9262C69.5453 54.7463 69.2808 54.3659 69.2808 53.9169C69.2808 53.7767 69.3132 53.6448 69.3599 53.5213C68.9996 53.3414 68.746 52.974 68.746 52.5403C68.746 52.3825 68.7811 52.2338 68.8402 52.0982C68.4935 51.9297 68.2497 51.5783 68.2497 51.1636C68.2497 50.9807 68.3085 50.8175 68.3899 50.6681C68.0394 50.5302 67.7888 50.1894 67.7888 49.7862C67.7888 49.572 67.8717 49.3845 67.9897 49.2252C67.6159 49.1383 67.331 48.8151 67.331 48.4095C67.331 48.1595 67.4414 47.9392 67.611 47.7829C67.2055 47.7768 66.878 47.4437 66.878 47.0321C66.878 46.6167 67.2111 46.2797 67.6223 46.2797C67.8936 46.2797 68.1208 46.4345 68.2509 46.654C68.2916 46.5435 68.3522 46.4459 68.4287 46.3598C68.0899 46.3262 67.813 46.1037 67.7033 45.7904C67.64 46.093 67.3868 46.3247 67.0687 46.3247C66.7028 46.3247 66.4066 46.0251 66.4066 45.6554C66.4066 45.2857 66.7028 44.9854 67.0687 44.9854C67.3374 44.9854 67.5665 45.1493 67.6701 45.3818C67.7026 45.1523 67.8171 44.9572 67.9908 44.8215C67.9641 44.8246 67.9407 44.8375 67.9132 44.8375C67.47 44.8375 67.1109 44.4747 67.1109 44.0265C67.1109 43.5783 67.47 43.2147 67.9132 43.2147C68.0003 43.2147 68.0798 43.239 68.1582 43.265C68.0745 43.1262 68.0134 42.9723 68.0134 42.7977C68.0134 42.5477 68.1137 42.322 68.2746 42.1566C68.209 42.1726 68.1465 42.197 68.076 42.197C67.6027 42.197 67.2191 41.809 67.2191 41.3303C67.2191 40.8516 67.6027 40.4636 68.076 40.4636C68.2689 40.4636 68.4381 40.5398 68.5813 40.6489C68.5813 40.6405 68.5768 40.6336 68.5768 40.6252C68.5768 40.1038 68.9951 39.6808 69.5106 39.6808C69.5468 39.6808 69.5777 39.6975 69.6128 39.7013C69.5543 39.5763 69.5163 39.4407 69.5163 39.2928C69.5163 38.7584 69.9451 38.3247 70.4738 38.3247C70.5059 38.3247 70.5326 38.3399 70.5639 38.343C70.5213 38.2332 70.4934 38.1151 70.4934 37.99C70.4934 37.4549 70.9227 37.0212 71.4517 37.0212C71.5056 37.0212 71.5524 37.0433 71.6044 37.0525C71.59 36.9861 71.5644 36.9236 71.5644 36.8527C71.5644 36.3252 71.9872 35.8976 72.5084 35.8976C72.5868 35.8976 72.6569 35.9243 72.7296 35.9426C72.7266 35.9129 72.7123 35.8869 72.7123 35.8557C72.7123 35.3495 73.1181 34.9394 73.6182 34.9394C74.1183 34.9394 74.5237 35.3495 74.5237 35.8557C74.5237 36.3618 74.1183 36.7719 73.6182 36.7719C73.5511 36.7719 73.4916 36.7475 73.4286 36.7331C73.4339 36.7742 73.4524 36.81 73.4524 36.8527C73.4524 37.3802 73.0299 37.8071 72.5084 37.8071C72.4583 37.8071 72.4153 37.7858 72.3675 37.7781C72.3833 37.8483 72.4097 37.9146 72.4097 37.99C72.4097 38.5252 71.9808 38.9596 71.4517 38.9596C71.4197 38.9596 71.3926 38.9444 71.3609 38.9414C71.4035 39.0504 71.4314 39.1677 71.4314 39.2928C71.4314 39.372 71.4046 39.4422 71.3869 39.5161C71.5365 39.1731 71.8734 38.9322 72.2676 38.9322C72.3286 38.9322 72.3822 38.9566 72.4402 38.9673C72.4376 38.9398 72.424 38.9154 72.424 38.8872C72.424 38.3628 72.8442 37.9382 73.3623 37.9382C73.4562 37.9382 73.5417 37.9664 73.6272 37.9923C73.6318 37.4999 74.0259 37.1012 74.514 37.1012C75.0042 37.1012 75.4018 37.5037 75.4018 38C75.4018 38.4962 75.0042 38.8979 74.514 38.8979C74.4359 38.8979 74.3659 38.872 74.2935 38.8529C74.2939 38.8651 74.3003 38.875 74.3003 38.8872C74.3003 39.4109 73.8805 39.8355 73.3623 39.8355C73.3088 39.8355 73.2625 39.8134 73.2112 39.805C73.215 39.8401 73.2319 39.8713 73.2319 39.9079C73.2319 40.4468 72.8001 40.8836 72.2676 40.8836C72.2333 40.8836 72.2043 40.8676 72.1711 40.8638C72.1896 40.94 72.2171 41.0132 72.2171 41.0948C72.2171 41.4805 71.9929 41.8052 71.6745 41.9676C71.7743 41.9333 71.8772 41.9035 71.9884 41.9035C72.0325 41.9035 72.0701 41.9234 72.1123 41.9287C72.1093 41.8959 72.0935 41.867 72.0935 41.8334C72.0935 41.2914 72.5284 40.8516 73.0646 40.8516C73.1441 40.8516 73.215 40.8791 73.2892 40.8973C73.3039 40.3935 73.7079 39.988 74.2095 39.988C74.3323 39.988 74.4484 40.0146 74.5558 40.0588C74.5999 39.6144 74.9586 39.263 75.4093 39.263C75.8902 39.263 76.2802 39.6571 76.2802 40.1435C76.2802 40.6298 75.8902 41.0246 75.4093 41.0246C75.3091 41.0246 75.2164 40.9987 75.1267 40.9667C75.1033 41.4637 74.7058 41.8609 74.2095 41.8609C74.1473 41.8609 74.093 41.8372 74.0342 41.825C74.0342 41.8281 74.0357 41.8304 74.0357 41.8334C74.0357 42.3762 73.6009 42.816 73.0646 42.816C73.0269 42.816 72.9949 42.7984 72.958 42.7946C72.9625 42.8327 72.9806 42.8671 72.9806 42.9067C72.9806 43.2733 72.7763 43.5805 72.4862 43.7551C72.5676 43.7338 72.6463 43.7048 72.7345 43.7048C72.7982 43.7048 72.8536 43.7299 72.9139 43.7414C72.9241 43.2185 73.3427 42.7969 73.862 42.7969C73.9724 42.7969 74.0749 42.8251 74.1737 42.8602C74.2253 42.4059 74.5935 42.0476 75.057 42.0476C75.2115 42.0476 75.3494 42.0972 75.4768 42.1658C75.5374 41.7496 75.877 41.4248 76.3051 41.4248C76.7761 41.4248 77.1582 41.8113 77.1582 42.2877C77.1582 42.7641 76.7761 43.1506 76.3051 43.1506C76.1732 43.1506 76.0518 43.1148 75.9403 43.0607C75.8894 43.5165 75.5212 43.8755 75.057 43.8755C74.9662 43.8755 74.8836 43.8481 74.8011 43.8237C74.7672 44.323 74.3655 44.7224 73.862 44.7224C73.816 44.7224 73.7768 44.7026 73.7328 44.6957C73.7328 44.7041 73.7373 44.711 73.7373 44.7186C73.7373 45.1097 73.5112 45.439 73.1905 45.6082C73.2836 45.5777 73.3778 45.5487 73.4807 45.5487C73.5764 45.5487 73.6634 45.5777 73.7505 45.6036C73.7934 45.1279 74.1771 44.7499 74.659 44.7499C74.8015 44.7499 74.9326 44.7887 75.0536 44.8467C75.1271 44.4297 75.4711 44.1073 75.9041 44.1073C76.0903 44.1073 76.2538 44.1789 76.3959 44.2788C76.4694 43.8877 76.7935 43.5866 77.2008 43.5866C77.6621 43.5866 78.0363 43.9655 78.0363 44.432C78.0363 44.8985 77.6621 45.2766 77.2008 45.2766C77.035 45.2766 76.8892 45.2148 76.7592 45.131C76.694 45.5571 76.3447 45.8902 75.9041 45.8902C75.7809 45.8902 75.6641 45.8635 75.5578 45.8178C75.4915 46.2691 75.1233 46.6205 74.659 46.6205C74.5822 46.6205 74.514 46.5938 74.4427 46.5763C74.4179 47.0961 74.0011 47.5123 73.4807 47.5123C73.4336 47.5123 73.3932 47.4917 73.348 47.4856C73.3371 47.7402 73.238 47.9697 73.0771 48.145C73.1615 48.1488 73.2399 48.1702 73.3175 48.1938C73.3906 47.7425 73.7603 47.3927 74.2272 47.3927C74.3549 47.3927 74.4763 47.4193 74.5874 47.4658C74.6587 47.0367 75.0114 46.7028 75.4564 46.7028C75.6335 46.7028 75.7892 46.7684 75.9282 46.8575C76.0119 46.4665 76.3398 46.1677 76.7516 46.1677C76.9698 46.1677 77.1635 46.2569 77.315 46.3918C77.3998 46.0267 77.7092 45.7484 78.0966 45.7484C78.5484 45.7484 78.9143 46.1189 78.9143 46.5755C78.9143 47.0329 78.5484 47.4033 78.0966 47.4033C77.8965 47.4033 77.7197 47.3225 77.5773 47.2013C77.4989 47.5985 77.168 47.9049 76.7516 47.9049C76.5919 47.9049 76.4505 47.8485 76.3224 47.7715C76.2452 48.1938 75.8962 48.5193 75.4564 48.5193C75.3456 48.5193 75.2416 48.4926 75.1436 48.4553C75.0864 48.9241 74.7061 49.2922 74.2272 49.2922C74.1511 49.2922 74.0832 49.2656 74.012 49.248C73.9879 49.4874 73.8956 49.7069 73.7354 49.8678C73.8673 49.8685 73.9935 49.8944 74.1081 49.9432C74.2042 49.5415 74.546 49.2366 74.9733 49.2366C75.1376 49.2366 75.2831 49.2922 75.4161 49.37C75.4956 48.966 75.8314 48.6565 76.2535 48.6565C76.4652 48.6565 76.6521 48.7419 76.8033 48.8692C76.8952 48.5033 77.2084 48.2273 77.5988 48.2273C77.8546 48.2273 78.0755 48.3501 78.2292 48.5338C78.3144 48.1793 78.6159 47.9102 78.9923 47.9102C79.4344 47.9102 79.7924 48.2731 79.7924 48.7198C79.7924 49.1672 79.4344 49.5293 78.9923 49.5293C78.7542 49.5293 78.5462 49.4195 78.3996 49.2526C78.3163 49.6307 77.9978 49.9196 77.5988 49.9196C77.4024 49.9196 77.2295 49.8411 77.087 49.726C76.9992 50.1193 76.6683 50.4181 76.2535 50.4181C76.1053 50.4181 75.9727 50.3716 75.8506 50.3053C75.7768 50.7367 75.4214 51.0714 74.9733 51.0714C74.8682 51.0714 74.7706 51.0439 74.6767 51.0104C74.6342 51.2726 74.497 51.4929 74.2931 51.6423C74.3391 51.6355 74.3806 51.6149 74.4284 51.6149C74.598 51.6149 74.7487 51.6728 74.8863 51.7528C74.9824 51.3694 75.3106 51.0798 75.7195 51.0798C75.9203 51.0798 76.0967 51.1598 76.2444 51.2749C76.3315 50.8968 76.6506 50.6094 77.0508 50.6094C77.3011 50.6094 77.5196 50.7245 77.6741 50.8991C77.7683 50.55 78.0709 50.287 78.4463 50.287C78.7455 50.287 78.9957 50.4585 79.1374 50.7017C79.2135 50.3449 79.5124 50.072 79.8877 50.072C80.3203 50.072 80.6708 50.4265 80.6708 50.864C80.6708 51.3008 80.3203 51.6553 79.8877 51.6553C79.6039 51.6553 79.3665 51.4944 79.2294 51.2657C79.1551 51.6438 78.8412 51.9343 78.4463 51.9343C78.2108 51.9343 78.0028 51.8298 77.8539 51.6682C77.7612 52.0379 77.445 52.3169 77.0508 52.3169C76.8639 52.3169 76.7004 52.2437 76.5606 52.1393C76.4784 52.5426 76.1419 52.8513 75.7195 52.8513C75.5766 52.8513 75.4474 52.8086 75.3283 52.7476C75.2409 53.1791 74.881 53.5099 74.4284 53.5099C74.3903 53.5099 74.3579 53.4923 74.321 53.4878C74.3613 53.5869 74.3787 53.6966 74.3851 53.8087C74.5411 53.5526 74.8083 53.3727 75.1278 53.3727C75.3328 53.3727 75.5126 53.4542 75.6629 53.5724C75.7556 53.2027 76.0714 52.9237 76.4656 52.9237C76.7042 52.9237 76.9178 53.0258 77.0712 53.1867C77.162 52.8307 77.4676 52.5624 77.8482 52.5624C78.1456 52.5624 78.3939 52.7308 78.5371 52.9709C78.6189 52.6165 78.9181 52.3466 79.2934 52.3466C79.6507 52.3466 79.9412 52.5906 80.04 52.9199C80.0855 52.538 80.3938 52.2376 80.7835 52.2376C81.204 52.2376 81.5451 52.5829 81.5451 53.0083C81.5451 53.4336 81.204 53.7782 80.7835 53.7782C80.4428 53.7782 80.1654 53.5487 80.0678 53.2362C80.0222 53.6349 79.6997 53.9489 79.2934 53.9489C79.0085 53.9489 78.7704 53.7881 78.6309 53.5602C78.5511 53.9314 78.239 54.2157 77.8482 54.2157C77.6225 54.2157 77.4183 54.1235 77.2706 53.9733C77.1809 54.3476 76.8628 54.6312 76.4656 54.6312C76.2798 54.6312 76.117 54.558 75.9776 54.4551C75.8906 54.8583 75.5525 55.1663 75.1278 55.1663C75.054 55.1663 74.988 55.1411 74.9191 55.1236C74.956 55.2235 74.9827 55.3294 74.9827 55.4422C74.9827 55.7517 74.8222 56.0124 74.5912 56.1801C74.6327 56.174 74.6696 56.1557 74.7126 56.1557C74.8282 56.1557 74.9379 56.1801 75.0385 56.222C75.0144 56.1435 74.9895 56.0635 74.9895 55.9766C74.9895 55.5085 75.3645 55.1297 75.8269 55.1297C76.0703 55.1297 76.2847 55.2379 76.4377 55.4056C76.5221 55.0443 76.8285 54.7691 77.2121 54.7691C77.5027 54.7691 77.7461 54.9323 77.8889 55.1648C77.9605 54.8004 78.2635 54.5199 78.6453 54.5199C79.0108 54.5199 79.3047 54.7775 79.3925 55.1198C79.4268 54.7272 79.7434 54.4155 80.1409 54.4155C80.5615 54.4155 80.9025 54.76 80.9025 55.1854C80.9025 55.6107 80.5615 55.956 80.1409 55.956C79.7886 55.956 79.5052 55.709 79.4182 55.3805C79.3839 55.7875 79.0564 56.11 78.6453 56.11C78.3668 56.11 78.1335 55.9545 77.9941 55.7334C77.924 56.1153 77.609 56.4096 77.2121 56.4096C76.9819 56.4096 76.7761 56.3105 76.6288 56.1542C76.5455 56.5338 76.2267 56.8235 75.8269 56.8235C75.7172 56.8235 75.6136 56.7991 75.5175 56.7602C75.5442 56.8448 75.5699 56.9302 75.5699 57.0232C75.5699 57.5019 75.1859 57.8899 74.7125 57.8899C74.4981 57.8899 74.3078 57.8022 74.1578 57.6711C74.1198 57.7641 74.0602 57.8426 73.9966 57.9181C74.2547 57.9524 74.4695 58.0949 74.6063 58.3046C74.7246 58.0012 75.0136 57.7847 75.3562 57.7847C75.5148 57.7847 75.6543 57.8426 75.7794 57.9227C75.7553 57.8457 75.7315 57.7687 75.7315 57.6833C75.7315 57.2397 76.0873 56.8799 76.5263 56.8799C76.8221 56.8799 77.0697 57.0506 77.2065 57.293C77.2607 56.915 77.5694 56.62 77.9583 56.62C78.3219 56.62 78.6125 56.8784 78.695 57.2206C78.7067 56.8105 79.0349 56.4812 79.4427 56.4812C79.8576 56.4812 80.1941 56.8212 80.1941 57.2412C80.1941 57.6612 79.8576 58.002 79.4427 58.002C79.0907 58.002 78.8092 57.7519 78.727 57.4226C78.7153 57.8442 78.3777 58.1834 77.9583 58.1834C77.673 58.1834 77.4341 58.0195 77.2999 57.787C77.2476 58.1803 76.9284 58.4875 76.5263 58.4875C76.3729 58.4875 76.2376 58.4319 76.1163 58.3557C76.1415 58.4349 76.1656 58.5157 76.1656 58.6034C76.1656 59.0554 75.8031 59.4221 75.3562 59.4221C75.0834 59.4221 74.8542 59.2765 74.7073 59.0676C74.6605 59.2063 74.5878 59.3291 74.4849 59.4274C74.8625 59.4274 75.1666 59.6904 75.2627 60.0418C75.3313 59.6851 75.6271 59.4106 75.9998 59.4106C76.2014 59.4106 76.3819 59.493 76.5184 59.6218C76.495 59.5479 76.4724 59.4732 76.4724 59.3908C76.4724 58.9701 76.8097 58.6293 77.2253 58.6293C77.6413 58.6293 77.9782 58.97 77.9782 59.3908C77.9782 59.8116 77.6414 60.1523 77.2253 60.1523C77.0282 60.1523 76.8519 60.0715 76.7177 59.9458C76.7426 60.022 76.7652 60.0997 76.7652 60.1844C76.7652 60.612 76.4226 60.9581 75.9998 60.9581C75.6535 60.9581 75.3724 60.7218 75.2778 60.4024C75.2315 60.6638 75.0743 60.8818 74.8463 60.9977C74.9213 60.9733 74.9974 60.9497 75.0803 60.9497C75.5092 60.9497 75.857 61.3018 75.857 61.7356C75.857 62.1693 75.5092 62.5207 75.0803 62.5207C74.9183 62.5207 74.7759 62.459 74.6515 62.3728C74.6293 62.4818 74.5942 62.5817 74.5396 62.6747C74.7238 62.7342 74.8757 62.8462 74.9903 62.9987C75.0818 62.6968 75.349 62.4727 75.6776 62.4727C76.0808 62.4727 76.4076 62.8035 76.4076 63.2113C76.4076 63.6191 76.0808 63.9492 75.6776 63.9492C75.4734 63.9492 75.2899 63.8638 75.1576 63.7274C75.1323 63.86 75.0833 63.9797 75.0087 64.0864C75.285 64.1497 75.5171 64.3296 75.6256 64.588C75.6742 64.2541 75.9463 63.9942 76.2892 63.9942C76.6665 63.9942 76.9725 64.3037 76.9725 64.6856C76.9725 65.0667 76.6665 65.3762 76.2892 65.3762C76.0217 65.3762 75.7956 65.2161 75.6833 64.9897C75.6742 65.1323 75.6286 65.2595 75.5604 65.3762C75.5676 65.3754 75.5736 65.3716 75.5808 65.3716C76.0341 65.3716 76.4015 65.7436 76.4015 66.2017C76.4015 66.3283 76.3688 66.4456 76.3186 66.5531C76.4238 66.4944 76.5387 66.4517 76.6676 66.4517C77.0738 66.4517 77.4032 66.7848 77.4032 67.1957ZM70.031 41.3883C70.0981 41.3738 70.1614 41.3471 70.233 41.3471C70.2643 41.3471 70.2907 41.3623 70.3212 41.3654C70.2997 41.2907 70.279 41.216 70.2756 41.1359C70.2097 41.2366 70.129 41.3197 70.031 41.3883ZM73.5605 52.9062C73.5602 52.9062 73.5602 52.9069 73.5598 52.9069H73.5609C73.5605 52.9069 73.5605 52.9062 73.5605 52.9062ZM74.7351 61.0404C74.6545 61.067 74.5723 61.0922 74.483 61.0922C74.3575 61.0922 74.2422 61.0594 74.136 61.0084C74.1175 61.0968 74.0983 61.1821 74.0591 61.2607C74.1721 61.3049 74.272 61.3697 74.3606 61.4505C74.4307 61.2698 74.5656 61.1273 74.7351 61.0404ZM73.9042 59.6683C73.8978 59.6683 73.8921 59.6721 73.8857 59.6721C73.7859 59.6721 73.6939 59.6454 73.6046 59.6149C73.5895 59.6957 73.5816 59.778 73.5492 59.8512C73.6129 59.8779 73.6623 59.9259 73.7184 59.964C73.7606 59.8527 73.8217 59.7506 73.9042 59.6683ZM74.2117 56.3379C74.1631 56.3455 74.1194 56.3669 74.0685 56.3669C73.9008 56.3669 73.7523 56.3089 73.6171 56.2289C73.5903 56.2929 73.5421 56.3425 73.5036 56.3997C73.6751 56.4408 73.8345 56.5132 73.9551 56.636C74.0161 56.5148 74.1051 56.418 74.2117 56.3379ZM72.7345 45.7324C72.7051 45.7324 72.6802 45.718 72.6512 45.7157C72.6516 45.7225 72.6554 45.7286 72.6554 45.7355C72.6554 45.9992 72.5502 46.2333 72.3897 46.4162C72.4379 46.4192 72.4813 46.4345 72.5272 46.4444C72.5578 46.1044 72.753 45.8216 73.0371 45.6707C72.9399 45.7019 72.8419 45.7324 72.7345 45.7324ZM71.9884 43.9106C71.9567 43.9106 71.9299 43.8954 71.899 43.8923C71.9058 43.9388 71.9262 43.98 71.9262 44.028C71.9262 44.0905 71.9021 44.1446 71.8911 44.2033C71.9767 44.0615 72.0912 43.9457 72.2325 43.8611C72.1523 43.8816 72.075 43.9106 71.9884 43.9106ZM71.5493 42.0187C71.4514 42.0522 71.3511 42.0812 71.2422 42.0812C71.2075 42.0812 71.1785 42.0644 71.1446 42.0613C71.1684 42.146 71.1966 42.229 71.1966 42.3213C71.1966 42.3266 71.1936 42.3319 71.1936 42.3373C71.2871 42.2039 71.4035 42.0926 71.5493 42.0187ZM70.4738 40.2616C70.4324 40.2616 70.3973 40.2426 70.3574 40.238C70.4041 40.3417 70.4279 40.456 70.4343 40.5757C70.6072 40.3013 70.8966 40.1092 71.2422 40.1092C71.2795 40.1092 71.3112 40.1267 71.3473 40.1305C71.33 40.0573 71.3029 39.9872 71.3029 39.9079C71.3029 39.8279 71.33 39.7562 71.3481 39.6823C71.1996 40.0223 70.865 40.2616 70.4738 40.2616ZM78.1045 67.2834C77.7465 67.2834 77.4559 67.5776 77.4559 67.9397C77.4559 68.3025 77.7465 68.596 78.1045 68.596C78.4629 68.596 78.7534 68.3025 78.7534 67.9397C78.7534 67.5776 78.4629 67.2834 78.1045 67.2834Z" fill="#512D5D"/>
</g>
<path d="M29.3592 123V107.256H38.4312V108.936H31.3512V114.264H37.3512V115.944H31.3512V123H29.3592ZM41.2186 123V107.256H43.2106V123H41.2186ZM47.5233 123V107.256H52.4433C53.5153 107.256 54.4673 107.4 55.2993 107.688C56.1313 107.96 56.7793 108.424 57.2433 109.08C57.7233 109.72 57.9633 110.584 57.9633 111.672C57.9633 112.888 57.6433 113.872 57.0033 114.624C56.3633 115.36 55.4993 115.864 54.4113 116.136L58.4193 123H56.1633L52.3713 116.352H49.5153V123H47.5233ZM49.5153 114.72H52.1553C53.3873 114.72 54.3313 114.472 54.9873 113.976C55.6433 113.464 55.9713 112.696 55.9713 111.672C55.9713 110.632 55.6433 109.904 54.9873 109.488C54.3313 109.072 53.3873 108.864 52.1553 108.864H49.5153V114.72ZM61.1873 123V107.256H70.2593V108.936H63.1793V113.88H69.1553V115.584H63.1793V121.296H70.4993V123H61.1873ZM73.8436 123V107.256H82.9156V108.936H75.8356V114.264H81.8356V115.944H75.8356V123H73.8436ZM85.703 123V107.256H87.695V121.296H94.583V123H85.703ZM98.0907 123V116.904L93.3627 107.256H95.4987L97.5387 111.696C97.7947 112.272 98.0427 112.84 98.2827 113.4C98.5387 113.96 98.7947 114.536 99.0507 115.128H99.1467C99.4187 114.536 99.6907 113.96 99.9627 113.4C100.235 112.84 100.491 112.272 100.731 111.696L102.747 107.256H104.835L100.107 116.904V123H98.0907Z" fill="#512D5D"/>
<defs>
<clipPath id="clip0_119_2023">
<rect width="72" height="71" fill="white" transform="translate(30 15)"/>
</clipPath>
</defs>
</svg>
