<svg width="132" height="143" viewBox="0 0 132 143" fill="none" xmlns="http://www.w3.org/2000/svg">
<path fill-rule="evenodd" clip-rule="evenodd" d="M93.66 78.6006L66.5 86.3606L39.34 78.6006L33.52 12.6406H99.48C97.54 34.6248 95.6 56.6165 93.66 78.6006ZM95.2438 16.5206H37.7562L42.9699 75.5997L66.5 82.3291L90.0301 75.5997L95.2438 16.5206ZM50.5935 55.3206H58.3535L58.543 60.1706L66.5 62.8836L74.457 60.1706L75.033 51.4406H57.9671L57.573 43.6806H75.427L76.003 35.9206H49.2371L48.6535 28.1606H84.157L83.187 43.6806L81.823 65.9906L66.5 71.0377L51.1771 65.9906L50.5935 55.3206Z" fill="#512D5D"/>
<path d="M55.112 137.288C53.8 137.288 52.624 136.968 51.584 136.328C50.56 135.672 49.744 134.736 49.136 133.52C48.544 132.304 48.248 130.84 48.248 129.128C48.248 127.432 48.552 125.976 49.16 124.76C49.768 123.544 50.6 122.608 51.656 121.952C52.712 121.296 53.904 120.968 55.232 120.968C56.192 120.968 57.04 121.168 57.776 121.568C58.512 121.952 59.104 122.4 59.552 122.912L58.472 124.208C58.056 123.76 57.584 123.4 57.056 123.128C56.528 122.856 55.928 122.72 55.256 122.72C54.264 122.72 53.392 122.984 52.64 123.512C51.904 124.024 51.328 124.752 50.912 125.696C50.512 126.64 50.312 127.768 50.312 129.08C50.312 130.392 50.512 131.536 50.912 132.512C51.312 133.472 51.872 134.216 52.592 134.744C53.328 135.272 54.192 135.536 55.184 135.536C55.936 135.536 56.608 135.376 57.2 135.056C57.792 134.736 58.336 134.304 58.832 133.76L59.936 135.008C59.312 135.728 58.608 136.288 57.824 136.688C57.04 137.088 56.136 137.288 55.112 137.288ZM66.653 137.288C65.549 137.288 64.525 137.08 63.581 136.664C62.637 136.232 61.821 135.664 61.133 134.96L62.333 133.568C62.893 134.16 63.549 134.64 64.301 135.008C65.069 135.36 65.861 135.536 66.677 135.536C67.717 135.536 68.525 135.304 69.101 134.84C69.677 134.36 69.965 133.736 69.965 132.968C69.965 132.424 69.845 131.992 69.605 131.672C69.381 131.352 69.069 131.08 68.669 130.856C68.285 130.632 67.845 130.408 67.349 130.184L65.093 129.2C64.597 128.992 64.101 128.72 63.605 128.384C63.125 128.048 62.717 127.616 62.381 127.088C62.061 126.56 61.901 125.912 61.901 125.144C61.901 124.344 62.109 123.632 62.525 123.008C62.957 122.368 63.549 121.872 64.301 121.52C65.053 121.152 65.901 120.968 66.845 120.968C67.789 120.968 68.661 121.152 69.461 121.52C70.261 121.872 70.941 122.336 71.501 122.912L70.421 124.208C69.941 123.744 69.405 123.384 68.813 123.128C68.237 122.856 67.581 122.72 66.845 122.72C65.965 122.72 65.253 122.928 64.709 123.344C64.181 123.76 63.917 124.32 63.917 125.024C63.917 125.52 64.045 125.936 64.301 126.272C64.573 126.592 64.909 126.856 65.309 127.064C65.709 127.272 66.117 127.464 66.533 127.64L68.765 128.6C69.373 128.856 69.917 129.168 70.397 129.536C70.893 129.888 71.285 130.328 71.573 130.856C71.861 131.368 72.005 132.016 72.005 132.8C72.005 133.632 71.789 134.392 71.357 135.08C70.925 135.752 70.309 136.288 69.509 136.688C68.709 137.088 67.757 137.288 66.653 137.288ZM79.1452 137.288C78.0412 137.288 77.0172 137.08 76.0732 136.664C75.1292 136.232 74.3132 135.664 73.6252 134.96L74.8252 133.568C75.3852 134.16 76.0412 134.64 76.7932 135.008C77.5612 135.36 78.3532 135.536 79.1692 135.536C80.2092 135.536 81.0172 135.304 81.5932 134.84C82.1692 134.36 82.4572 133.736 82.4572 132.968C82.4572 132.424 82.3372 131.992 82.0972 131.672C81.8732 131.352 81.5612 131.08 81.1612 130.856C80.7772 130.632 80.3372 130.408 79.8412 130.184L77.5852 129.2C77.0892 128.992 76.5932 128.72 76.0972 128.384C75.6172 128.048 75.2092 127.616 74.8732 127.088C74.5532 126.56 74.3932 125.912 74.3932 125.144C74.3932 124.344 74.6012 123.632 75.0172 123.008C75.4492 122.368 76.0412 121.872 76.7932 121.52C77.5452 121.152 78.3932 120.968 79.3372 120.968C80.2812 120.968 81.1532 121.152 81.9532 121.52C82.7532 121.872 83.4332 122.336 83.9932 122.912L82.9132 124.208C82.4332 123.744 81.8972 123.384 81.3052 123.128C80.7292 122.856 80.0732 122.72 79.3372 122.72C78.4572 122.72 77.7452 122.928 77.2012 123.344C76.6732 123.76 76.4092 124.32 76.4092 125.024C76.4092 125.52 76.5372 125.936 76.7932 126.272C77.0652 126.592 77.4012 126.856 77.8012 127.064C78.2012 127.272 78.6092 127.464 79.0252 127.64L81.2572 128.6C81.8652 128.856 82.4092 129.168 82.8892 129.536C83.3852 129.888 83.7772 130.328 84.0652 130.856C84.3532 131.368 84.4972 132.016 84.4972 132.8C84.4972 133.632 84.2812 134.392 83.8492 135.08C83.4172 135.752 82.8012 136.288 82.0012 136.688C81.2012 137.088 80.2492 137.288 79.1452 137.288Z" fill="#512D5D"/>
</svg>
