<svg width="132" height="135" viewBox="0 0 132 135" fill="none" xmlns="http://www.w3.org/2000/svg">
<path d="M43.2 0C34.819 0 28 6.81895 28 15.2V60.8C28 69.181 34.819 76 43.2 76H88.8C97.181 76 104 69.181 104 60.8V15.2C104 6.81895 97.181 0 88.8 0H43.2ZM43.2 2.33846H88.8C95.8914 2.33846 101.662 8.10862 101.662 15.2V60.8C101.662 67.8914 95.8914 73.6615 88.8 73.6615H43.2C36.1086 73.6615 30.3385 67.8914 30.3385 60.8V15.2C30.3385 8.10862 36.1086 2.33846 43.2 2.33846ZM46.5181 5.84615C39.5308 5.84615 33.8462 11.5297 33.8462 18.5159V57.4819C33.8462 64.4692 39.5308 70.1538 46.5181 70.1538H85.4819C92.4692 70.1538 98.1538 64.4692 98.1538 57.4819V35.6615C98.1538 35.3388 97.8919 35.0769 97.5692 35.0769C97.2465 35.0769 96.9846 35.3388 96.9846 35.6615V57.4819C96.9846 63.8238 91.8238 68.9846 85.4819 68.9846H46.5181C40.1762 68.9846 35.0154 63.8238 35.0154 57.4819V18.5159C35.0154 12.174 40.1762 7.01538 46.5181 7.01538H85.8769C86.1996 7.01538 86.4615 6.75348 86.4615 6.43077C86.4615 6.10806 86.1996 5.84615 85.8769 5.84615H46.5181ZM49.6308 22.2154C49.3081 22.2154 49.0462 22.4773 49.0462 22.8V50.8615C49.0462 51.1842 49.3081 51.4462 49.6308 51.4462H53.1385C53.4612 51.4462 53.7231 51.1842 53.7231 50.8615V40.9231H55.6368C57.3953 40.9231 59.0597 40.7015 60.5832 40.2677C62.1195 39.8304 63.4784 39.193 64.6184 38.3722C65.7736 37.5409 66.6882 36.5172 67.3359 35.3281C67.9895 34.1297 68.3202 32.7699 68.3202 31.2838C68.319 29.7731 68.0113 28.4308 67.4022 27.2897C66.7965 26.1555 65.9463 25.1952 64.8742 24.4328C63.8183 23.6833 62.5665 23.1191 61.1564 22.7543C59.7673 22.3954 58.2482 22.2154 56.637 22.2154H49.6308ZM97.5692 22.2154C97.2465 22.2154 96.9846 22.4773 96.9846 22.8V25.1385C96.9846 25.4612 97.2465 25.7231 97.5692 25.7231C97.8919 25.7231 98.1538 25.4612 98.1538 25.1385V22.8C98.1538 22.4773 97.8919 22.2154 97.5692 22.2154ZM50.2154 23.3869H56.637C58.1488 23.3869 59.5732 23.5549 60.8663 23.8893C62.1385 24.2167 63.2604 24.7221 64.2005 25.3874C65.123 26.0445 65.8531 26.8707 66.3722 27.8423C66.889 28.8116 67.151 29.9706 67.151 31.2883C67.1498 32.5733 66.8672 33.7455 66.3083 34.7709C65.7447 35.8045 64.9458 36.6972 63.9356 37.4268C62.9055 38.1693 61.6712 38.7465 60.2657 39.1464C58.8463 39.5509 57.2877 39.7561 55.6368 39.7561H53.1385C52.8158 39.7561 52.5538 40.018 52.5538 40.3407V50.2792H50.2154V23.3869ZM53.1385 25.7231C52.8158 25.7231 52.5538 25.985 52.5538 26.3077V36.8308C52.5538 37.1535 52.8158 37.4154 53.1385 37.4154H55.3308C56.5631 37.4154 57.7168 37.2833 58.7585 37.0249C59.8132 36.7641 60.7486 36.3702 61.5355 35.8534C62.3387 35.3249 62.9705 34.6689 63.4172 33.9054C63.8709 33.1302 64.1 32.2374 64.1 31.2564C64.1 30.2438 63.8741 29.3685 63.4286 28.6553C62.9937 27.9619 62.3946 27.3846 61.6451 26.938C60.9202 26.5077 60.0602 26.19 59.0874 25.9994C58.145 25.8147 57.1377 25.7231 56.0912 25.7231H53.1385ZM53.7231 26.8923H56.0912C57.0629 26.8923 57.9948 26.9785 58.8636 27.1481C59.7031 27.3141 60.4376 27.5803 61.0468 27.9428C61.6431 28.2982 62.0973 28.7362 62.4375 29.2787C62.7649 29.8025 62.9308 30.4683 62.9308 31.2587C62.9308 32.0409 62.7609 32.713 62.4078 33.3139C62.0524 33.9219 61.5427 34.4469 60.8915 34.876C60.2168 35.3203 59.4037 35.6619 58.4776 35.8899C57.5271 36.1249 56.4684 36.2462 55.3308 36.2462H53.7231V26.8923ZM97.5692 26.8923C97.2465 26.8923 96.9846 27.1542 96.9846 27.4769V32.1538C96.9846 32.4766 97.2465 32.7385 97.5692 32.7385C97.8919 32.7385 98.1538 32.4766 98.1538 32.1538V27.4769C98.1538 27.1542 97.8919 26.8923 97.5692 26.8923ZM76.498 30.1031C75.4673 30.0919 74.4387 30.197 73.463 30.432C72.5311 30.6565 71.694 31.02 70.9761 31.5076C70.2465 32.0057 69.6484 32.6495 69.1994 33.4236C68.7422 34.2116 68.512 35.1612 68.512 36.2439C68.512 37.2424 68.7303 38.1187 69.1606 38.8518C69.5745 39.558 70.1158 40.1856 70.7683 40.7153C71.4055 41.2332 72.1171 41.6829 72.8829 42.0512C73.6184 42.4055 74.3685 42.7297 75.0981 43.0103C75.6254 43.2325 76.1338 43.4551 76.619 43.6749C77.0738 43.8842 77.471 44.1123 77.8019 44.3531C78.1048 44.5741 78.3536 44.8339 78.5395 45.1227C78.7044 45.3799 78.7839 45.6686 78.7839 46.0065C78.7839 46.7419 78.4882 47.2398 77.8544 47.5731C77.1155 47.9613 76.1802 48.1577 75.0752 48.1577C73.9797 48.1577 72.9767 48.0388 72.0928 47.8014C71.1773 47.5547 70.3587 47.2785 69.663 46.9839C69.5016 46.9126 69.3184 46.9214 69.1629 47.0044C69.0085 47.0851 68.8977 47.2299 68.8614 47.4018L68.2311 50.3911C68.1703 50.6589 68.3075 50.9308 68.5554 51.0442C68.9483 51.2243 69.4208 51.399 69.9599 51.5581C70.4977 51.7182 71.0597 51.8545 71.6315 51.9691C72.2009 52.0837 72.7859 52.1721 73.3716 52.2317C73.9539 52.2902 74.5116 52.3185 75.0296 52.3185C76.2315 52.3185 77.3644 52.1625 78.3957 51.8526C79.4375 51.5405 80.3565 51.0919 81.1246 50.519C81.9057 49.9379 82.5278 49.2231 82.9744 48.3906C83.4257 47.55 83.6549 46.5951 83.6549 45.5475C83.6549 44.3899 83.3471 43.3792 82.7415 42.549C82.1721 41.7703 81.4955 41.1101 80.7273 40.5828C79.9848 40.073 79.222 39.6484 78.4573 39.3245C77.7359 39.0194 77.1935 38.7848 76.8474 38.6234C76.4463 38.4247 76.0189 38.2217 75.5594 38.0206C75.1431 37.8405 74.7513 37.6364 74.3947 37.4131C74.072 37.2097 73.809 36.9838 73.6114 36.7394C73.4583 36.55 73.3831 36.318 73.3831 36.0315C73.3831 35.1476 73.7746 34.8497 74.0704 34.7024C75.2198 34.126 77.1213 34.1516 78.8296 34.5585C79.6691 34.7596 80.4877 35.0499 81.2594 35.4218C81.4219 35.5001 81.6084 35.5001 81.7686 35.4218C81.93 35.3434 82.0452 35.1952 82.0838 35.0198L82.7163 32.1584C82.7736 31.9 82.6476 31.6349 82.4126 31.5121C81.5579 31.0713 80.592 30.7232 79.5421 30.4754C78.5605 30.2433 77.5286 30.1144 76.498 30.1031ZM76.5025 31.2746C77.4416 31.2863 78.3822 31.4044 79.2749 31.6149C80.0688 31.8032 80.8064 32.0519 81.474 32.3594L81.0972 34.0698C80.453 33.8021 79.7842 33.5873 79.1013 33.4236C77.1253 32.9547 74.9564 32.9514 73.5475 33.6565C72.9383 33.9605 72.2138 34.6202 72.2138 36.0315C72.2138 36.588 72.3798 37.0738 72.7025 37.4725C72.9796 37.8162 73.3398 38.1284 73.7713 38.3996C74.177 38.6557 74.6201 38.8904 75.0889 39.0939C75.5286 39.2868 75.9417 39.4786 76.3404 39.6762C76.7087 39.8469 77.2628 40.0903 78.0006 40.4001C78.6928 40.6936 79.3869 41.0789 80.065 41.5442C80.7233 41.9967 81.3061 42.5676 81.796 43.2387C82.2591 43.8736 82.4834 44.6285 82.4834 45.5475C82.4834 46.3998 82.3023 47.1704 81.9445 47.838C81.5797 48.5173 81.0678 49.1034 80.4258 49.5804C79.7676 50.0715 78.9708 50.4578 78.06 50.7314C76.7282 51.1289 75.2583 51.2413 73.4881 51.0671C72.9409 51.0109 72.393 50.9291 71.8599 50.8227C71.3162 50.714 70.7938 50.5864 70.291 50.4368C69.9917 50.3479 69.7167 50.2552 69.4712 50.1605L69.8594 48.3244C70.444 48.5419 71.0876 48.7436 71.7845 48.9319C72.7678 49.1973 73.8745 49.3292 75.073 49.3292C76.3696 49.3292 77.486 49.0869 78.3957 48.6099C79.4129 48.0755 79.9508 47.1757 79.9508 46.0088C79.9508 45.4487 79.8056 44.9414 79.5215 44.4947C79.2573 44.0831 78.9102 43.7186 78.4893 43.4123C78.0964 43.1246 77.6305 42.855 77.1031 42.613C76.6074 42.3873 76.0885 42.1617 75.5343 41.9279C74.8175 41.6531 74.0973 41.3399 73.3899 40.9984C72.7071 40.6711 72.073 40.2717 71.5059 39.8087C70.961 39.3667 70.5103 38.8472 70.1677 38.2626C69.8438 37.7107 69.6813 37.0319 69.6813 36.2439C69.6813 35.3705 69.8602 34.6173 70.2133 34.0105C70.5735 33.3884 71.0515 32.8722 71.6338 32.4758C72.2348 32.0666 72.9419 31.7633 73.737 31.5715C74.6245 31.3564 75.5635 31.2629 76.5025 31.2746Z" fill="#512D5D"/>
<path d="M2.74594 129V113.256H7.23394C8.41794 113.256 9.44994 113.4 10.3299 113.688C11.2099 113.976 11.8979 114.464 12.3939 115.152C12.8899 115.824 13.1379 116.736 13.1379 117.888C13.1379 119.536 12.6019 120.76 11.5299 121.56C10.4579 122.36 9.05794 122.76 7.32994 122.76H4.73794V129H2.74594ZM4.73794 121.128H7.08994C8.46594 121.128 9.48194 120.872 10.1379 120.36C10.8099 119.832 11.1459 119.008 11.1459 117.888C11.1459 116.752 10.7939 115.968 10.0899 115.536C9.40194 115.088 8.36994 114.864 6.99394 114.864H4.73794V121.128ZM16.3397 129V113.256H18.3317V119.856H25.6517V113.256H27.6677V129H25.6517V121.584H18.3317V129H16.3397ZM37.8039 129.288C36.4919 129.288 35.3239 128.952 34.2999 128.28C33.2919 127.608 32.4999 126.656 31.9239 125.424C31.3639 124.192 31.0839 122.736 31.0839 121.056C31.0839 119.376 31.3639 117.936 31.9239 116.736C32.4999 115.52 33.2919 114.592 34.2999 113.952C35.3239 113.296 36.4919 112.968 37.8039 112.968C39.1319 112.968 40.2999 113.296 41.3079 113.952C42.3159 114.592 43.1079 115.52 43.6839 116.736C44.2599 117.936 44.5479 119.376 44.5479 121.056C44.5479 122.736 44.2599 124.192 43.6839 125.424C43.1079 126.656 42.3159 127.608 41.3079 128.28C40.2999 128.952 39.1319 129.288 37.8039 129.288ZM37.8039 127.536C38.7479 127.536 39.5639 127.272 40.2519 126.744C40.9559 126.2 41.4999 125.448 41.8839 124.488C42.2679 123.512 42.4599 122.368 42.4599 121.056C42.4599 119.104 42.0359 117.56 41.1879 116.424C40.3399 115.288 39.2119 114.72 37.8039 114.72C36.3959 114.72 35.2679 115.288 34.4199 116.424C33.5719 117.56 33.1479 119.104 33.1479 121.056C33.1479 122.368 33.3399 123.512 33.7239 124.488C34.1079 125.448 34.6519 126.2 35.3559 126.744C36.0599 127.272 36.8759 127.536 37.8039 127.536ZM50.6115 129V114.936H45.8595V113.256H57.3795V114.936H52.6275V129H50.6115ZM65.4368 129.288C64.1248 129.288 62.9568 128.952 61.9328 128.28C60.9248 127.608 60.1328 126.656 59.5568 125.424C58.9968 124.192 58.7168 122.736 58.7168 121.056C58.7168 119.376 58.9968 117.936 59.5568 116.736C60.1328 115.52 60.9248 114.592 61.9328 113.952C62.9568 113.296 64.1248 112.968 65.4368 112.968C66.7648 112.968 67.9328 113.296 68.9408 113.952C69.9488 114.592 70.7408 115.52 71.3168 116.736C71.8928 117.936 72.1808 119.376 72.1808 121.056C72.1808 122.736 71.8928 124.192 71.3168 125.424C70.7408 126.656 69.9488 127.608 68.9408 128.28C67.9328 128.952 66.7648 129.288 65.4368 129.288ZM65.4368 127.536C66.3808 127.536 67.1968 127.272 67.8848 126.744C68.5888 126.2 69.1328 125.448 69.5168 124.488C69.9008 123.512 70.0928 122.368 70.0928 121.056C70.0928 119.104 69.6688 117.56 68.8208 116.424C67.9728 115.288 66.8448 114.72 65.4368 114.72C64.0288 114.72 62.9008 115.288 62.0528 116.424C61.2048 117.56 60.7808 119.104 60.7808 121.056C60.7808 122.368 60.9728 123.512 61.3568 124.488C61.7408 125.448 62.2848 126.2 62.9888 126.744C63.6928 127.272 64.5088 127.536 65.4368 127.536ZM79.9343 129.288C78.8303 129.288 77.8063 129.08 76.8623 128.664C75.9183 128.232 75.1023 127.664 74.4143 126.96L75.6143 125.568C76.1743 126.16 76.8303 126.64 77.5823 127.008C78.3503 127.36 79.1423 127.536 79.9583 127.536C80.9983 127.536 81.8063 127.304 82.3823 126.84C82.9583 126.36 83.2463 125.736 83.2463 124.968C83.2463 124.424 83.1263 123.992 82.8863 123.672C82.6623 123.352 82.3503 123.08 81.9503 122.856C81.5663 122.632 81.1263 122.408 80.6303 122.184L78.3743 121.2C77.8783 120.992 77.3823 120.72 76.8863 120.384C76.4063 120.048 75.9983 119.616 75.6623 119.088C75.3423 118.56 75.1823 117.912 75.1823 117.144C75.1823 116.344 75.3903 115.632 75.8063 115.008C76.2383 114.368 76.8303 113.872 77.5823 113.52C78.3343 113.152 79.1823 112.968 80.1263 112.968C81.0703 112.968 81.9423 113.152 82.7423 113.52C83.5423 113.872 84.2223 114.336 84.7823 114.912L83.7023 116.208C83.2223 115.744 82.6863 115.384 82.0943 115.128C81.5183 114.856 80.8623 114.72 80.1263 114.72C79.2463 114.72 78.5343 114.928 77.9903 115.344C77.4623 115.76 77.1983 116.32 77.1983 117.024C77.1983 117.52 77.3263 117.936 77.5823 118.272C77.8543 118.592 78.1903 118.856 78.5903 119.064C78.9903 119.272 79.3983 119.464 79.8143 119.64L82.0463 120.6C82.6543 120.856 83.1983 121.168 83.6783 121.536C84.1743 121.888 84.5663 122.328 84.8543 122.856C85.1423 123.368 85.2863 124.016 85.2863 124.8C85.2863 125.632 85.0703 126.392 84.6383 127.08C84.2063 127.752 83.5903 128.288 82.7903 128.688C81.9903 129.088 81.0383 129.288 79.9343 129.288ZM88.3866 129V113.256H90.3786V119.856H97.6986V113.256H99.7146V129H97.6986V121.584H90.3786V129H88.3866ZM109.851 129.288C108.539 129.288 107.371 128.952 106.347 128.28C105.339 127.608 104.547 126.656 103.971 125.424C103.411 124.192 103.131 122.736 103.131 121.056C103.131 119.376 103.411 117.936 103.971 116.736C104.547 115.52 105.339 114.592 106.347 113.952C107.371 113.296 108.539 112.968 109.851 112.968C111.179 112.968 112.347 113.296 113.355 113.952C114.363 114.592 115.155 115.52 115.731 116.736C116.307 117.936 116.595 119.376 116.595 121.056C116.595 122.736 116.307 124.192 115.731 125.424C115.155 126.656 114.363 127.608 113.355 128.28C112.347 128.952 111.179 129.288 109.851 129.288ZM109.851 127.536C110.795 127.536 111.611 127.272 112.299 126.744C113.003 126.2 113.547 125.448 113.931 124.488C114.315 123.512 114.507 122.368 114.507 121.056C114.507 119.104 114.083 117.56 113.235 116.424C112.387 115.288 111.259 114.72 109.851 114.72C108.443 114.72 107.315 115.288 106.467 116.424C105.619 117.56 105.195 119.104 105.195 121.056C105.195 122.368 105.387 123.512 105.771 124.488C106.155 125.448 106.699 126.2 107.403 126.744C108.107 127.272 108.923 127.536 109.851 127.536ZM119.98 129V113.256H124.468C125.652 113.256 126.684 113.4 127.564 113.688C128.444 113.976 129.132 114.464 129.628 115.152C130.124 115.824 130.372 116.736 130.372 117.888C130.372 119.536 129.836 120.76 128.764 121.56C127.692 122.36 126.292 122.76 124.564 122.76H121.972V129H119.98ZM121.972 121.128H124.324C125.7 121.128 126.716 120.872 127.372 120.36C128.044 119.832 128.38 119.008 128.38 117.888C128.38 116.752 128.028 115.968 127.324 115.536C126.636 115.088 125.604 114.864 124.228 114.864H121.972V121.128Z" fill="#512D5D"/>
</svg>
