<svg width="132" height="143" viewBox="0 0 132 143" fill="none" xmlns="http://www.w3.org/2000/svg">
<path d="M53.8125 17C53.8125 17 41.0781 17.875 32.75 24.5625C32.7109 24.5781 32.6641 24.6016 32.625 24.625C31.1797 25.9609 30.0938 28.0312 28.75 31C27.4063 33.9687 25.9844 37.7891 24.6875 42.0625C22.1016 50.6172 20 61.1172 20 71C19.9922 71.3516 20.0781 71.6953 20.25 72C23.1719 77.1328 28.5469 80.2344 33.5625 82.1875C38.5781 84.1406 43.2109 84.9219 45.5625 85C46.2266 85.0234 46.8594 84.7188 47.25 84.1875L52.125 77.4375C56.0547 78.3672 60.6641 79 66 79C71.3359 79 75.9453 78.3672 79.875 77.4375L84.75 84.1875C85.1406 84.7188 85.7734 85.0234 86.4375 85C88.7891 84.9219 93.4219 84.1406 98.4375 82.1875C103.453 80.2344 108.828 77.1328 111.75 72C111.922 71.6953 112.008 71.3516 112 71C112 61.1172 109.898 50.6172 107.312 42.0625C106.016 37.7891 104.594 33.9687 103.25 31C101.906 28.0312 100.82 25.9609 99.375 24.625C99.3359 24.6016 99.2891 24.5781 99.25 24.5625C90.9219 17.875 78.1875 17 78.1875 17C78.0391 16.9844 77.8984 16.9844 77.75 17C77.0547 17.0937 76.4688 17.5469 76.1875 18.1875C76.1875 18.1875 75.5078 19.6797 75.0625 21.8125C71.1641 21.1875 67.8828 21 66 21C64.1172 21 60.8359 21.1875 56.9375 21.8125C56.4922 19.6797 55.8125 18.1875 55.8125 18.1875C55.4688 17.4062 54.6641 16.9297 53.8125 17ZM52.5625 21.3125C52.7109 21.7187 52.8125 22.1016 52.9375 22.5625C48.4297 23.6094 43.4922 25.3203 38.875 28.1875C38.1484 28.4922 37.6719 29.1953 37.6484 29.9844C37.6328 30.7656 38.0781 31.4922 38.7812 31.8359C39.4922 32.1719 40.3359 32.0703 40.9375 31.5625C50.2031 25.8203 61.9922 25 66 25C70.0078 25 81.7969 25.8203 91.0625 31.5625C91.6641 32.0703 92.5078 32.1719 93.2188 31.8359C93.9219 31.4922 94.3672 30.7656 94.3516 29.9844C94.3281 29.1953 93.8516 28.4922 93.125 28.1875C88.5078 25.3203 83.5703 23.6094 79.0625 22.5625C79.1875 22.1016 79.2891 21.7187 79.4375 21.3125C81.7188 21.5937 90.5859 22.7891 96.625 27.5625C97.0156 27.9219 98.375 29.9219 99.625 32.6875C100.875 35.4531 102.188 39.0547 103.438 43.1875C105.875 51.25 107.844 61.1953 107.938 70.3125C105.664 73.9922 101.398 76.7266 97 78.4375C93 79.9922 89.2656 80.6875 87.3125 80.875L83.9375 76.3125C85.6562 75.7578 87.2031 75.1562 88.5625 74.5625C93.6094 72.3438 96.3125 70 96.3125 70C97.1406 69.2578 97.2109 67.9844 96.4688 67.1562C95.7266 66.3281 94.4531 66.2578 93.625 67C93.625 67 91.5312 68.9141 86.9375 70.9375C85.25 71.6797 83.2031 72.4141 80.875 73.0625C80.3359 73 79.7969 73.1562 79.375 73.5C75.6484 74.4062 71.2188 75 66 75C60.7422 75 56.3047 74.3516 52.5625 73.4375C52.1406 73.1562 51.625 73.0391 51.125 73.125C48.7891 72.4766 46.7578 71.6797 45.0625 70.9375C40.4688 68.9141 38.375 67 38.375 67C37.9219 66.5781 37.2969 66.3984 36.6875 66.5C35.9141 66.6172 35.2734 67.1719 35.0625 67.9297C34.8438 68.6797 35.0938 69.4922 35.6875 70C35.6875 70 38.3906 72.3438 43.4375 74.5625C44.7969 75.1562 46.3438 75.7578 48.0625 76.3125L44.6875 80.875C42.7344 80.6875 39 79.9922 35 78.4375C30.6016 76.7266 26.3359 73.9922 24.0625 70.3125C24.1563 61.1953 26.125 51.25 28.5625 43.1875C29.8125 39.0547 31.125 35.4531 32.375 32.6875C33.625 29.9219 34.9844 27.9219 35.375 27.5625C41.4141 22.7891 50.2812 21.5937 52.5625 21.3125ZM53 45C47.8984 45 44 49.6328 44 55C44 60.3672 47.8984 65 53 65C58.1016 65 62 60.3672 62 55C62 49.6328 58.1016 45 53 45ZM79 45C73.8984 45 70 49.6328 70 55C70 60.3672 73.8984 65 79 65C84.1016 65 88 60.3672 88 55C88 49.6328 84.1016 45 79 45ZM53 49C55.6328 49 58 51.5312 58 55C58 58.4688 55.6328 61 53 61C50.3672 61 48 58.4688 48 55C48 51.5312 50.3672 49 53 49ZM79 49C81.6328 49 84 51.5312 84 55C84 58.4688 81.6328 61 79 61C76.3672 61 74 58.4688 74 55C74 51.5312 76.3672 49 79 49Z" fill="#512D5D"/>
<path d="M22.5272 134V118.256H26.4632C28.8952 118.256 30.7432 118.936 32.0072 120.296C33.2712 121.64 33.9032 123.56 33.9032 126.056C33.9032 128.568 33.2712 130.52 32.0072 131.912C30.7592 133.304 28.9432 134 26.5592 134H22.5272ZM24.5192 132.368H26.3192C28.1592 132.368 29.5352 131.816 30.4472 130.712C31.3752 129.592 31.8392 128.04 31.8392 126.056C31.8392 124.072 31.3752 122.552 30.4472 121.496C29.5352 120.424 28.1592 119.888 26.3192 119.888H24.5192V132.368ZM37.2928 134V118.256H39.2848V134H37.2928ZM47.9655 134.288C46.8615 134.288 45.8375 134.08 44.8935 133.664C43.9495 133.232 43.1335 132.664 42.4455 131.96L43.6455 130.568C44.2055 131.16 44.8615 131.64 45.6135 132.008C46.3815 132.36 47.1735 132.536 47.9895 132.536C49.0295 132.536 49.8375 132.304 50.4135 131.84C50.9895 131.36 51.2775 130.736 51.2775 129.968C51.2775 129.424 51.1575 128.992 50.9175 128.672C50.6935 128.352 50.3815 128.08 49.9815 127.856C49.5975 127.632 49.1575 127.408 48.6615 127.184L46.4055 126.2C45.9095 125.992 45.4135 125.72 44.9175 125.384C44.4375 125.048 44.0295 124.616 43.6935 124.088C43.3735 123.56 43.2135 122.912 43.2135 122.144C43.2135 121.344 43.4215 120.632 43.8375 120.008C44.2695 119.368 44.8615 118.872 45.6135 118.52C46.3655 118.152 47.2135 117.968 48.1575 117.968C49.1015 117.968 49.9735 118.152 50.7735 118.52C51.5735 118.872 52.2535 119.336 52.8135 119.912L51.7335 121.208C51.2535 120.744 50.7175 120.384 50.1255 120.128C49.5495 119.856 48.8935 119.72 48.1575 119.72C47.2775 119.72 46.5655 119.928 46.0215 120.344C45.4935 120.76 45.2295 121.32 45.2295 122.024C45.2295 122.52 45.3575 122.936 45.6135 123.272C45.8855 123.592 46.2215 123.856 46.6215 124.064C47.0215 124.272 47.4295 124.464 47.8455 124.64L50.0775 125.6C50.6855 125.856 51.2295 126.168 51.7095 126.536C52.2055 126.888 52.5975 127.328 52.8855 127.856C53.1735 128.368 53.3175 129.016 53.3175 129.8C53.3175 130.632 53.1015 131.392 52.6695 132.08C52.2375 132.752 51.6215 133.288 50.8215 133.688C50.0215 134.088 49.0695 134.288 47.9655 134.288ZM62.3698 134.288C61.0578 134.288 59.8818 133.968 58.8418 133.328C57.8178 132.672 57.0018 131.736 56.3938 130.52C55.8018 129.304 55.5058 127.84 55.5058 126.128C55.5058 124.432 55.8098 122.976 56.4178 121.76C57.0258 120.544 57.8578 119.608 58.9138 118.952C59.9698 118.296 61.1618 117.968 62.4898 117.968C63.4498 117.968 64.2978 118.168 65.0338 118.568C65.7698 118.952 66.3618 119.4 66.8098 119.912L65.7298 121.208C65.3138 120.76 64.8418 120.4 64.3138 120.128C63.7858 119.856 63.1858 119.72 62.5138 119.72C61.5218 119.72 60.6498 119.984 59.8978 120.512C59.1618 121.024 58.5858 121.752 58.1698 122.696C57.7698 123.64 57.5698 124.768 57.5698 126.08C57.5698 127.392 57.7698 128.536 58.1698 129.512C58.5698 130.472 59.1298 131.216 59.8498 131.744C60.5858 132.272 61.4498 132.536 62.4418 132.536C63.1938 132.536 63.8658 132.376 64.4578 132.056C65.0498 131.736 65.5938 131.304 66.0898 130.76L67.1938 132.008C66.5698 132.728 65.8658 133.288 65.0818 133.688C64.2978 134.088 63.3938 134.288 62.3698 134.288ZM75.2336 134.288C73.9216 134.288 72.7536 133.952 71.7296 133.28C70.7216 132.608 69.9296 131.656 69.3536 130.424C68.7936 129.192 68.5136 127.736 68.5136 126.056C68.5136 124.376 68.7936 122.936 69.3536 121.736C69.9296 120.52 70.7216 119.592 71.7296 118.952C72.7536 118.296 73.9216 117.968 75.2336 117.968C76.5616 117.968 77.7296 118.296 78.7376 118.952C79.7456 119.592 80.5376 120.52 81.1136 121.736C81.6896 122.936 81.9776 124.376 81.9776 126.056C81.9776 127.736 81.6896 129.192 81.1136 130.424C80.5376 131.656 79.7456 132.608 78.7376 133.28C77.7296 133.952 76.5616 134.288 75.2336 134.288ZM75.2336 132.536C76.1776 132.536 76.9936 132.272 77.6816 131.744C78.3856 131.2 78.9296 130.448 79.3136 129.488C79.6976 128.512 79.8896 127.368 79.8896 126.056C79.8896 124.104 79.4656 122.56 78.6176 121.424C77.7696 120.288 76.6416 119.72 75.2336 119.72C73.8256 119.72 72.6976 120.288 71.8496 121.424C71.0016 122.56 70.5776 124.104 70.5776 126.056C70.5776 127.368 70.7696 128.512 71.1536 129.488C71.5376 130.448 72.0816 131.2 72.7856 131.744C73.4896 132.272 74.3056 132.536 75.2336 132.536ZM85.3631 134V118.256H90.2831C91.3551 118.256 92.3071 118.4 93.1391 118.688C93.9711 118.96 94.6191 119.424 95.0831 120.08C95.5631 120.72 95.8031 121.584 95.8031 122.672C95.8031 123.888 95.4831 124.872 94.8431 125.624C94.2031 126.36 93.3391 126.864 92.2511 127.136L96.2591 134H94.0031L90.2111 127.352H87.3551V134H85.3631ZM87.3551 125.72H89.9951C91.2271 125.72 92.1711 125.472 92.8271 124.976C93.4831 124.464 93.8111 123.696 93.8111 122.672C93.8111 121.632 93.4831 120.904 92.8271 120.488C92.1711 120.072 91.2271 119.864 89.9951 119.864H87.3551V125.72ZM99.0272 134V118.256H102.963C105.395 118.256 107.243 118.936 108.507 120.296C109.771 121.64 110.403 123.56 110.403 126.056C110.403 128.568 109.771 130.52 108.507 131.912C107.259 133.304 105.443 134 103.059 134H99.0272ZM101.019 132.368H102.819C104.659 132.368 106.035 131.816 106.947 130.712C107.875 129.592 108.339 128.04 108.339 126.056C108.339 124.072 107.875 122.552 106.947 121.496C106.035 120.424 104.659 119.888 102.819 119.888H101.019V132.368Z" fill="#512D5D"/>
</svg>
