<svg width="132" height="143" viewBox="0 0 132 143" fill="none" xmlns="http://www.w3.org/2000/svg">
<g clip-path="url(#clip0_119_2023)">
<path d="M102.5 45.5C102.5 65.6584 86.1584 82 66 82C45.8416 82 29.5 65.6584 29.5 45.5C29.5 25.3416 45.8416 9 66 9C86.1584 9 102.5 25.3416 102.5 45.5Z" stroke="#512D5D" stroke-width="2"/>
<path d="M75.375 59.5C73.8573 59.5 72.625 58.2677 72.625 56.75V32.375C72.625 30.8573 73.8573 29.625 75.375 29.625C76.8927 29.625 78.125 30.8573 78.125 32.375V56.75C78.125 58.2677 76.8927 59.5 75.375 59.5Z" stroke="#512D5D" stroke-width="2"/>
<path d="M64.125 59.5C62.6073 59.5 61.375 58.2677 61.375 56.75V45.5C61.375 43.9823 62.6073 42.75 64.125 42.75C65.6427 42.75 66.875 43.9823 66.875 45.5V56.75C66.875 58.2677 65.6427 59.5 64.125 59.5Z" stroke="#512D5D" stroke-width="2"/>
<path d="M52.875 59.5C51.3573 59.5 50.125 58.2677 50.125 56.75V54.875C50.125 53.3573 51.3573 52.125 52.875 52.125C54.3927 52.125 55.625 53.3573 55.625 54.875V56.75C55.625 58.2677 54.3927 59.5 52.875 59.5Z" stroke="#512D5D" stroke-width="2"/>
<path d="M16.872 129.692L16.128 132.092H20.856L20.112 129.692C19.824 128.812 19.552 127.94 19.296 127.076C19.04 126.196 18.784 125.3 18.528 124.388H18.432C18.192 125.3 17.944 126.196 17.688 127.076C17.432 127.94 17.16 128.812 16.872 129.692ZM12.072 138.5L17.4 122.756H19.656L24.984 138.5H22.848L21.36 133.7H15.624L14.112 138.5H12.072ZM27.2147 138.5V122.756H29.2787L34.9667 132.644L36.6707 135.908H36.7667C36.7187 135.108 36.6627 134.284 36.5987 133.436C36.5507 132.572 36.5267 131.724 36.5267 130.892V122.756H38.4227V138.5H36.3587L30.6467 128.588L28.9427 125.348H28.8467C28.9107 126.132 28.9667 126.94 29.0147 127.772C29.0787 128.604 29.1107 129.436 29.1107 130.268V138.5H27.2147ZM45.4658 129.692L44.7218 132.092H49.4498L48.7058 129.692C48.4178 128.812 48.1458 127.94 47.8898 127.076C47.6338 126.196 47.3778 125.3 47.1218 124.388H47.0258C46.7858 125.3 46.5378 126.196 46.2818 127.076C46.0258 127.94 45.7538 128.812 45.4658 129.692ZM40.6658 138.5L45.9938 122.756H48.2498L53.5778 138.5H51.4418L49.9538 133.7H44.2178L42.7058 138.5H40.6658ZM55.8084 138.5V122.756H57.8004V136.796H64.6884V138.5H55.8084ZM68.1962 138.5V132.404L63.4682 122.756H65.6042L67.6442 127.196C67.9002 127.772 68.1482 128.34 68.3882 128.9C68.6442 129.46 68.9002 130.036 69.1562 130.628H69.2522C69.5242 130.036 69.7962 129.46 70.0682 128.9C70.3402 128.34 70.5962 127.772 70.8362 127.196L72.8522 122.756H74.9402L70.2122 132.404V138.5H68.1962ZM80.0021 138.5V124.436H75.2501V122.756H86.7701V124.436H82.0181V138.5H80.0021ZM89.6053 138.5V122.756H91.5973V138.5H89.6053ZM101.862 138.788C100.55 138.788 99.374 138.468 98.334 137.828C97.31 137.172 96.494 136.236 95.886 135.02C95.294 133.804 94.998 132.34 94.998 130.628C94.998 128.932 95.302 127.476 95.91 126.26C96.518 125.044 97.35 124.108 98.406 123.452C99.462 122.796 100.654 122.468 101.982 122.468C102.942 122.468 103.79 122.668 104.526 123.068C105.262 123.452 105.854 123.9 106.302 124.412L105.222 125.708C104.806 125.26 104.334 124.9 103.806 124.628C103.278 124.356 102.678 124.22 102.006 124.22C101.014 124.22 100.142 124.484 99.39 125.012C98.654 125.524 98.078 126.252 97.662 127.196C97.262 128.14 97.062 129.268 97.062 130.58C97.062 131.892 97.262 133.036 97.662 134.012C98.062 134.972 98.622 135.716 99.342 136.244C100.078 136.772 100.942 137.036 101.934 137.036C102.686 137.036 103.358 136.876 103.95 136.556C104.542 136.236 105.086 135.804 105.582 135.26L106.686 136.508C106.062 137.228 105.358 137.788 104.574 138.188C103.79 138.588 102.886 138.788 101.862 138.788ZM113.403 138.788C112.299 138.788 111.275 138.58 110.331 138.164C109.387 137.732 108.571 137.164 107.883 136.46L109.083 135.068C109.643 135.66 110.299 136.14 111.051 136.508C111.819 136.86 112.611 137.036 113.427 137.036C114.467 137.036 115.275 136.804 115.851 136.34C116.427 135.86 116.715 135.236 116.715 134.468C116.715 133.924 116.595 133.492 116.355 133.172C116.131 132.852 115.819 132.58 115.419 132.356C115.035 132.132 114.595 131.908 114.099 131.684L111.843 130.7C111.347 130.492 110.851 130.22 110.355 129.884C109.875 129.548 109.467 129.116 109.131 128.588C108.811 128.06 108.651 127.412 108.651 126.644C108.651 125.844 108.859 125.132 109.275 124.508C109.707 123.868 110.299 123.372 111.051 123.02C111.803 122.652 112.651 122.468 113.595 122.468C114.539 122.468 115.411 122.652 116.211 123.02C117.011 123.372 117.691 123.836 118.251 124.412L117.171 125.708C116.691 125.244 116.155 124.884 115.563 124.628C114.987 124.356 114.331 124.22 113.595 124.22C112.715 124.22 112.003 124.428 111.459 124.844C110.931 125.26 110.667 125.82 110.667 126.524C110.667 127.02 110.795 127.436 111.051 127.772C111.323 128.092 111.659 128.356 112.059 128.564C112.459 128.772 112.867 128.964 113.283 129.14L115.515 130.1C116.123 130.356 116.667 130.668 117.147 131.036C117.643 131.388 118.035 131.828 118.323 132.356C118.611 132.868 118.755 133.516 118.755 134.3C118.755 135.132 118.539 135.892 118.107 136.58C117.675 137.252 117.059 137.788 116.259 138.188C115.459 138.588 114.507 138.788 113.403 138.788Z" fill="#512D5D"/>
</g>
<defs>
<clipPath id="clip0_119_2023">
<rect width="132" height="143" fill="white"/>
</clipPath>
</defs>
</svg>
