<svg width="132" height="143" viewBox="0 0 132 143" fill="none" xmlns="http://www.w3.org/2000/svg">
<path d="M34.3531 10.2402C34.128 10.2402 33.9055 10.2871 33.6996 10.3779C33.4937 10.4686 33.3089 10.6013 33.1571 10.7674C33.0053 10.9335 32.8897 11.1294 32.8178 11.3426C32.7459 11.5558 32.7192 11.7817 32.7394 12.0058L38.441 75.8755C38.47 76.2017 38.597 76.5113 38.8054 76.7638C39.0138 77.0163 39.2938 77.1997 39.6086 77.2899L65.5444 84.697C65.835 84.7799 66.1429 84.7799 66.4335 84.697L92.3946 77.2899C92.7093 77.1997 92.9894 77.0163 93.1978 76.7638C93.4062 76.5113 93.5332 76.2017 93.5622 75.8755L99.2606 12.0058C99.2808 11.7817 99.2541 11.5558 99.1822 11.3426C99.1103 11.1294 98.9947 10.9335 98.8429 10.7674C98.6911 10.6013 98.5064 10.4686 98.3005 10.3779C98.0945 10.2871 97.872 10.2402 97.647 10.2402H34.3531ZM36.1249 13.4802H95.8751L90.4361 74.4802L65.9905 81.457L41.5703 74.4802L36.1249 13.4802ZM56.28 23.2002C55.8504 23.2003 55.4383 23.371 55.1345 23.6748C54.8307 23.9786 54.6601 24.3906 54.66 24.8202V54.9991L45.3735 52.4267C45.1329 52.3599 44.8802 52.3496 44.6351 52.3966C44.3899 52.4437 44.1589 52.5467 43.9601 52.6977C43.7614 52.8487 43.6002 53.0436 43.4891 53.2671C43.3781 53.4907 43.3202 53.7369 43.32 53.9866V61.998C43.3203 62.3519 43.4364 62.696 43.6507 62.9777C43.8649 63.2593 44.1655 63.4631 44.5065 63.5579L62.3265 68.5001C62.5671 68.5669 62.8198 68.5772 63.0649 68.5302C63.3101 68.4831 63.5411 68.3801 63.7399 68.2291C63.9387 68.0781 64.0999 67.8832 64.2109 67.6597C64.3219 67.4361 64.3798 67.1899 64.38 66.9402V24.8202C64.38 24.3906 64.2093 23.9786 63.9055 23.6748C63.6017 23.371 63.1896 23.2003 62.76 23.2002H56.28ZM69.24 23.2002C68.8104 23.2003 68.3983 23.371 68.0945 23.6748C67.7907 23.9786 67.62 24.3906 67.62 24.8202V52.3602C67.6198 52.5964 67.6713 52.8297 67.7708 53.0439C67.8702 53.2581 68.0153 53.4479 68.1959 53.6001C68.3764 53.7524 68.5881 53.8633 68.816 53.9251C69.0439 53.9869 69.2826 53.9982 69.5153 53.9581L78.8271 52.3539L78.6341 55.2237L68.8097 57.9258C68.4681 58.02 68.1668 58.2235 67.9519 58.5052C67.737 58.787 67.6205 59.1314 67.62 59.4857V66.9402C67.6198 67.1898 67.6773 67.436 67.788 67.6597C67.8986 67.8833 68.0595 68.0784 68.2579 68.2297C68.4564 68.381 68.6871 68.4844 68.9321 68.5319C69.1771 68.5793 69.4297 68.5695 69.6703 68.5033L85.8703 64.0483C86.1894 63.9602 86.4738 63.7766 86.6854 63.522C86.897 63.2675 87.0255 62.9542 87.0537 62.6245L88.7623 42.7795C88.7832 42.5366 88.7491 42.2922 88.6625 42.0644C88.5759 41.8366 88.439 41.6312 88.262 41.4637C88.085 41.2961 87.8725 41.1706 87.6402 41.0966C87.408 41.0225 87.1621 41.0019 86.9208 41.0361L77.34 42.3934V32.9202H88.12C88.5255 32.9201 88.9162 32.768 89.2149 32.4938C89.5137 32.2196 89.6988 31.8434 89.7336 31.4395L90.2937 24.9595C90.3129 24.7358 90.2855 24.5107 90.2132 24.2982C90.1409 24.0857 90.0252 23.8906 89.8734 23.7252C89.7217 23.5598 89.5373 23.4278 89.3319 23.3374C89.1264 23.247 88.9044 23.2003 88.68 23.2002H69.24ZM57.9 26.4402H61.14V64.8108L46.56 60.7671V56.116L55.8465 58.6915C56.0871 58.7583 56.3398 58.7686 56.5849 58.7216C56.8301 58.6745 57.0611 58.5715 57.2599 58.4205C57.4587 58.2695 57.6199 58.0746 57.7309 57.8511C57.8419 57.6275 57.8998 57.3813 57.9 57.1316V26.4402ZM70.86 26.4402H86.9145L86.6329 29.6802H75.72C75.2904 29.6803 74.8783 29.851 74.5745 30.1548C74.2707 30.4586 74.1 30.8706 74.1 31.3002V44.2602C74.1 44.4922 74.1498 44.7215 74.2461 44.9326C74.3424 45.1437 74.4828 45.3317 74.658 45.4838C74.8332 45.6359 75.0391 45.7486 75.2616 45.8142C75.4841 45.8799 75.7181 45.897 75.9478 45.8644L85.3609 44.5292L83.9213 61.2228L70.86 64.814V60.7229L80.6053 58.0429C80.9293 57.9537 81.2175 57.7661 81.4301 57.5059C81.6427 57.2457 81.7691 56.9258 81.7918 56.5906L82.1968 50.5156C82.2133 50.2709 82.174 50.0256 82.0819 49.7982C81.9898 49.5709 81.8473 49.3675 81.6651 49.2032C81.4829 49.039 81.2658 48.9183 81.0301 48.8502C80.7945 48.7821 80.5464 48.7684 80.3047 48.8102L70.86 50.4365V26.4402Z" fill="#512D5D"/>
<path d="M10.088 130.288C8.12 130.288 6.672 129.448 5.744 127.768L7.184 126.76C7.536 127.384 7.936 127.84 8.384 128.128C8.832 128.4 9.336 128.536 9.896 128.536C10.744 128.536 11.376 128.28 11.792 127.768C12.208 127.24 12.416 126.376 12.416 125.176V114.256H14.432V125.368C14.432 126.264 14.28 127.088 13.976 127.84C13.688 128.592 13.224 129.192 12.584 129.64C11.944 130.072 11.112 130.288 10.088 130.288ZM21.4033 121.192L20.6593 123.592H25.3873L24.6433 121.192C24.3553 120.312 24.0833 119.44 23.8273 118.576C23.5713 117.696 23.3153 116.8 23.0593 115.888H22.9633C22.7233 116.8 22.4753 117.696 22.2193 118.576C21.9633 119.44 21.6913 120.312 21.4033 121.192ZM16.6033 130L21.9313 114.256H24.1873L29.5153 130H27.3793L25.8913 125.2H20.1553L18.6433 130H16.6033ZM34.2978 130L29.2578 114.256H31.3938L33.9138 122.752C34.2018 123.68 34.4498 124.552 34.6578 125.368C34.8818 126.168 35.1458 127.032 35.4498 127.96H35.5458C35.8338 127.032 36.0898 126.168 36.3138 125.368C36.5378 124.552 36.7858 123.68 37.0578 122.752L39.5778 114.256H41.6178L36.6258 130H34.2978ZM46.1533 121.192L45.4093 123.592H50.1373L49.3933 121.192C49.1053 120.312 48.8333 119.44 48.5773 118.576C48.3213 117.696 48.0653 116.8 47.8093 115.888H47.7133C47.4733 116.8 47.2253 117.696 46.9693 118.576C46.7133 119.44 46.4413 120.312 46.1533 121.192ZM41.3533 130L46.6813 114.256H48.9373L54.2653 130H52.1293L50.6413 125.2H44.9053L43.3933 130H41.3533ZM60.8639 130.288C59.7599 130.288 58.7359 130.08 57.7919 129.664C56.8479 129.232 56.0319 128.664 55.3439 127.96L56.5439 126.568C57.1039 127.16 57.7599 127.64 58.5119 128.008C59.2799 128.36 60.0719 128.536 60.8879 128.536C61.9279 128.536 62.7359 128.304 63.3119 127.84C63.8879 127.36 64.1759 126.736 64.1759 125.968C64.1759 125.424 64.0559 124.992 63.8159 124.672C63.5919 124.352 63.2799 124.08 62.8799 123.856C62.4959 123.632 62.0559 123.408 61.5599 123.184L59.3039 122.2C58.8079 121.992 58.3119 121.72 57.8159 121.384C57.3359 121.048 56.9279 120.616 56.5919 120.088C56.2719 119.56 56.1119 118.912 56.1119 118.144C56.1119 117.344 56.3199 116.632 56.7359 116.008C57.1679 115.368 57.7599 114.872 58.5119 114.52C59.2639 114.152 60.1119 113.968 61.0559 113.968C61.9999 113.968 62.8719 114.152 63.6719 114.52C64.4719 114.872 65.1519 115.336 65.7119 115.912L64.6319 117.208C64.1519 116.744 63.6159 116.384 63.0239 116.128C62.4479 115.856 61.7919 115.72 61.0559 115.72C60.1759 115.72 59.4639 115.928 58.9199 116.344C58.3919 116.76 58.1279 117.32 58.1279 118.024C58.1279 118.52 58.2559 118.936 58.5119 119.272C58.7839 119.592 59.1199 119.856 59.5199 120.064C59.9199 120.272 60.3279 120.464 60.7439 120.64L62.9759 121.6C63.5839 121.856 64.1279 122.168 64.6079 122.536C65.1039 122.888 65.4959 123.328 65.7839 123.856C66.0719 124.368 66.2159 125.016 66.2159 125.8C66.2159 126.632 65.9999 127.392 65.5679 128.08C65.1359 128.752 64.5199 129.288 63.7199 129.688C62.9199 130.088 61.9679 130.288 60.8639 130.288ZM75.2683 130.288C73.9563 130.288 72.7803 129.968 71.7403 129.328C70.7163 128.672 69.9003 127.736 69.2923 126.52C68.7003 125.304 68.4043 123.84 68.4043 122.128C68.4043 120.432 68.7083 118.976 69.3163 117.76C69.9243 116.544 70.7563 115.608 71.8123 114.952C72.8683 114.296 74.0603 113.968 75.3883 113.968C76.3483 113.968 77.1963 114.168 77.9323 114.568C78.6683 114.952 79.2603 115.4 79.7083 115.912L78.6283 117.208C78.2123 116.76 77.7403 116.4 77.2123 116.128C76.6843 115.856 76.0843 115.72 75.4123 115.72C74.4203 115.72 73.5483 115.984 72.7963 116.512C72.0603 117.024 71.4843 117.752 71.0683 118.696C70.6683 119.64 70.4683 120.768 70.4683 122.08C70.4683 123.392 70.6683 124.536 71.0683 125.512C71.4683 126.472 72.0283 127.216 72.7483 127.744C73.4843 128.272 74.3483 128.536 75.3403 128.536C76.0923 128.536 76.7643 128.376 77.3563 128.056C77.9483 127.736 78.4923 127.304 78.9883 126.76L80.0923 128.008C79.4683 128.728 78.7643 129.288 77.9803 129.688C77.1963 130.088 76.2923 130.288 75.2683 130.288ZM83.0272 130V114.256H87.9472C89.0192 114.256 89.9712 114.4 90.8032 114.688C91.6352 114.96 92.2832 115.424 92.7472 116.08C93.2272 116.72 93.4672 117.584 93.4672 118.672C93.4672 119.888 93.1472 120.872 92.5072 121.624C91.8672 122.36 91.0032 122.864 89.9152 123.136L93.9232 130H91.6672L87.8752 123.352H85.0192V130H83.0272ZM85.0192 121.72H87.6592C88.8912 121.72 89.8352 121.472 90.4912 120.976C91.1472 120.464 91.4752 119.696 91.4752 118.672C91.4752 117.632 91.1472 116.904 90.4912 116.488C89.8352 116.072 88.8912 115.864 87.6592 115.864H85.0192V121.72ZM96.6913 130V114.256H98.6833V130H96.6913ZM102.996 130V114.256H107.484C108.668 114.256 109.7 114.4 110.58 114.688C111.46 114.976 112.148 115.464 112.644 116.152C113.14 116.824 113.388 117.736 113.388 118.888C113.388 120.536 112.852 121.76 111.78 122.56C110.708 123.36 109.308 123.76 107.58 123.76H104.988V130H102.996ZM104.988 122.128H107.34C108.716 122.128 109.732 121.872 110.388 121.36C111.06 120.832 111.396 120.008 111.396 118.888C111.396 117.752 111.044 116.968 110.34 116.536C109.652 116.088 108.62 115.864 107.244 115.864H104.988V122.128ZM119.268 130V115.936H114.516V114.256H126.036V115.936H121.284V130H119.268Z" fill="#512D5D"/>
</svg>
