<svg width="132" height="129" viewBox="0 0 132 129" fill="none" xmlns="http://www.w3.org/2000/svg">
<path d="M46.7 0.5C38.319 0.5 31.5 7.31895 31.5 15.7V61.3C31.5 69.681 38.319 76.5 46.7 76.5H92.3C100.681 76.5 107.5 69.681 107.5 61.3V15.7C107.5 7.31895 100.681 0.5 92.3 0.5H46.7ZM46.7 2.83846H92.3C99.3914 2.83846 105.162 8.60862 105.162 15.7V61.3C105.162 68.3914 99.3914 74.1615 92.3 74.1615H46.7C39.6086 74.1615 33.8385 68.3914 33.8385 61.3V15.7C33.8385 8.60862 39.6086 2.83846 46.7 2.83846ZM50.0159 6.34615C43.0285 6.34615 37.3439 12.0285 37.3439 19.0159V57.9819C37.3439 64.9692 43.0285 70.6538 50.0159 70.6538H88.9819C95.9692 70.6538 101.652 64.9692 101.652 57.9819V36.1615C101.653 35.8388 101.392 35.5769 101.069 35.5769C100.747 35.5769 100.485 35.8388 100.485 36.1615V57.9819C100.485 64.3238 95.3238 69.4846 88.9819 69.4846H50.0159C43.674 69.4846 38.5131 64.3238 38.5131 57.9819V19.0159C38.5131 12.674 43.674 7.51538 50.0159 7.51538H89.3746C89.6973 7.51538 89.9593 7.25348 89.9593 6.93077C89.9593 6.60806 89.6973 6.34615 89.3746 6.34615H50.0159ZM101.069 22.7154C100.747 22.7154 100.485 22.9773 100.485 23.3V25.6385C100.485 25.9612 100.747 26.2231 101.069 26.2231C101.392 26.2231 101.654 25.9612 101.654 25.6385V23.3C101.654 22.9773 101.392 22.7154 101.069 22.7154ZM83.6998 23.131C82.8018 23.131 82.0684 23.4366 81.5212 24.0376C80.9868 24.6234 80.715 25.323 80.715 26.1157C80.715 26.9108 80.9857 27.6081 81.5189 28.1916C82.0661 28.7937 82.7995 29.0982 83.6975 29.0982C84.5943 29.0982 85.3277 28.7926 85.8761 28.1916C86.4104 27.607 86.6822 26.9085 86.6822 26.1157C86.6834 25.3242 86.4116 24.6234 85.8761 24.0376C85.3277 23.4355 84.5966 23.131 83.6998 23.131ZM63.6927 23.8846C63.453 23.8846 63.2391 24.0301 63.1514 24.2523L51.9844 52.3138C51.9119 52.4927 51.935 52.6971 52.0438 52.8573C52.1525 53.0187 52.3338 53.1154 52.5279 53.1154H56.1794C56.4238 53.1154 56.6422 52.962 56.7275 52.734L59.1984 46.1H71.9412L74.4555 52.7363C74.5421 52.9631 74.7581 53.1154 75.0013 53.1154H78.6529C78.847 53.1154 79.0283 53.0187 79.137 52.8573C79.2458 52.6971 79.2677 52.4927 79.1964 52.3138L68.0293 24.2523C67.9405 24.0301 67.7243 23.8846 67.4858 23.8846H63.6927ZM83.6998 24.3002C84.2622 24.3002 84.6924 24.4724 85.0151 24.8255C85.3519 25.1938 85.5153 25.6165 85.5153 26.1157C85.5153 26.615 85.3519 27.0377 85.0151 27.406C84.6924 27.7591 84.2622 27.9313 83.6998 27.9313C83.1374 27.9313 82.7071 27.7592 82.3844 27.4037C82.0476 27.0378 81.8843 26.6162 81.8843 26.1157C81.8843 25.6153 82.0476 25.195 82.3844 24.8255C82.7059 24.4712 83.1374 24.3002 83.6998 24.3002ZM64.09 25.0538H67.0907L77.7897 51.9462H75.4055L72.8912 45.3076C72.8047 45.0807 72.5886 44.9308 72.3454 44.9308H58.7919C58.5476 44.9308 58.3292 45.0819 58.2439 45.3099L55.773 51.9462H53.3911L64.09 25.0538ZM65.5904 26.8557C65.3586 26.8557 65.1277 26.969 65.0423 27.1982L59.6529 41.8044C59.5862 41.9833 59.6138 42.1833 59.7237 42.3411C59.8324 42.4978 60.0104 42.5923 60.201 42.5923H70.9775C71.1693 42.5923 71.3484 42.4978 71.4571 42.3411C71.567 42.1833 71.5922 41.9833 71.5256 41.8044L66.1385 27.1982C66.0531 26.969 65.8222 26.8557 65.5904 26.8557ZM101.069 27.3923C100.747 27.3923 100.485 27.6542 100.485 27.9769V32.6538C100.485 32.9766 100.747 33.2385 101.069 33.2385C101.392 33.2385 101.654 32.9766 101.654 32.6538V27.9769C101.654 27.6542 101.392 27.3923 101.069 27.3923ZM65.5904 29.0891L70.1394 41.4231H61.0413L65.5904 29.0891ZM82.3615 32.0692C82.0388 32.0692 81.7769 32.3311 81.7769 32.6538V52.5308C81.7769 52.8535 82.0388 53.1154 82.3615 53.1154H85.8692C86.1919 53.1154 86.4538 52.8535 86.4538 52.5308V32.6538C86.4538 32.3311 86.1919 32.0692 85.8692 32.0692H82.3615ZM82.9462 33.2385H85.2846V51.9462H82.9462V33.2385Z" fill="#512D5D"/>
<path d="M8.87453 122.5V108.068H10.7005V122.5H8.87453ZM14.6538 122.5V108.068H16.4798V120.938H22.7938V122.5H14.6538ZM25.353 122.5V108.068H27.179V120.938H33.493V122.5H25.353ZM40.5337 122.764C39.5511 122.764 38.6637 122.566 37.8717 122.17C37.0944 121.774 36.4784 121.121 36.0237 120.212C35.5691 119.303 35.3417 118.078 35.3417 116.538V108.068H37.1677V116.582C37.1677 117.741 37.3144 118.657 37.6077 119.332C37.9157 119.992 38.3191 120.461 38.8177 120.74C39.3311 121.019 39.9031 121.158 40.5337 121.158C41.1791 121.158 41.7584 121.019 42.2717 120.74C42.7851 120.461 43.1884 119.992 43.4817 119.332C43.7897 118.657 43.9437 117.741 43.9437 116.582V108.068H45.7037V116.538C45.7037 118.078 45.4764 119.303 45.0217 120.212C44.5671 121.121 43.9511 121.774 43.1737 122.17C42.3964 122.566 41.5164 122.764 40.5337 122.764ZM53.3766 122.764C52.3646 122.764 51.4259 122.573 50.5606 122.192C49.6952 121.796 48.9472 121.275 48.3166 120.63L49.4166 119.354C49.9299 119.897 50.5312 120.337 51.2206 120.674C51.9246 120.997 52.6506 121.158 53.3986 121.158C54.3519 121.158 55.0926 120.945 55.6206 120.52C56.1486 120.08 56.4126 119.508 56.4126 118.804C56.4126 118.305 56.3026 117.909 56.0826 117.616C55.8772 117.323 55.5912 117.073 55.2246 116.868C54.8726 116.663 54.4692 116.457 54.0146 116.252L51.9466 115.35C51.4919 115.159 51.0372 114.91 50.5826 114.602C50.1426 114.294 49.7686 113.898 49.4606 113.414C49.1672 112.93 49.0206 112.336 49.0206 111.632C49.0206 110.899 49.2112 110.246 49.5926 109.674C49.9886 109.087 50.5312 108.633 51.2206 108.31C51.9099 107.973 52.6872 107.804 53.5526 107.804C54.4179 107.804 55.2172 107.973 55.9506 108.31C56.6839 108.633 57.3072 109.058 57.8206 109.586L56.8306 110.774C56.3906 110.349 55.8992 110.019 55.3566 109.784C54.8286 109.535 54.2272 109.41 53.5526 109.41C52.7459 109.41 52.0932 109.601 51.5946 109.982C51.1106 110.363 50.8686 110.877 50.8686 111.522C50.8686 111.977 50.9859 112.358 51.2206 112.666C51.4699 112.959 51.7779 113.201 52.1446 113.392C52.5112 113.583 52.8852 113.759 53.2666 113.92L55.3126 114.8C55.8699 115.035 56.3686 115.321 56.8086 115.658C57.2632 115.981 57.6226 116.384 57.8866 116.868C58.1506 117.337 58.2826 117.931 58.2826 118.65C58.2826 119.413 58.0846 120.109 57.6886 120.74C57.2926 121.356 56.7279 121.847 55.9946 122.214C55.2612 122.581 54.3886 122.764 53.3766 122.764ZM63.6868 122.5V109.608H59.3308V108.068H69.8908V109.608H65.5348V122.5H63.6868ZM72.4898 122.5V108.068H76.9998C77.9824 108.068 78.8551 108.2 79.6178 108.464C80.3804 108.713 80.9744 109.139 81.3998 109.74C81.8398 110.327 82.0598 111.119 82.0598 112.116C82.0598 113.231 81.7664 114.133 81.1798 114.822C80.5931 115.497 79.8011 115.959 78.8038 116.208L82.4778 122.5H80.4098L76.9338 116.406H74.3158V122.5H72.4898ZM74.3158 114.91H76.7358C77.8651 114.91 78.7304 114.683 79.3318 114.228C79.9331 113.759 80.2338 113.055 80.2338 112.116C80.2338 111.163 79.9331 110.495 79.3318 110.114C78.7304 109.733 77.8651 109.542 76.7358 109.542H74.3158V114.91ZM87.4152 114.426L86.7332 116.626H91.0672L90.3852 114.426C90.1212 113.619 89.8719 112.82 89.6372 112.028C89.4026 111.221 89.1679 110.4 88.9332 109.564H88.8452C88.6252 110.4 88.3979 111.221 88.1632 112.028C87.9286 112.82 87.6792 113.619 87.4152 114.426ZM83.0152 122.5L87.8992 108.068H89.9672L94.8512 122.5H92.8932L91.5292 118.1H86.2712L84.8852 122.5H83.0152ZM98.6849 122.5V109.608H94.3289V108.068H104.889V109.608H100.533V122.5H98.6849ZM112.275 122.764C111.072 122.764 110.001 122.456 109.063 121.84C108.139 121.224 107.413 120.351 106.885 119.222C106.371 118.093 106.115 116.758 106.115 115.218C106.115 113.678 106.371 112.358 106.885 111.258C107.413 110.143 108.139 109.293 109.063 108.706C110.001 108.105 111.072 107.804 112.275 107.804C113.492 107.804 114.563 108.105 115.487 108.706C116.411 109.293 117.137 110.143 117.665 111.258C118.193 112.358 118.457 113.678 118.457 115.218C118.457 116.758 118.193 118.093 117.665 119.222C117.137 120.351 116.411 121.224 115.487 121.84C114.563 122.456 113.492 122.764 112.275 122.764ZM112.275 121.158C113.14 121.158 113.888 120.916 114.519 120.432C115.164 119.933 115.663 119.244 116.015 118.364C116.367 117.469 116.543 116.421 116.543 115.218C116.543 113.429 116.154 112.013 115.377 110.972C114.599 109.931 113.565 109.41 112.275 109.41C110.984 109.41 109.95 109.931 109.173 110.972C108.395 112.013 108.007 113.429 108.007 115.218C108.007 116.421 108.183 117.469 108.535 118.364C108.887 119.244 109.385 119.933 110.031 120.432C110.676 120.916 111.424 121.158 112.275 121.158ZM121.56 122.5V108.068H126.07C127.053 108.068 127.925 108.2 128.688 108.464C129.451 108.713 130.045 109.139 130.47 109.74C130.91 110.327 131.13 111.119 131.13 112.116C131.13 113.231 130.837 114.133 130.25 114.822C129.663 115.497 128.871 115.959 127.874 116.208L131.548 122.5H129.48L126.004 116.406H123.386V122.5H121.56ZM123.386 114.91H125.806C126.935 114.91 127.801 114.683 128.402 114.228C129.003 113.759 129.304 113.055 129.304 112.116C129.304 111.163 129.003 110.495 128.402 110.114C127.801 109.733 126.935 109.542 125.806 109.542H123.386V114.91Z" fill="#512D5D"/>
</svg>
