<svg width="132" height="143" viewBox="0 0 132 143" fill="none" xmlns="http://www.w3.org/2000/svg">
<path d="M69.98 11.9609C63.2734 11.9609 57.8 17.4344 57.8 24.1409C57.8 25.3489 57.9902 26.5144 58.3199 27.6209H31.7C28.8377 27.6209 26.48 29.9787 26.48 32.8409V64.1609C26.48 67.0232 28.8377 69.3809 31.7 69.3809H50.9283C51.8118 79.1186 60.0168 86.7809 69.98 86.7809C78.8875 86.7809 86.0592 80.5327 88.182 72.2764C90.2396 73.628 92.5728 74.6009 95.21 74.6009C102.397 74.6009 108.26 68.7378 108.26 61.5509V41.5409C108.26 41.0795 108.077 40.6369 107.75 40.3106C107.424 39.9843 106.981 39.801 106.52 39.8009H87.38H68.24V36.1884C68.8101 36.2704 69.389 36.3209 69.98 36.3209C76.6865 36.3209 82.16 30.8475 82.16 24.1409C82.16 17.4344 76.6865 11.9609 69.98 11.9609ZM69.98 15.4409C74.8062 15.4409 78.68 19.3148 78.68 24.1409C78.68 28.9671 74.8062 32.8409 69.98 32.8409C69.3733 32.8409 68.7889 32.7638 68.2196 32.6472C68.114 29.875 65.816 27.6209 63.02 27.6209H62.014C61.547 26.5565 61.28 25.3866 61.28 24.1409C61.28 19.3148 65.1538 15.4409 69.98 15.4409ZM96.08 18.9209C93.325 18.9209 91.0373 20.0167 89.5584 21.6805C88.0795 23.3442 87.38 25.4943 87.38 27.6209C87.38 29.7476 88.0795 31.8977 89.5584 33.5614C91.0373 35.2252 93.325 36.3209 96.08 36.3209C98.835 36.3209 101.123 35.2252 102.602 33.5614C104.08 31.8977 104.78 29.7476 104.78 27.6209C104.78 25.4943 104.08 23.3442 102.602 21.6805C101.123 20.0167 98.835 18.9209 96.08 18.9209ZM96.08 22.4009C97.965 22.4009 99.1573 23.0452 99.9984 23.9914C100.839 24.9377 101.3 26.2676 101.3 27.6209C101.3 28.9743 100.839 30.3042 99.9984 31.2505C99.1573 32.1967 97.965 32.8409 96.08 32.8409C94.195 32.8409 93.0027 32.1967 92.1616 31.2505C91.3205 30.3042 90.86 28.9743 90.86 27.6209C90.86 26.2676 91.3205 24.9376 92.1616 23.9914C93.0027 23.0452 94.195 22.4009 96.08 22.4009ZM31.7 31.1009H60.8586H63.02C64.0031 31.1009 64.76 31.8578 64.76 32.8409V33.4764C64.669 33.7917 64.669 34.1263 64.76 34.4416V41.2487C64.7289 41.4366 64.7289 41.6283 64.76 41.8162V64.1609C64.76 65.1441 64.0031 65.9009 63.02 65.9009H52.8722C52.6843 65.8699 52.4926 65.8699 52.3047 65.9009H31.7C30.7168 65.9009 29.96 65.1441 29.96 64.1609V32.8409C29.96 31.8578 30.7168 31.1009 31.7 31.1009ZM38.66 38.0609V41.5409H45.62V58.9409H49.1V41.5409H56.06V38.0609H38.66ZM68.24 43.2809H85.64V67.6409C85.64 76.3106 78.6497 83.3009 69.98 83.3009C61.8994 83.3009 55.2846 77.2259 54.4219 69.3809H63.02C65.8822 69.3809 68.24 67.0232 68.24 64.1609V43.2809ZM89.12 43.2809H104.78V61.5509C104.78 66.8573 100.516 71.1209 95.21 71.1209C92.7689 71.1209 90.6014 70.1656 88.9127 68.6707C88.9329 68.3108 89.12 68.0058 89.12 67.6409V43.2809Z" fill="#512D5D"/>
<path d="M37.506 133V118.936H32.754V117.256H44.274V118.936H39.522V133H37.506ZM47.1092 133V117.256H56.1812V118.936H49.1012V123.88H55.0772V125.584H49.1012V131.296H56.4212V133H47.1092ZM62.4775 124.192L61.7335 126.592H66.4615L65.7175 124.192C65.4295 123.312 65.1575 122.44 64.9015 121.576C64.6455 120.696 64.3895 119.8 64.1335 118.888H64.0375C63.7975 119.8 63.5495 120.696 63.2935 121.576C63.0375 122.44 62.7655 123.312 62.4775 124.192ZM57.6775 133L63.0055 117.256H65.2615L70.5895 133H68.4535L66.9655 128.2H61.2295L59.7175 133H57.6775ZM72.8202 133V117.256H75.2202L78.2442 125.656C78.4362 126.2 78.6202 126.752 78.7962 127.312C78.9882 127.856 79.1802 128.4 79.3722 128.944H79.4682C79.6602 128.4 79.8362 127.856 79.9962 127.312C80.1722 126.752 80.3562 126.2 80.5482 125.656L83.5242 117.256H85.9482V133H84.0762V124.336C84.0762 123.632 84.1082 122.856 84.1722 122.008C84.2362 121.144 84.2922 120.368 84.3402 119.68H84.2442L82.9962 123.256L80.0202 131.416H78.7002L75.7242 123.256L74.4762 119.68H74.3802C74.4282 120.368 74.4762 121.144 74.5242 122.008C74.5882 122.856 74.6202 123.632 74.6202 124.336V133H72.8202ZM94.6257 133.288C93.5217 133.288 92.4977 133.08 91.5537 132.664C90.6097 132.232 89.7937 131.664 89.1057 130.96L90.3057 129.568C90.8657 130.16 91.5217 130.64 92.2737 131.008C93.0417 131.36 93.8337 131.536 94.6497 131.536C95.6897 131.536 96.4977 131.304 97.0737 130.84C97.6497 130.36 97.9377 129.736 97.9377 128.968C97.9377 128.424 97.8177 127.992 97.5777 127.672C97.3537 127.352 97.0417 127.08 96.6417 126.856C96.2577 126.632 95.8177 126.408 95.3217 126.184L93.0657 125.2C92.5697 124.992 92.0737 124.72 91.5777 124.384C91.0977 124.048 90.6897 123.616 90.3537 123.088C90.0337 122.56 89.8737 121.912 89.8737 121.144C89.8737 120.344 90.0817 119.632 90.4977 119.008C90.9297 118.368 91.5217 117.872 92.2737 117.52C93.0257 117.152 93.8737 116.968 94.8177 116.968C95.7617 116.968 96.6337 117.152 97.4337 117.52C98.2337 117.872 98.9137 118.336 99.4737 118.912L98.3937 120.208C97.9137 119.744 97.3777 119.384 96.7857 119.128C96.2097 118.856 95.5537 118.72 94.8177 118.72C93.9377 118.72 93.2257 118.928 92.6817 119.344C92.1537 119.76 91.8897 120.32 91.8897 121.024C91.8897 121.52 92.0177 121.936 92.2737 122.272C92.5457 122.592 92.8817 122.856 93.2817 123.064C93.6817 123.272 94.0897 123.464 94.5057 123.64L96.7377 124.6C97.3457 124.856 97.8897 125.168 98.3697 125.536C98.8657 125.888 99.2577 126.328 99.5457 126.856C99.8337 127.368 99.9777 128.016 99.9777 128.8C99.9777 129.632 99.7617 130.392 99.3297 131.08C98.8977 131.752 98.2817 132.288 97.4817 132.688C96.6817 133.088 95.7297 133.288 94.6257 133.288Z" fill="#512D5D"/>
</svg>
