<svg width="132" height="143" viewBox="0 0 132 143" fill="none" xmlns="http://www.w3.org/2000/svg">
<path d="M66.5 20.5195C61.3862 20.5195 57.9163 21.7402 55.7113 23.512C53.5063 25.2839 52.64 27.5627 52.64 29.4577V35.6395H65.24V36.8995H46.4581C44.1547 36.8995 41.8168 37.8987 40.1581 40.0102C38.4995 42.1216 37.52 45.2716 37.52 49.4995C37.52 53.7274 38.4995 56.8774 40.1581 58.9889C41.8168 61.1004 44.1547 62.0995 46.4581 62.0995H52.64V69.5414C52.64 71.4363 53.5063 73.7152 55.7113 75.487C57.9163 77.2589 61.3862 78.4795 66.5 78.4795C71.6138 78.4795 75.0838 77.2589 77.2888 75.487C79.4938 73.7152 80.36 71.4363 80.36 69.5414V63.3595H67.76V62.0995H86.5419C88.8453 62.0995 91.1832 61.1004 92.8419 58.9889C94.5006 56.8774 95.48 53.7274 95.48 49.4995C95.48 45.2716 94.5006 42.1216 92.8419 40.0102C91.1832 37.8987 88.8453 36.8995 86.5419 36.8995H80.36V29.4577C80.36 27.5135 79.4987 25.2298 77.2888 23.4727C75.0788 21.7155 71.6089 20.5195 66.5 20.5195ZM66.5 23.0395C71.2201 23.0395 74.0797 24.142 75.7138 25.4414C77.3478 26.7408 77.84 28.2518 77.84 29.4577V44.4595C77.84 46.5464 76.1469 48.2395 74.06 48.2395H58.94C56.3462 48.2395 54.1117 49.8391 53.1519 52.0983C52.9895 52.4723 52.8418 52.871 52.7581 53.2795C52.6745 53.688 52.64 54.1064 52.64 54.5395V59.5795H46.4581C44.8585 59.5795 43.3771 58.9545 42.1663 57.4139C40.9555 55.8734 40.04 53.3337 40.04 49.4995C40.04 45.6654 40.9555 43.1257 42.1663 41.5852C43.3771 40.0446 44.8585 39.4195 46.4581 39.4195H67.76V33.1195H55.16V29.4577C55.16 28.3305 55.6473 26.7949 57.2863 25.4808C58.9253 24.1666 61.7849 23.0395 66.5 23.0395ZM60.2 26.8195C58.8121 26.8195 57.68 27.9516 57.68 29.3395C57.68 30.7275 58.8121 31.8595 60.2 31.8595C61.588 31.8595 62.72 30.7275 62.72 29.3395C62.72 27.9516 61.588 26.8195 60.2 26.8195ZM80.36 39.4195H86.5419C88.1415 39.4195 89.623 40.0446 90.8338 41.5852C92.0446 43.1257 92.96 45.6654 92.96 49.4995C92.96 53.3337 92.0446 55.8734 90.8338 57.4139C89.623 58.9545 88.1415 59.5795 86.5419 59.5795H65.24V65.8795H77.84V69.5414C77.84 70.6685 77.3528 72.2041 75.7138 73.5183C74.0748 74.8324 71.2152 75.9595 66.5 75.9595C61.7849 75.9595 58.9253 74.8324 57.2863 73.5183C55.6473 72.2041 55.16 70.6685 55.16 69.5414V54.5395C55.16 54.2787 55.1896 54.0375 55.2388 53.7914C55.5931 52.0688 57.114 50.7595 58.94 50.7595H74.06C77.5201 50.7595 80.36 47.9196 80.36 44.4595V39.4195ZM72.8 67.1395C71.4121 67.1395 70.28 68.2716 70.28 69.6595C70.28 71.0475 71.4121 72.1795 72.8 72.1795C74.188 72.1795 75.32 71.0475 75.32 69.6595C75.32 68.2716 74.188 67.1395 72.8 67.1395Z" fill="#512D5D"/>
<path d="M26.4373 120V104.256H30.9253C32.1093 104.256 33.1413 104.4 34.0213 104.688C34.9013 104.976 35.5893 105.464 36.0853 106.152C36.5813 106.824 36.8293 107.736 36.8293 108.888C36.8293 110.536 36.2933 111.76 35.2213 112.56C34.1493 113.36 32.7493 113.76 31.0213 113.76H28.4293V120H26.4373ZM28.4293 112.128H30.7813C32.1573 112.128 33.1733 111.872 33.8293 111.36C34.5013 110.832 34.8373 110.008 34.8373 108.888C34.8373 107.752 34.4853 106.968 33.7813 106.536C33.0933 106.088 32.0613 105.864 30.6853 105.864H28.4293V112.128ZM42.3407 120V113.904L37.6127 104.256H39.7487L41.7887 108.696C42.0447 109.272 42.2927 109.84 42.5327 110.4C42.7887 110.96 43.0447 111.536 43.3007 112.128H43.3967C43.6687 111.536 43.9407 110.96 44.2127 110.4C44.4847 109.84 44.7407 109.272 44.9807 108.696L46.9967 104.256H49.0847L44.3567 113.904V120H42.3407ZM54.1467 120V105.936H49.3947V104.256H60.9147V105.936H56.1627V120H54.1467ZM63.7498 120V104.256H65.7418V110.856H73.0618V104.256H75.0778V120H73.0618V112.584H65.7418V120H63.7498ZM85.2141 120.288C83.9021 120.288 82.7341 119.952 81.7101 119.28C80.7021 118.608 79.9101 117.656 79.3341 116.424C78.7741 115.192 78.4941 113.736 78.4941 112.056C78.4941 110.376 78.7741 108.936 79.3341 107.736C79.9101 106.52 80.7021 105.592 81.7101 104.952C82.7341 104.296 83.9021 103.968 85.2141 103.968C86.5421 103.968 87.7101 104.296 88.7181 104.952C89.7261 105.592 90.5181 106.52 91.0941 107.736C91.6701 108.936 91.9581 110.376 91.9581 112.056C91.9581 113.736 91.6701 115.192 91.0941 116.424C90.5181 117.656 89.7261 118.608 88.7181 119.28C87.7101 119.952 86.5421 120.288 85.2141 120.288ZM85.2141 118.536C86.1581 118.536 86.9741 118.272 87.6621 117.744C88.3661 117.2 88.9101 116.448 89.2941 115.488C89.6781 114.512 89.8701 113.368 89.8701 112.056C89.8701 110.104 89.4461 108.56 88.5981 107.424C87.7501 106.288 86.6221 105.72 85.2141 105.72C83.8061 105.72 82.6781 106.288 81.8301 107.424C80.9821 108.56 80.5581 110.104 80.5581 112.056C80.5581 113.368 80.7501 114.512 81.1341 115.488C81.5181 116.448 82.0621 117.2 82.7661 117.744C83.4701 118.272 84.2861 118.536 85.2141 118.536ZM95.3436 120V104.256H97.4076L103.096 114.144L104.8 117.408H104.896C104.848 116.608 104.792 115.784 104.728 114.936C104.68 114.072 104.656 113.224 104.656 112.392V104.256H106.552V120H104.488L98.7756 110.088L97.0716 106.848H96.9756C97.0396 107.632 97.0956 108.44 97.1436 109.272C97.2076 110.104 97.2396 110.936 97.2396 111.768V120H95.3436Z" fill="#512D5D"/>
</svg>
