<svg width="132" height="143" viewBox="0 0 132 143" fill="none" xmlns="http://www.w3.org/2000/svg">
<path d="M47.625 15L52.1572 20.009C52.1966 20.0537 55.9758 24.4214 55.3616 29.5349C54.9705 32.8004 52.8407 35.8173 49.0554 38.4712C37.9281 46.0102 34.5534 56.1516 39.1655 65.9927C42.6358 73.4004 50.2429 78 58.4224 78H63.1853L60.2014 73.7703C57.8179 70.6885 57.863 67.1667 58.4326 64.5417C62.4883 67.6104 67.2251 67.2185 70.5169 65.1211C73.5382 63.1943 75.6755 59.7246 75.7464 55.585C76.4236 56.656 76.9829 57.9032 77.3819 59.2866C78.5421 63.3055 78.4008 69.4354 74.1929 73.4832L69.8093 78H73.9417C76.2805 78 78.6274 77.5629 80.7195 76.5234C87.2531 73.2816 91.6623 67.3597 93.9881 58.7996C95.8807 51.8302 94.6715 42.6253 90.6658 35.4617C81.3759 18.7903 55.4975 15.7821 54.4029 15.6614L47.625 15ZM59.3145 21.865C66.9453 23.5817 80.4752 27.9505 86.0874 38.02C89.4028 43.9446 90.4823 51.4022 88.9072 57.4922C87.6026 62.5873 85.5512 66.3938 82.6165 69.074C83.6534 65.1417 83.3665 61.0908 82.4268 57.8306C80.7074 51.8771 76.6316 47.5591 71.7832 46.5564L66 45.3464L68.9993 50.4683C71.7844 55.1513 70.2748 59.0482 67.697 60.6914C65.6417 62.0013 62.2824 62.1279 59.5708 58.1484L57.0689 54.4724L55.0591 58.4407C54.3635 59.8135 51.6686 65.7441 53.4851 71.9758C49.6526 70.7316 45.7803 67.9493 43.7696 63.4343C39.5144 53.8846 45.8996 46.9512 52.0342 42.7932C57.1477 39.2101 60.0268 34.9393 60.586 30.104C60.9482 26.9776 60.2568 24.133 59.3145 21.865Z" fill="#512D5D"/>
<path d="M26.6092 136.5V120.756H28.6012V127.356H35.9212V120.756H37.9372V136.5H35.9212V129.084H28.6012V136.5H26.6092ZM48.0735 136.788C46.7615 136.788 45.5935 136.452 44.5695 135.78C43.5615 135.108 42.7695 134.156 42.1935 132.924C41.6335 131.692 41.3535 130.236 41.3535 128.556C41.3535 126.876 41.6335 125.436 42.1935 124.236C42.7695 123.02 43.5615 122.092 44.5695 121.452C45.5935 120.796 46.7615 120.468 48.0735 120.468C49.4015 120.468 50.5695 120.796 51.5775 121.452C52.5855 122.092 53.3775 123.02 53.9535 124.236C54.5295 125.436 54.8175 126.876 54.8175 128.556C54.8175 130.236 54.5295 131.692 53.9535 132.924C53.3775 134.156 52.5855 135.108 51.5775 135.78C50.5695 136.452 49.4015 136.788 48.0735 136.788ZM48.0735 135.036C49.0175 135.036 49.8335 134.772 50.5215 134.244C51.2255 133.7 51.7695 132.948 52.1535 131.988C52.5375 131.012 52.7295 129.868 52.7295 128.556C52.7295 126.604 52.3055 125.06 51.4575 123.924C50.6095 122.788 49.4815 122.22 48.0735 122.22C46.6655 122.22 45.5375 122.788 44.6895 123.924C43.8415 125.06 43.4175 126.604 43.4175 128.556C43.4175 129.868 43.6095 131.012 43.9935 131.988C44.3775 132.948 44.9215 133.7 45.6255 134.244C46.3295 134.772 47.1455 135.036 48.0735 135.036ZM60.881 136.5V122.436H56.129V120.756H67.649V122.436H62.897V136.5H60.881ZM70.3888 136.788C68.4208 136.788 66.9728 135.948 66.0448 134.268L67.4848 133.26C67.8368 133.884 68.2368 134.34 68.6848 134.628C69.1328 134.9 69.6368 135.036 70.1968 135.036C71.0448 135.036 71.6768 134.78 72.0928 134.268C72.5088 133.74 72.7168 132.876 72.7168 131.676V120.756H74.7328V131.868C74.7328 132.764 74.5808 133.588 74.2768 134.34C73.9888 135.092 73.5248 135.692 72.8848 136.14C72.2448 136.572 71.4128 136.788 70.3888 136.788ZM81.704 127.692L80.96 130.092H85.688L84.944 127.692C84.656 126.812 84.384 125.94 84.128 125.076C83.872 124.196 83.616 123.3 83.36 122.388H83.264C83.024 123.3 82.776 124.196 82.52 125.076C82.264 125.94 81.992 126.812 81.704 127.692ZM76.904 136.5L82.232 120.756H84.488L89.816 136.5H87.68L86.192 131.7H80.456L78.944 136.5H76.904ZM92.0467 136.5V120.756H96.9667C98.0387 120.756 98.9907 120.9 99.8227 121.188C100.655 121.46 101.303 121.924 101.767 122.58C102.247 123.22 102.487 124.084 102.487 125.172C102.487 126.388 102.167 127.372 101.527 128.124C100.887 128.86 100.023 129.364 98.9347 129.636L102.943 136.5H100.687L96.8947 129.852H94.0387V136.5H92.0467ZM94.0387 128.22H96.6787C97.9107 128.22 98.8547 127.972 99.5107 127.476C100.167 126.964 100.495 126.196 100.495 125.172C100.495 124.132 100.167 123.404 99.5107 122.988C98.8547 122.572 97.9107 122.364 96.6787 122.364H94.0387V128.22Z" fill="#512D5D"/>
</svg>
