<svg width="132" height="143" viewBox="0 0 132 143" fill="none" xmlns="http://www.w3.org/2000/svg">
<g clip-path="url(#clip0_119_2023)">
<path d="M65.2739 35.8568C63.3175 35.8568 61.383 36.6872 59.9116 38.3264V30.2598H56.9962V43.8426C56.9962 48.2534 60.6091 51.8284 65.0668 51.8284C69.5244 51.8284 73.1374 48.2534 73.1374 43.8426C73.1374 39.4318 69.7315 35.8568 65.2739 35.8568ZM65.0613 48.7495C62.3203 48.7495 60.1023 46.5495 60.1023 43.8426C60.1023 41.1357 62.3257 38.9357 65.0613 38.9357C67.8024 38.9357 70.0203 41.1357 70.0203 43.8426C70.0203 46.5495 67.8024 48.7495 65.0613 48.7495Z" fill="#232323"/>
<path d="M83.3497 35.8568C81.3933 35.8568 79.4588 36.6872 77.9874 38.3264V30.2598H75.072V43.8426C75.072 48.2534 78.6849 51.8284 83.1426 51.8284C87.6002 51.8284 91.2132 48.2534 91.2132 43.8426C91.2132 39.4318 87.8018 35.8568 83.3497 35.8568ZM83.1371 48.7495C80.3961 48.7495 78.1781 46.5495 78.1781 43.8426C78.1781 41.1357 80.4015 38.9357 83.1371 38.9357C85.8782 38.9357 88.0961 41.1357 88.0961 43.8426C88.0961 46.5495 85.8782 48.7495 83.1371 48.7495Z" fill="#232323"/>
<path d="M40.5825 45.2381V36.2871H43.7104V45.2111C43.7104 47.492 45.0455 48.9533 47.2962 48.9533C49.574 48.9533 50.8819 47.5459 50.8819 45.2111V36.2871H54.0371V45.2381C54.0371 49.3739 51.5031 51.8219 47.2962 51.8219C43.1982 51.8273 40.5825 49.293 40.5825 45.2381Z" fill="#232323"/>
<path d="M96.8533 51.4617H93.7253V30.2598H96.8533V51.4617Z" fill="#232323"/>
<path d="M114.564 45.0704H102.592C103.049 47.4322 104.722 49.039 107.681 49.039C109.414 49.039 111.523 48.392 112.886 47.4052L114.194 49.6861C112.63 50.84 110.155 51.7944 107.567 51.7944C101.823 51.7944 99.3492 47.8258 99.3492 43.8302C99.3492 41.5493 100.058 39.6675 101.513 38.1738C102.962 36.6802 104.87 35.9199 107.175 35.9199C109.365 35.9199 111.185 36.5939 112.58 37.9743C113.976 39.3547 114.684 41.2096 114.684 43.5768C114.673 44.0028 114.646 44.5096 114.564 45.0704ZM102.586 42.5361H111.518C111.262 40.142 109.469 38.5944 107.164 38.5944C104.804 38.5944 103.044 40.1743 102.586 42.5361Z" fill="#232323"/>
<path d="M30.6481 35.8568C28.6918 35.8568 26.7572 36.6872 25.2859 38.3264V30.2598H22.365V43.8426C22.365 48.2534 25.978 51.8284 30.4356 51.8284C34.8932 51.8284 38.5062 48.2534 38.5062 43.8426C38.5062 39.4318 35.1003 35.8568 30.6481 35.8568ZM30.4356 48.7495C27.6945 48.7495 25.4766 46.5495 25.4766 43.8426C25.4766 41.1357 27.7 38.9357 30.4356 38.9357C33.1767 38.9357 35.3946 41.1357 35.3946 43.8426C35.3946 46.5495 33.1767 48.7495 30.4356 48.7495Z" fill="#232323"/>
<path d="M20.2452 51.8221C21.3467 51.8221 22.2397 50.9385 22.2397 49.8485C22.2397 48.7586 21.3467 47.875 20.2452 47.875C19.1436 47.875 18.2507 48.7586 18.2507 49.8485C18.2507 50.9385 19.1436 51.8221 20.2452 51.8221Z" fill="#512D5D"/>
</g>
<path d="M27.5975 108V92.256H32.2775C33.3495 92.256 34.2855 92.384 35.0855 92.64C35.9015 92.896 36.5335 93.304 36.9815 93.864C37.4455 94.424 37.6775 95.168 37.6775 96.096C37.6775 96.88 37.4775 97.592 37.0775 98.232C36.6935 98.856 36.1255 99.288 35.3735 99.528V99.624C36.3175 99.8 37.0855 100.2 37.6775 100.824C38.2855 101.448 38.5895 102.304 38.5895 103.392C38.5895 104.416 38.3335 105.272 37.8215 105.96C37.3255 106.648 36.6295 107.16 35.7335 107.496C34.8375 107.832 33.7975 108 32.6135 108H27.5975ZM29.5895 98.952H31.9175C33.2615 98.952 34.2295 98.72 34.8215 98.256C35.4135 97.792 35.7095 97.16 35.7095 96.36C35.7095 95.448 35.3975 94.8 34.7735 94.416C34.1655 94.032 33.2455 93.84 32.0135 93.84H29.5895V98.952ZM29.5895 106.416H32.3255C33.6855 106.416 34.7415 106.168 35.4935 105.672C36.2455 105.16 36.6215 104.376 36.6215 103.32C36.6215 102.344 36.2455 101.632 35.4935 101.184C34.7575 100.72 33.7015 100.488 32.3255 100.488H29.5895V106.416ZM47.2989 108.288C46.2269 108.288 45.2589 108.072 44.3949 107.64C43.5469 107.208 42.8749 106.496 42.3789 105.504C41.8829 104.512 41.6349 103.176 41.6349 101.496V92.256H43.6269V101.544C43.6269 102.808 43.7869 103.808 44.1069 104.544C44.4429 105.264 44.8829 105.776 45.4269 106.08C45.9869 106.384 46.6109 106.536 47.2989 106.536C48.0029 106.536 48.6349 106.384 49.1949 106.08C49.7549 105.776 50.1949 105.264 50.5149 104.544C50.8509 103.808 51.0189 102.808 51.0189 101.544V92.256H52.9389V101.496C52.9389 103.176 52.6909 104.512 52.1949 105.504C51.6989 106.496 51.0269 107.208 50.1789 107.64C49.3309 108.072 48.3709 108.288 47.2989 108.288ZM57.1756 108V92.256H61.8556C62.9276 92.256 63.8636 92.384 64.6636 92.64C65.4796 92.896 66.1116 93.304 66.5596 93.864C67.0236 94.424 67.2556 95.168 67.2556 96.096C67.2556 96.88 67.0556 97.592 66.6556 98.232C66.2716 98.856 65.7036 99.288 64.9516 99.528V99.624C65.8956 99.8 66.6636 100.2 67.2556 100.824C67.8636 101.448 68.1676 102.304 68.1676 103.392C68.1676 104.416 67.9116 105.272 67.3996 105.96C66.9036 106.648 66.2076 107.16 65.3116 107.496C64.4156 107.832 63.3756 108 62.1916 108H57.1756ZM59.1676 98.952H61.4956C62.8396 98.952 63.8076 98.72 64.3996 98.256C64.9916 97.792 65.2876 97.16 65.2876 96.36C65.2876 95.448 64.9756 94.8 64.3516 94.416C63.7436 94.032 62.8236 93.84 61.5916 93.84H59.1676V98.952ZM59.1676 106.416H61.9036C63.2636 106.416 64.3196 106.168 65.0716 105.672C65.8236 105.16 66.1996 104.376 66.1996 103.32C66.1996 102.344 65.8236 101.632 65.0716 101.184C64.3356 100.72 63.2796 100.488 61.9036 100.488H59.1676V106.416ZM71.285 108V92.256H75.965C77.037 92.256 77.973 92.384 78.773 92.64C79.589 92.896 80.221 93.304 80.669 93.864C81.133 94.424 81.365 95.168 81.365 96.096C81.365 96.88 81.165 97.592 80.765 98.232C80.381 98.856 79.813 99.288 79.061 99.528V99.624C80.005 99.8 80.773 100.2 81.365 100.824C81.973 101.448 82.277 102.304 82.277 103.392C82.277 104.416 82.021 105.272 81.509 105.96C81.013 106.648 80.317 107.16 79.421 107.496C78.525 107.832 77.485 108 76.301 108H71.285ZM73.277 98.952H75.605C76.949 98.952 77.917 98.72 78.509 98.256C79.101 97.792 79.397 97.16 79.397 96.36C79.397 95.448 79.085 94.8 78.461 94.416C77.853 94.032 76.933 93.84 75.701 93.84H73.277V98.952ZM73.277 106.416H76.013C77.373 106.416 78.429 106.168 79.181 105.672C79.933 105.16 80.309 104.376 80.309 103.32C80.309 102.344 79.933 101.632 79.181 101.184C78.445 100.72 77.389 100.488 76.013 100.488H73.277V106.416ZM85.3944 108V92.256H87.3864V106.296H94.2744V108H85.3944ZM97.0663 108V92.256H106.138V93.936H99.0583V98.88H105.034V100.584H99.0583V106.296H106.378V108H97.0663Z" fill="#512D5D"/>
<defs>
<clipPath id="clip0_119_2023">
<rect width="97" height="22" fill="white" transform="translate(18 30)"/>
</clipPath>
</defs>
</svg>
