<svg width="132" height="143" viewBox="0 0 132 143" fill="none" xmlns="http://www.w3.org/2000/svg">
<path d="M38.02 14.1191C33.1259 14.1191 29.12 18.125 29.12 23.0191V79.9791C29.12 84.8733 33.1259 88.8791 38.02 88.8791H94.98C99.8741 88.8791 103.88 84.8733 103.88 79.9791V23.0191C103.88 18.125 99.8741 14.1191 94.98 14.1191H38.02ZM38.02 17.6791H94.98C97.9499 17.6791 100.32 20.0492 100.32 23.0191V79.9791C100.32 82.9491 97.9499 85.3191 94.98 85.3191H38.02C35.0501 85.3191 32.68 82.9491 32.68 79.9791V23.0191C32.68 20.0492 35.0501 17.6791 38.02 17.6791ZM43.36 23.0191C40.4319 23.0191 38.02 25.4311 38.02 28.3591V71.0791C38.02 74.0072 40.4319 76.4191 43.36 76.4191H55.82C58.748 76.4191 61.16 74.0072 61.16 71.0791V28.3591C61.16 25.4311 58.748 23.0191 55.82 23.0191H43.36ZM77.18 23.0191C74.252 23.0191 71.84 25.4311 71.84 28.3591V49.7191C71.84 52.6472 74.252 55.0591 77.18 55.0591H89.64C92.568 55.0591 94.98 52.6472 94.98 49.7191V28.3591C94.98 25.4311 92.568 23.0191 89.64 23.0191H77.18ZM43.36 26.5791H55.82C56.8258 26.5791 57.6 27.3534 57.6 28.3591V71.0791C57.6 72.0849 56.8258 72.8591 55.82 72.8591H43.36C42.3542 72.8591 41.58 72.0849 41.58 71.0791V28.3591C41.58 27.3534 42.3542 26.5791 43.36 26.5791ZM77.18 26.5791H89.64C90.6458 26.5791 91.42 27.3534 91.42 28.3591V49.7191C91.42 50.7249 90.6458 51.4991 89.64 51.4991H77.18C76.1742 51.4991 75.4 50.7249 75.4 49.7191V28.3591C75.4 27.3534 76.1742 26.5791 77.18 26.5791Z" fill="#512D5D"/>
<path d="M33.006 130V115.936H28.254V114.256H39.774V115.936H35.022V130H33.006ZM42.6092 130V114.256H47.5292C48.6012 114.256 49.5532 114.4 50.3852 114.688C51.2172 114.96 51.8652 115.424 52.3292 116.08C52.8092 116.72 53.0492 117.584 53.0492 118.672C53.0492 119.888 52.7292 120.872 52.0892 121.624C51.4492 122.36 50.5852 122.864 49.4972 123.136L53.5052 130H51.2492L47.4572 123.352H44.6012V130H42.6092ZM44.6012 121.72H47.2412C48.4732 121.72 49.4172 121.472 50.0732 120.976C50.7292 120.464 51.0572 119.696 51.0572 118.672C51.0572 117.632 50.7292 116.904 50.0732 116.488C49.4172 116.072 48.4732 115.864 47.2412 115.864H44.6012V121.72ZM56.2733 130V114.256H65.3453V115.936H58.2653V120.88H64.2413V122.584H58.2653V128.296H65.5853V130H56.2733ZM68.9295 130V114.256H70.9215V128.296H77.8095V130H68.9295ZM80.6014 130V114.256H82.5934V128.296H89.4814V130H80.6014ZM97.4485 130.288C96.1365 130.288 94.9685 129.952 93.9445 129.28C92.9365 128.608 92.1445 127.656 91.5685 126.424C91.0085 125.192 90.7285 123.736 90.7285 122.056C90.7285 120.376 91.0085 118.936 91.5685 117.736C92.1445 116.52 92.9365 115.592 93.9445 114.952C94.9685 114.296 96.1365 113.968 97.4485 113.968C98.7765 113.968 99.9445 114.296 100.952 114.952C101.96 115.592 102.752 116.52 103.328 117.736C103.904 118.936 104.192 120.376 104.192 122.056C104.192 123.736 103.904 125.192 103.328 126.424C102.752 127.656 101.96 128.608 100.952 129.28C99.9445 129.952 98.7765 130.288 97.4485 130.288ZM97.4485 128.536C98.3925 128.536 99.2085 128.272 99.8965 127.744C100.6 127.2 101.144 126.448 101.528 125.488C101.912 124.512 102.104 123.368 102.104 122.056C102.104 120.104 101.68 118.56 100.832 117.424C99.9845 116.288 98.8565 115.72 97.4485 115.72C96.0405 115.72 94.9125 116.288 94.0645 117.424C93.2165 118.56 92.7925 120.104 92.7925 122.056C92.7925 123.368 92.9845 124.512 93.3685 125.488C93.7525 126.448 94.2965 127.2 95.0005 127.744C95.7045 128.272 96.5205 128.536 97.4485 128.536Z" fill="#512D5D"/>
</svg>
