<svg width="132" height="143" viewBox="0 0 132 143" fill="none" xmlns="http://www.w3.org/2000/svg">
<path d="M44.4744 41.9875L37.5361 35.0059C33.7084 38.8493 31.5587 44.0572 31.5587 49.4869C31.5587 54.9166 33.7084 60.1245 37.5361 63.9679L44.5039 56.9863C42.5186 54.9993 41.4005 52.3046 41.395 49.493C41.3895 46.6814 42.4969 43.9823 44.4744 41.9875Z" fill="#512D5D"/>
<path d="M37.5361 35.0059L44.4744 41.9875C45.4588 41 46.6279 40.2166 47.9147 39.6821C49.2014 39.1476 50.5808 38.8725 51.9738 38.8725C53.3667 38.8725 54.7461 39.1476 56.0329 39.6821C57.3196 40.2166 58.4887 41 59.4731 41.9875L64.5218 33.3196L64.2266 33.0829C60.2885 30.1391 55.4247 28.7134 50.5241 29.0665C45.6235 29.4196 41.0133 31.5278 37.5361 35.0059Z" fill="#865297"/>
<path d="M64.5514 65.654L59.4731 57.0156C58.4887 58.0031 57.3196 58.7865 56.0329 59.3211C54.7461 59.8556 53.3667 60.1307 51.9738 60.1307C50.5808 60.1307 49.2014 59.8556 47.9147 59.3211C46.6279 58.7865 45.4588 58.0031 44.4744 57.0156L37.5361 63.9973C41.0064 67.4444 45.5933 69.5332 50.4671 69.8859C55.341 70.2386 60.1799 68.8319 64.1085 65.9202L64.4333 65.654" fill="#865297"/>
<path d="M66.5 35.0051C62.6724 38.8485 60.5227 44.0565 60.5227 49.4861C60.5227 54.9158 62.6724 60.1237 66.5 63.9672L73.4679 56.9855C71.479 54.9926 70.3616 52.2897 70.3616 49.4713C70.3616 46.653 71.479 43.95 73.4679 41.9572C75.4569 39.9643 78.1544 38.8447 80.9672 38.8447C83.78 38.8447 86.4776 39.9643 88.4666 41.9572L95.464 35.0051C93.5635 33.0971 91.3062 31.5835 88.8212 30.5507C86.3362 29.5179 83.6723 28.9863 80.982 28.9863C78.2917 28.9863 75.6278 29.5179 73.1428 30.5507C70.6578 31.5835 68.4005 33.0971 66.5 35.0051Z" fill="#865297"/>
<path d="M95.4639 35.0059L88.5256 41.9875C90.5145 43.9804 91.6319 46.6833 91.6319 49.5017C91.6319 52.3201 90.5145 55.023 88.5256 57.0159C86.5366 59.0087 83.839 60.1283 81.0263 60.1283C78.2135 60.1283 75.5159 59.0087 73.5269 57.0159L66.5 63.9975C70.3369 67.846 75.5425 70.0096 80.9715 70.0124C83.6597 70.0137 86.3218 69.4846 88.8059 68.4551C91.29 67.4256 93.5474 65.9159 95.4492 64.0123C97.351 62.1087 98.8599 59.8484 99.8899 57.3605C100.92 54.8725 101.451 52.2057 101.452 49.5122C101.453 46.8187 100.925 44.1513 99.8979 41.6623C98.8705 39.1733 97.3638 36.9114 95.4639 35.0059Z" fill="#512D5D"/>
<path d="M29.7934 124.288C28.4174 124.288 27.1934 123.968 26.1214 123.328C25.0494 122.672 24.2094 121.736 23.6014 120.52C22.9934 119.304 22.6894 117.84 22.6894 116.128C22.6894 114.432 23.0014 112.976 23.6254 111.76C24.2494 110.544 25.1054 109.608 26.1934 108.952C27.2814 108.296 28.5214 107.968 29.9134 107.968C31.0014 107.968 31.9134 108.176 32.6494 108.592C33.4014 108.992 34.0014 109.432 34.4494 109.912L33.3454 111.208C32.9454 110.792 32.4814 110.44 31.9534 110.152C31.4254 109.864 30.7614 109.72 29.9614 109.72C28.9054 109.72 27.9854 109.984 27.2014 110.512C26.4174 111.024 25.8094 111.752 25.3774 112.696C24.9614 113.64 24.7534 114.768 24.7534 116.08C24.7534 118.064 25.2014 119.64 26.0974 120.808C27.0094 121.96 28.3054 122.536 29.9854 122.536C30.5454 122.536 31.0814 122.456 31.5934 122.296C32.1054 122.12 32.5134 121.888 32.8174 121.6V117.496H29.4814V115.84H34.6414V122.464C34.1454 122.992 33.4734 123.432 32.6254 123.784C31.7934 124.12 30.8494 124.288 29.7934 124.288ZM37.2379 118.744V117.232H42.7579V118.744H37.2379ZM51.819 124.288C50.507 124.288 49.331 123.968 48.291 123.328C47.267 122.672 46.451 121.736 45.843 120.52C45.251 119.304 44.955 117.84 44.955 116.128C44.955 114.432 45.259 112.976 45.867 111.76C46.475 110.544 47.307 109.608 48.363 108.952C49.419 108.296 50.611 107.968 51.939 107.968C52.899 107.968 53.747 108.168 54.483 108.568C55.219 108.952 55.811 109.4 56.259 109.912L55.179 111.208C54.763 110.76 54.291 110.4 53.763 110.128C53.235 109.856 52.635 109.72 51.963 109.72C50.971 109.72 50.099 109.984 49.347 110.512C48.611 111.024 48.035 111.752 47.619 112.696C47.219 113.64 47.019 114.768 47.019 116.08C47.019 117.392 47.219 118.536 47.619 119.512C48.019 120.472 48.579 121.216 49.299 121.744C50.035 122.272 50.899 122.536 51.891 122.536C52.643 122.536 53.315 122.376 53.907 122.056C54.499 121.736 55.043 121.304 55.539 120.76L56.643 122.008C56.019 122.728 55.315 123.288 54.531 123.688C53.747 124.088 52.843 124.288 51.819 124.288ZM64.6828 124.288C63.3708 124.288 62.2028 123.952 61.1788 123.28C60.1708 122.608 59.3788 121.656 58.8028 120.424C58.2428 119.192 57.9628 117.736 57.9628 116.056C57.9628 114.376 58.2428 112.936 58.8028 111.736C59.3788 110.52 60.1708 109.592 61.1788 108.952C62.2028 108.296 63.3708 107.968 64.6828 107.968C66.0108 107.968 67.1788 108.296 68.1868 108.952C69.1948 109.592 69.9868 110.52 70.5628 111.736C71.1388 112.936 71.4268 114.376 71.4268 116.056C71.4268 117.736 71.1388 119.192 70.5628 120.424C69.9868 121.656 69.1948 122.608 68.1868 123.28C67.1788 123.952 66.0108 124.288 64.6828 124.288ZM64.6828 122.536C65.6268 122.536 66.4428 122.272 67.1308 121.744C67.8348 121.2 68.3788 120.448 68.7628 119.488C69.1468 118.512 69.3388 117.368 69.3388 116.056C69.3388 114.104 68.9148 112.56 68.0668 111.424C67.2188 110.288 66.0908 109.72 64.6828 109.72C63.2748 109.72 62.1468 110.288 61.2988 111.424C60.4508 112.56 60.0268 114.104 60.0268 116.056C60.0268 117.368 60.2188 118.512 60.6028 119.488C60.9868 120.448 61.5308 121.2 62.2348 121.744C62.9388 122.272 63.7548 122.536 64.6828 122.536ZM74.8123 124V108.256H76.8043V122.296H83.6923V124H74.8123ZM89.2665 115.192L88.5225 117.592H93.2505L92.5065 115.192C92.2185 114.312 91.9465 113.44 91.6905 112.576C91.4345 111.696 91.1785 110.8 90.9225 109.888H90.8265C90.5865 110.8 90.3385 111.696 90.0825 112.576C89.8265 113.44 89.5545 114.312 89.2665 115.192ZM84.4665 124L89.7945 108.256H92.0505L97.3785 124H95.2425L93.7545 119.2H88.0185L86.5065 124H84.4665ZM99.6092 124V108.256H104.289C105.361 108.256 106.297 108.384 107.097 108.64C107.913 108.896 108.545 109.304 108.993 109.864C109.457 110.424 109.689 111.168 109.689 112.096C109.689 112.88 109.489 113.592 109.089 114.232C108.705 114.856 108.137 115.288 107.385 115.528V115.624C108.329 115.8 109.097 116.2 109.689 116.824C110.297 117.448 110.601 118.304 110.601 119.392C110.601 120.416 110.345 121.272 109.833 121.96C109.337 122.648 108.641 123.16 107.745 123.496C106.849 123.832 105.809 124 104.625 124H99.6092ZM101.601 114.952H103.929C105.273 114.952 106.241 114.72 106.833 114.256C107.425 113.792 107.721 113.16 107.721 112.36C107.721 111.448 107.409 110.8 106.785 110.416C106.177 110.032 105.257 109.84 104.025 109.84H101.601V114.952ZM101.601 122.416H104.337C105.697 122.416 106.753 122.168 107.505 121.672C108.257 121.16 108.633 120.376 108.633 119.32C108.633 118.344 108.257 117.632 107.505 117.184C106.769 116.72 105.713 116.488 104.337 116.488H101.601V122.416Z" fill="#512D5D"/>
</svg>
