<svg width="132" height="143" viewBox="0 0 132 143" fill="none" xmlns="http://www.w3.org/2000/svg">
<path d="M52.0635 25.5C52.7904 25.5 53.5172 25.5 54.244 25.5C54.3786 25.5359 54.5132 25.5719 54.6478 25.5899C56.2989 25.8055 57.8512 26.3177 59.2869 27.1625C60.0586 27.6208 60.4444 28.3037 60.4265 29.2113C60.4085 30.4874 59.4753 31.6196 58.1294 31.9521C57.0526 32.2217 55.9938 32.0779 54.9439 31.7994C52.4853 31.1434 50.3497 31.7095 48.564 33.5337C47.9 34.2077 47.218 34.8727 46.5451 35.5376C43.0097 39.0513 39.4563 42.5469 35.9299 46.0695C33.7942 48.1993 33.5251 51.4253 35.2479 53.8336C37.4643 56.9249 41.8521 57.2484 44.6248 54.5076C53.1224 46.0875 61.6199 37.6674 70.1085 29.2383C71.7865 27.5758 73.7336 26.3986 76.0397 25.8505C76.6499 25.7067 77.278 25.6168 77.8972 25.5C78.5971 25.5 79.288 25.5 79.9879 25.5C80.0956 25.527 80.1943 25.5719 80.302 25.5809C83.0747 25.8954 85.4705 27.0097 87.4536 28.9597C91.8594 33.3001 96.2472 37.6584 100.626 42.0347C102.053 43.4545 103.022 45.1709 103.542 47.1209C103.74 47.8488 103.856 48.6036 104 49.3405C104 50.0325 104 50.7334 104 51.4253C103.928 51.8297 103.865 52.2341 103.785 52.6295C101.99 61.7236 90.9351 65.5607 83.9181 59.486C82.303 58.0931 80.8583 56.5115 79.3239 55.0198C79.1893 54.894 79.0547 54.7682 78.8752 54.5975C78.7406 54.7592 78.6509 54.894 78.5432 55.0019C76.6858 56.835 74.8822 58.7311 72.944 60.4835C69.1304 63.9342 63.2799 64.4644 58.8382 61.8673C57.9589 61.3551 57.5551 60.5913 57.6448 59.5759C57.7435 58.3987 58.6498 57.3562 59.8881 57.0417C60.9739 56.7632 62.0506 56.9069 63.1184 57.1855C65.5591 57.8325 67.6768 57.2754 69.4624 55.4691C71.1853 53.7438 72.9171 52.0364 74.6579 50.32C77.1255 47.8847 80.7237 47.8758 83.1913 50.311C84.636 51.7309 86.0627 53.1687 87.5074 54.5885C88.9341 55.9814 90.657 56.5924 92.6221 56.3138C95.0717 55.9724 96.8035 54.5975 97.5842 52.2431C98.3738 49.8707 97.7906 47.7499 96.0229 45.9797C94.5513 44.4969 93.0528 43.0412 91.5722 41.5674C88.7995 38.8176 86.0358 36.0499 83.2452 33.318C80.7686 30.9007 77.0627 30.9277 74.5771 33.336C74.2631 33.6415 73.949 33.9561 73.6349 34.2706C65.4066 42.4301 57.1872 50.5896 48.9588 58.7311C45.9169 61.7415 42.229 62.9816 38.0206 62.1909C33.3007 61.3012 30.0345 58.4885 28.6078 53.8786C27.19 49.3225 28.2758 45.2248 31.6228 41.828C35.8581 37.5326 40.1741 33.327 44.4543 29.0765C46.0874 27.459 48.0167 26.3627 50.251 25.8325C50.8522 25.6977 51.4623 25.6168 52.0635 25.5Z" fill="#512D5D"/>
<path d="M40.2108 111.5V95.756H42.6108L45.6348 104.156C45.8268 104.7 46.0108 105.252 46.1868 105.812C46.3788 106.356 46.5708 106.9 46.7628 107.444H46.8588C47.0508 106.9 47.2268 106.356 47.3868 105.812C47.5628 105.252 47.7468 104.7 47.9388 104.156L50.9148 95.756H53.3388V111.5H51.4668V102.836C51.4668 102.132 51.4988 101.356 51.5628 100.508C51.6268 99.644 51.6828 98.868 51.7308 98.18H51.6348L50.3868 101.756L47.4108 109.916H46.0908L43.1148 101.756L41.8668 98.18H41.7708C41.8188 98.868 41.8668 99.644 41.9148 100.508C41.9788 101.356 42.0108 102.132 42.0108 102.836V111.5H40.2108ZM60.3603 102.692L59.6163 105.092H64.3443L63.6003 102.692C63.3123 101.812 63.0403 100.94 62.7843 100.076C62.5283 99.196 62.2723 98.3 62.0163 97.388H61.9203C61.6803 98.3 61.4323 99.196 61.1763 100.076C60.9203 100.94 60.6483 101.812 60.3603 102.692ZM55.5603 111.5L60.8883 95.756H63.1443L68.4723 111.5H66.3363L64.8483 106.7H59.1123L57.6003 111.5H55.5603ZM69.4355 111.5V110.3L77.7155 97.436H70.1795V95.756H80.2115V96.932L71.9075 109.796H80.2835V111.5H69.4355ZM83.453 111.5V95.756H92.525V97.436H85.445V102.38H91.421V104.084H85.445V109.796H92.765V111.5H83.453Z" fill="#512D5D"/>
</svg>
