<svg width="132" height="143" viewBox="0 0 132 143" fill="none" xmlns="http://www.w3.org/2000/svg">
<path d="M40.2629 18.2793C35.1404 18.2793 31.3518 22.8837 31.5212 27.8777C31.6844 32.6737 31.4712 38.8893 29.9473 43.9546C28.4214 49.0362 25.8387 52.2484 21.62 52.6605V57.3381C25.8387 57.7502 28.4214 60.9623 29.9473 66.044C31.4712 71.1093 31.6823 77.3249 31.5212 82.1209C31.3518 87.1149 35.1404 91.7193 40.2629 91.7193H92.7451C97.8675 91.7193 101.656 87.1149 101.487 82.1209C101.324 77.3249 101.535 71.1093 103.057 66.044C104.585 60.9623 107.161 57.7502 111.38 57.3381V52.6605C107.161 52.2484 104.585 49.0362 103.057 43.9546C101.533 38.8893 101.324 32.6737 101.487 27.8777C101.654 22.8837 97.8635 18.2793 92.7411 18.2793H40.2629ZM40.2629 22.3593H92.7411C94.2364 22.3593 95.2749 23.1056 95.8808 23.7339C96.9008 24.7886 97.4578 26.249 97.4068 27.7382C97.2456 32.4914 97.416 39.3651 99.148 45.126C100.739 50.4219 103.243 53.3877 105.838 54.9993C103.245 56.6109 100.741 59.5788 99.148 64.8726C97.416 70.6335 97.2456 77.5072 97.4068 82.2604C97.4578 83.7496 96.9008 85.208 95.8808 86.2647C95.2749 86.893 94.2364 87.6393 92.7411 87.6393H40.2629C38.7676 87.6393 37.7331 86.893 37.1272 86.2647C36.1072 85.21 35.5502 83.7496 35.6012 82.2604C35.7623 77.5072 35.588 70.6335 33.856 64.8726C32.2648 59.5788 29.7611 56.6109 27.1662 54.9993C29.7611 53.3877 32.2648 50.4198 33.856 45.126C35.588 39.3651 35.7623 32.4914 35.6012 27.7382C35.5502 26.249 36.1072 24.7886 37.1272 23.7339C37.7331 23.1056 38.7676 22.3593 40.2629 22.3593ZM51.9491 35.8902V74.1044H67.6754C71.7615 74.1044 75.1552 73.1087 77.4849 71.2197C79.8187 69.3286 81.0509 66.5779 81.0509 63.2629C81.0509 58.2567 77.4916 54.4937 72.1897 53.8797V53.8199C76.0881 53.1467 79.1305 49.4936 79.1305 45.4687C79.1305 42.6229 78.0375 40.2136 75.9669 38.5C73.9044 36.7925 71.0067 35.8902 67.5917 35.8902H51.9491ZM58.1766 40.8906H66.1374C70.5051 40.8906 72.9109 42.8052 72.9109 46.2855C72.9088 50.0207 70.0521 52.0787 64.8664 52.0787H58.1766V40.8906ZM58.1766 56.7604H66.0816C71.7936 56.7604 74.6919 58.8265 74.6919 62.8963C74.6919 66.962 71.8342 69.112 66.4323 69.112H58.1766V56.7604Z" fill="#512D5D"/>
<path d="M7.16 134V118.256H11.84C12.912 118.256 13.848 118.384 14.648 118.64C15.464 118.896 16.096 119.304 16.544 119.864C17.008 120.424 17.24 121.168 17.24 122.096C17.24 122.88 17.04 123.592 16.64 124.232C16.256 124.856 15.688 125.288 14.936 125.528V125.624C15.88 125.8 16.648 126.2 17.24 126.824C17.848 127.448 18.152 128.304 18.152 129.392C18.152 130.416 17.896 131.272 17.384 131.96C16.888 132.648 16.192 133.16 15.296 133.496C14.4 133.832 13.36 134 12.176 134H7.16ZM9.152 124.952H11.48C12.824 124.952 13.792 124.72 14.384 124.256C14.976 123.792 15.272 123.16 15.272 122.36C15.272 121.448 14.96 120.8 14.336 120.416C13.728 120.032 12.808 119.84 11.576 119.84H9.152V124.952ZM9.152 132.416H11.888C13.248 132.416 14.304 132.168 15.056 131.672C15.808 131.16 16.184 130.376 16.184 129.32C16.184 128.344 15.808 127.632 15.056 127.184C14.32 126.72 13.264 126.488 11.888 126.488H9.152V132.416ZM27.0774 134.288C25.7654 134.288 24.5974 133.952 23.5734 133.28C22.5654 132.608 21.7734 131.656 21.1974 130.424C20.6374 129.192 20.3574 127.736 20.3574 126.056C20.3574 124.376 20.6374 122.936 21.1974 121.736C21.7734 120.52 22.5654 119.592 23.5734 118.952C24.5974 118.296 25.7654 117.968 27.0774 117.968C28.4054 117.968 29.5734 118.296 30.5814 118.952C31.5894 119.592 32.3814 120.52 32.9574 121.736C33.5334 122.936 33.8214 124.376 33.8214 126.056C33.8214 127.736 33.5334 129.192 32.9574 130.424C32.3814 131.656 31.5894 132.608 30.5814 133.28C29.5734 133.952 28.4054 134.288 27.0774 134.288ZM27.0774 132.536C28.0214 132.536 28.8374 132.272 29.5254 131.744C30.2294 131.2 30.7734 130.448 31.1574 129.488C31.5414 128.512 31.7334 127.368 31.7334 126.056C31.7334 124.104 31.3094 122.56 30.4614 121.424C29.6134 120.288 28.4854 119.72 27.0774 119.72C25.6694 119.72 24.5414 120.288 23.6934 121.424C22.8454 122.56 22.4214 124.104 22.4214 126.056C22.4214 127.368 22.6134 128.512 22.9974 129.488C23.3814 130.448 23.9254 131.2 24.6294 131.744C25.3334 132.272 26.1494 132.536 27.0774 132.536ZM43.0149 134.288C41.7029 134.288 40.5349 133.952 39.5109 133.28C38.5029 132.608 37.7109 131.656 37.1349 130.424C36.5749 129.192 36.2949 127.736 36.2949 126.056C36.2949 124.376 36.5749 122.936 37.1349 121.736C37.7109 120.52 38.5029 119.592 39.5109 118.952C40.5349 118.296 41.7029 117.968 43.0149 117.968C44.3429 117.968 45.5109 118.296 46.5189 118.952C47.5269 119.592 48.3189 120.52 48.8949 121.736C49.4709 122.936 49.7589 124.376 49.7589 126.056C49.7589 127.736 49.4709 129.192 48.8949 130.424C48.3189 131.656 47.5269 132.608 46.5189 133.28C45.5109 133.952 44.3429 134.288 43.0149 134.288ZM43.0149 132.536C43.9589 132.536 44.7749 132.272 45.4629 131.744C46.1669 131.2 46.7109 130.448 47.0949 129.488C47.4789 128.512 47.6709 127.368 47.6709 126.056C47.6709 124.104 47.2469 122.56 46.3989 121.424C45.5509 120.288 44.4229 119.72 43.0149 119.72C41.6069 119.72 40.4789 120.288 39.6309 121.424C38.7829 122.56 38.3589 124.104 38.3589 126.056C38.3589 127.368 38.5509 128.512 38.9349 129.488C39.3189 130.448 39.8629 131.2 40.5669 131.744C41.2709 132.272 42.0869 132.536 43.0149 132.536ZM55.8224 134V119.936H51.0704V118.256H62.5904V119.936H57.8384V134H55.8224ZM68.8561 134.288C67.7521 134.288 66.7281 134.08 65.7841 133.664C64.8401 133.232 64.0241 132.664 63.3361 131.96L64.5361 130.568C65.0961 131.16 65.7521 131.64 66.5041 132.008C67.2721 132.36 68.0641 132.536 68.8801 132.536C69.9201 132.536 70.7281 132.304 71.3041 131.84C71.8801 131.36 72.1681 130.736 72.1681 129.968C72.1681 129.424 72.0481 128.992 71.8081 128.672C71.5841 128.352 71.2721 128.08 70.8721 127.856C70.4881 127.632 70.0481 127.408 69.5521 127.184L67.2961 126.2C66.8001 125.992 66.3041 125.72 65.8081 125.384C65.3281 125.048 64.9201 124.616 64.5841 124.088C64.2641 123.56 64.1041 122.912 64.1041 122.144C64.1041 121.344 64.3121 120.632 64.7281 120.008C65.1601 119.368 65.7521 118.872 66.5041 118.52C67.2561 118.152 68.1041 117.968 69.0481 117.968C69.9921 117.968 70.8641 118.152 71.6641 118.52C72.4641 118.872 73.1441 119.336 73.7041 119.912L72.6241 121.208C72.1441 120.744 71.6081 120.384 71.0161 120.128C70.4401 119.856 69.7841 119.72 69.0481 119.72C68.1681 119.72 67.4561 119.928 66.9121 120.344C66.3841 120.76 66.1201 121.32 66.1201 122.024C66.1201 122.52 66.2481 122.936 66.5041 123.272C66.7761 123.592 67.1121 123.856 67.5121 124.064C67.9121 124.272 68.3201 124.464 68.7361 124.64L70.9681 125.6C71.5761 125.856 72.1201 126.168 72.6001 126.536C73.0961 126.888 73.4881 127.328 73.7761 127.856C74.0641 128.368 74.2081 129.016 74.2081 129.8C74.2081 130.632 73.9921 131.392 73.5601 132.08C73.1281 132.752 72.5121 133.288 71.7121 133.688C70.9121 134.088 69.9601 134.288 68.8561 134.288ZM80.1037 134V119.936H75.3517V118.256H86.8717V119.936H82.1197V134H80.1037ZM89.7069 134V118.256H94.6269C95.6989 118.256 96.6509 118.4 97.4829 118.688C98.3149 118.96 98.9629 119.424 99.4269 120.08C99.9069 120.72 100.147 121.584 100.147 122.672C100.147 123.888 99.8269 124.872 99.1869 125.624C98.5469 126.36 97.6829 126.864 96.5949 127.136L100.603 134H98.3469L94.5549 127.352H91.6989V134H89.7069ZM91.6989 125.72H94.3389C95.5709 125.72 96.5149 125.472 97.1709 124.976C97.8269 124.464 98.1549 123.696 98.1549 122.672C98.1549 121.632 97.8269 120.904 97.1709 120.488C96.5149 120.072 95.5709 119.864 94.3389 119.864H91.6989V125.72ZM105.989 125.192L105.245 127.592H109.973L109.229 125.192C108.941 124.312 108.669 123.44 108.413 122.576C108.157 121.696 107.901 120.8 107.645 119.888H107.549C107.309 120.8 107.061 121.696 106.805 122.576C106.549 123.44 106.277 124.312 105.989 125.192ZM101.189 134L106.517 118.256H108.773L114.101 134H111.965L110.477 129.2H104.741L103.229 134H101.189ZM116.332 134V118.256H120.82C122.004 118.256 123.036 118.4 123.916 118.688C124.796 118.976 125.484 119.464 125.98 120.152C126.476 120.824 126.724 121.736 126.724 122.888C126.724 124.536 126.188 125.76 125.116 126.56C124.044 127.36 122.644 127.76 120.916 127.76H118.324V134H116.332ZM118.324 126.128H120.676C122.052 126.128 123.068 125.872 123.724 125.36C124.396 124.832 124.732 124.008 124.732 122.888C124.732 121.752 124.38 120.968 123.676 120.536C122.988 120.088 121.956 119.864 120.58 119.864H118.324V126.128Z" fill="#512D5D"/>
</svg>
