<svg width="132" height="143" viewBox="0 0 132 143" fill="none" xmlns="http://www.w3.org/2000/svg">
<g clip-path="url(#clip0_119_2023)">
<path d="M65.9755 13.0002C65.5576 13.0069 65.1587 13.1759 64.8632 13.4715L64.8318 13.5029L31.7467 46.588C29.8755 48.4592 29.8755 51.5411 31.7467 53.4124L64.8632 86.5289C65.1649 86.8305 65.574 86.9999 66.0006 86.9999C66.4272 86.9999 66.8363 86.8305 67.138 86.5289L67.1694 86.4975L100.254 53.4124C102.126 51.5411 102.126 48.4592 100.254 46.588L67.138 13.4715C66.9857 13.3191 66.8042 13.1988 66.6045 13.1179C66.4048 13.0369 66.1909 12.9969 65.9755 13.0002ZM66.1011 16.9842L97.9797 48.8628C98.6214 49.5045 98.6214 50.4959 97.9797 51.1376L72.0521 77.0652C72.2432 76.1291 72.3812 75.1795 72.4322 74.2155C72.4352 74.1589 72.4352 74.1023 72.4322 74.0458C72.2174 69.9831 70.7254 66.1056 68.1968 62.9514L80.0076 51.1376C80.3091 50.8359 80.4785 50.4268 80.4785 50.0002C80.4785 49.5736 80.3091 49.1645 80.0076 48.8628L67.1694 36.0246C64.5583 33.2605 63.0203 29.6638 62.7989 25.8698C62.9879 22.6308 64.1446 19.5403 66.1011 16.9842ZM59.9491 22.9351C59.7579 23.8713 59.6199 24.8209 59.569 25.7849C59.566 25.8414 59.566 25.8981 59.569 25.9546C59.7839 30.018 61.2782 33.8945 63.8075 37.0489L51.9936 48.8628C51.6921 49.1645 51.5226 49.5736 51.5226 50.0002C51.5226 50.4268 51.6921 50.8359 51.9936 51.1376L64.8632 64.0103C67.4548 66.7699 68.9818 70.3521 69.2023 74.1306C69.0132 77.3695 67.8566 80.4601 65.9 83.0162L34.0215 51.1376C33.3798 50.4959 33.3798 49.5045 34.0215 48.8628L59.9491 22.9351ZM66.0006 39.4054L76.5954 50.0002L66.0006 60.595L55.4058 50.0002L66.0006 39.4054Z" fill="#512D5D"/>
</g>
<path d="M48.8575 124.288C46.8895 124.288 45.4415 123.448 44.5135 121.768L45.9535 120.76C46.3055 121.384 46.7055 121.84 47.1535 122.128C47.6015 122.4 48.1055 122.536 48.6655 122.536C49.5135 122.536 50.1455 122.28 50.5615 121.768C50.9775 121.24 51.1855 120.376 51.1855 119.176V108.256H53.2015V119.368C53.2015 120.264 53.0495 121.088 52.7455 121.84C52.4575 122.592 51.9935 123.192 51.3535 123.64C50.7135 124.072 49.8815 124.288 48.8575 124.288ZM57.4608 124V108.256H59.4528V124H57.4608ZM63.7655 124V108.256H68.6855C69.7575 108.256 70.7095 108.4 71.5415 108.688C72.3735 108.96 73.0215 109.424 73.4855 110.08C73.9655 110.72 74.2055 111.584 74.2055 112.672C74.2055 113.888 73.8855 114.872 73.2455 115.624C72.6055 116.36 71.7415 116.864 70.6535 117.136L74.6615 124H72.4055L68.6135 117.352H65.7575V124H63.7655ZM65.7575 115.72H68.3975C69.6295 115.72 70.5735 115.472 71.2295 114.976C71.8855 114.464 72.2135 113.696 72.2135 112.672C72.2135 111.632 71.8855 110.904 71.2295 110.488C70.5735 110.072 69.6295 109.864 68.3975 109.864H65.7575V115.72ZM80.0478 115.192L79.3038 117.592H84.0318L83.2878 115.192C82.9998 114.312 82.7278 113.44 82.4718 112.576C82.2158 111.696 81.9598 110.8 81.7038 109.888H81.6078C81.3678 110.8 81.1198 111.696 80.8638 112.576C80.6078 113.44 80.3358 114.312 80.0478 115.192ZM75.2478 124L80.5758 108.256H82.8318L88.1598 124H86.0238L84.5358 119.2H78.7998L77.2878 124H75.2478Z" fill="#512D5D"/>
<defs>
<clipPath id="clip0_119_2023">
<rect width="74" height="74" fill="white" transform="translate(29 13)"/>
</clipPath>
</defs>
</svg>
