<svg width="132" height="143" viewBox="0 0 132 143" fill="none" xmlns="http://www.w3.org/2000/svg">
<g clip-path="url(#clip0_119_2023)">
<path d="M33.5362 79.3033L33.7426 67.7221L37.1956 66.4555C38.7128 70.1836 41.9414 72.9296 46.2384 74.6448L33.5362 79.3033Z" stroke="#E6B6F5"/>
<path d="M33.4011 66.7839L25.8512 58.0445L38.5871 53.3737C36.3783 57.4838 35.6452 61.6857 36.8561 65.5166L33.4011 66.7839Z" stroke="#512D5D"/>
<path d="M37.7958 65.1684C36.2493 60.2091 38.2114 54.3995 42.8857 48.9125C47.699 43.2622 55.3202 38.0476 64.6154 34.6389C73.9107 31.2303 83.0734 30.2896 90.3633 31.5003C97.4442 32.6762 102.653 35.8557 104.633 40.6564L37.7958 65.1684Z" stroke="#BD7ED1"/>
<path d="M104.97 41.6013C106.527 46.5909 104.565 52.4015 99.8879 57.881C95.0723 63.5231 87.4461 68.722 78.1502 72.1308C68.8543 75.5397 59.6966 76.4962 52.4094 75.2931C45.3306 74.1243 40.1211 70.9437 38.132 66.1102L104.97 41.6013Z" stroke="#512D5D"/>
<path d="M38.1483 66.1049L104.956 41.6023C105.339 43.1267 105.014 44.8635 104.004 46.7562C102.885 48.8522 100.949 51.0902 98.3237 53.3397C93.0756 57.8363 85.1594 62.3061 75.8382 65.7242C66.6362 69.0986 57.8309 70.8023 50.978 70.8023C47.463 70.8023 44.4899 70.3531 42.2493 69.472C40.2213 68.6744 38.8357 67.542 38.1483 66.1049Z" stroke="#6B3F7A"/>
<path d="M100.518 37.2955C102.546 38.0922 103.932 39.2239 104.62 40.661L37.8092 65.1634C37.4266 63.639 37.7513 61.9025 38.7615 60.0101C39.8803 57.9144 41.8165 55.6768 44.442 53.4277C49.6901 48.9319 57.6063 44.463 66.9275 41.0449C76.1295 37.6705 84.9382 35.9668 91.7877 35.9668C95.3045 35.9668 98.2777 36.4151 100.518 37.2955Z" stroke="#A167B4"/>
<path d="M88.0419 80.6953C86.0462 80.6953 83.1048 78.8877 79.2951 75.3197C74.7887 71.0997 69.6295 64.9166 64.7596 57.9125C59.8932 50.9084 55.895 43.9077 53.4988 38.1943C50.8905 31.9706 50.517 28.1459 52.3915 26.8215C52.8257 26.5241 53.3406 26.3721 53.8656 26.3856C55.3902 26.3856 58.3652 27.5242 63.861 32.9572L63.9822 33.0755L63.9654 33.2444C63.9284 33.6363 63.8947 34.0283 63.8644 34.4168L63.8038 35.1838L63.2654 34.6398C57.3421 28.6493 54.7373 28.004 53.8892 28.004C53.6469 28.004 53.455 28.0513 53.317 28.1493C52.5026 28.7237 52.4488 31.5348 54.9796 37.5658C57.332 43.1745 61.273 50.0705 66.0755 56.9834C70.8814 63.8996 75.9633 69.9881 80.3922 74.1338C85.1644 78.6039 87.315 79.087 88.0184 79.087C88.2607 79.087 88.4559 79.0363 88.6039 78.9316C89.4621 78.3268 89.4621 75.3164 86.6419 68.8224L86.5106 68.5251L86.7933 68.3697C87.076 68.2143 87.352 68.0622 87.6078 67.9136L87.9477 67.721L88.1059 68.0791C90.1049 72.6809 91.9761 78.5295 89.5227 80.2594C89.0886 80.5568 88.5703 80.7088 88.0419 80.6953Z" fill="#6B3F7A"/>
<path d="M78.7768 72.4035L78.7499 72.7548C78.2754 78.6338 77.0301 85.7021 73.7791 85.9893C73.7118 85.9961 73.6445 85.9961 73.5805 85.9961C71.3728 85.9961 69.2828 82.8201 67.3746 76.5593C65.564 70.633 64.1606 62.6795 63.4236 54.1617C62.6832 45.6439 62.6933 37.5654 63.4539 31.4127C64.2818 24.7093 65.8568 21.209 68.1386 21.0062C68.2059 20.9995 68.2766 20.9961 68.3439 20.9961C69.9458 20.9961 72.3589 22.8172 74.8291 31.2978L73.2171 31.6087C72.3925 28.7773 71.4939 26.473 70.6021 24.885C69.7776 23.422 68.9732 22.6145 68.3439 22.6145C68.3237 22.6145 68.3035 22.6145 68.2799 22.6179C67.2905 22.7057 65.8501 25.1114 65.0491 31.6121C64.302 37.6532 64.2919 45.6135 65.0222 54.0198C65.7525 62.4294 67.1323 70.2647 68.9093 76.0829C69.7035 78.6879 70.5752 80.8368 71.4334 82.293C72.2209 83.6377 72.9849 84.3777 73.5805 84.3777C73.6007 84.3777 73.6209 84.3777 73.6411 84.3743C74.5868 84.2932 76.3705 81.7862 77.121 72.9711L78.7768 72.4035Z" fill="#6B3F7A"/>
</g>
<path d="M30.2284 116V114.8L38.5084 101.936H30.9724V100.256H41.0044V101.432L32.7004 114.296H41.0764V116H30.2284ZM44.2459 116V100.256H53.3179V101.936H46.2379V106.88H52.2139V108.584H46.2379V114.296H53.5579V116H44.2459ZM56.9022 116V100.256H61.3902C62.5742 100.256 63.6062 100.4 64.4862 100.688C65.3662 100.976 66.0542 101.464 66.5502 102.152C67.0462 102.824 67.2942 103.736 67.2942 104.888C67.2942 106.536 66.7582 107.76 65.6862 108.56C64.6142 109.36 63.2142 109.76 61.4862 109.76H58.8942V116H56.9022ZM58.8942 108.128H61.2462C62.6222 108.128 63.6382 107.872 64.2942 107.36C64.9662 106.832 65.3022 106.008 65.3022 104.888C65.3022 103.752 64.9502 102.968 64.2462 102.536C63.5582 102.088 62.5262 101.864 61.1502 101.864H58.8942V108.128ZM70.4959 116V100.256H72.4879V114.296H79.3759V116H70.4959ZM82.1678 116V100.256H84.1598V116H82.1678ZM88.4725 116V100.256H90.5365L96.2245 110.144L97.9285 113.408H98.0245C97.9765 112.608 97.9205 111.784 97.8565 110.936C97.8085 110.072 97.7845 109.224 97.7845 108.392V100.256H99.6805V116H97.6165L91.9045 106.088L90.2005 102.848H90.1045C90.1685 103.632 90.2245 104.44 90.2725 105.272C90.3365 106.104 90.3685 106.936 90.3685 107.768V116H88.4725Z" fill="#512D5D"/>
<defs>
<clipPath id="clip0_119_2023">
<rect width="81" height="65" fill="white" transform="translate(25 21)"/>
</clipPath>
</defs>
</svg>
