<svg width="132" height="143" viewBox="0 0 132 143" fill="none" xmlns="http://www.w3.org/2000/svg">
<path d="M66 10.1992C45.6981 10.1992 29.2 26.6974 29.2 46.9992C29.2 67.3011 45.6981 83.7992 66 83.7992C86.3019 83.7992 102.8 67.3011 102.8 46.9992C102.8 26.6974 86.3019 10.1992 66 10.1992ZM66 13.3992C84.5717 13.3992 99.6 28.4275 99.6 46.9992C99.6 47.1134 99.5918 47.2259 99.5906 47.3398C98.5673 47.2454 97.3848 47.1557 95.8813 47.1023C93.7553 47.027 91.0756 47.0488 88.0375 47.1992C88.1502 46.4147 88.2291 45.619 88.2313 44.8023C88.3862 41.8062 87.38 39.0032 85.7438 36.5273C86.1391 35.1614 86.6028 33.4236 86.7188 31.4523C86.8509 29.2055 86.657 26.714 84.8531 25.0305L84.3906 24.5992H83.7594C79.4665 24.5992 76.5281 26.3964 74.7313 27.8211C72.1369 26.8169 69.2196 26.1992 66 26.1992C62.7622 26.1992 59.8169 26.8255 57.1156 27.8273C55.3199 26.4019 52.3789 24.5992 48.0813 24.5992H47.4531L46.9906 25.0273C45.2335 26.6589 45.0717 29.082 45.1813 31.318C45.2779 33.2896 45.7148 35.0826 46.1031 36.5148C44.4392 39.039 43.4406 41.9144 43.4406 44.7586C43.4406 45.5772 43.5168 46.3753 43.6281 47.1617C40.7389 47.0277 38.1634 47.0019 36.1188 47.0742C34.6152 47.1274 33.4327 47.2164 32.4094 47.3117C32.4084 47.2072 32.4 47.104 32.4 46.9992C32.4 28.4275 47.4283 13.3992 66 13.3992ZM49.0344 28.0086C52.2625 28.3145 54.6912 29.756 55.8156 30.7555L56.5656 31.418L57.4906 31.0398C60.021 29.9979 62.8432 29.3992 66 29.3992C69.1568 29.3992 71.9798 30.0009 74.3188 31.0242L75.2563 31.4367L76.0219 30.7555C77.1467 29.7556 79.5795 28.3137 82.8094 28.0086C83.2388 28.7206 83.612 29.7331 83.5219 31.2648C83.414 33.098 82.9237 35.0947 82.5531 36.2805L82.3125 37.0523L82.7906 37.7055C84.3738 39.8643 85.181 42.2007 85.0438 44.6711L85.0406 44.7148V44.7586C85.0406 48.7513 83.6029 51.947 80.5406 54.3148C77.4785 56.6827 72.6443 58.1992 65.8406 58.1992C59.037 58.1992 54.1997 56.6827 51.1375 54.3148C48.0753 51.947 46.6406 48.7513 46.6406 44.7586C46.6406 42.4151 47.4869 39.837 49.05 37.7055L49.5188 37.068L49.2938 36.3086C48.923 35.048 48.4685 33.0058 48.3781 31.1617C48.303 29.6279 48.666 28.6585 49.0344 28.0086ZM40.2156 48.6336C41.3463 48.648 42.6423 48.7091 43.9406 48.7742C44.0647 49.2731 44.2061 49.7639 44.3781 50.243C39.0864 50.3546 35.1276 50.8867 32.6875 51.343C32.5843 50.5424 32.5022 49.7353 32.4563 48.918C34.2595 48.7468 36.8016 48.59 40.2156 48.6336ZM91.7844 48.6586C95.1961 48.6153 97.7372 48.7723 99.5406 48.943C99.4948 49.7485 99.414 50.5443 99.3125 51.3336C96.7852 50.87 92.7195 50.3379 87.2906 50.2523C87.4591 49.7827 87.5994 49.3004 87.7219 48.8117C89.1541 48.735 90.5513 48.6743 91.7844 48.6586ZM45.0594 51.8305C46.0142 53.7437 47.3784 55.452 49.1813 56.8461C51.6461 58.7521 54.8506 60.0838 58.7625 60.7961C58.2507 61.3219 57.7853 61.8994 57.3719 62.5086L57.275 62.4242C57.2838 62.4141 56.4796 62.8166 55.2781 62.9242C54.0767 63.0318 52.5946 62.9992 51.2813 62.9992C49.3213 62.9992 48.4579 62.0732 47.0781 60.3867C46.3141 59.3569 45.3826 58.5229 44.4781 57.8898C43.552 57.2416 42.762 56.784 41.7844 56.6211L41.6531 56.5992H41.5188C40.7721 56.5992 40.0496 56.6533 39.375 57.4242C39.0377 57.8097 38.8053 58.5233 38.9563 59.1273C39.1073 59.7314 39.4894 60.1025 39.8313 60.3305C42.018 61.7883 42.4045 64.6736 43.775 67.2398C45.0549 69.7901 47.8171 70.9992 50.6406 70.9992H54.8V78.6836C43.5485 74.7121 35.0635 64.9266 32.9313 52.9242C35.3807 52.4629 39.4825 51.9082 45.0594 51.8305ZM86.6125 51.843C92.3129 51.8918 96.5297 52.4457 99.0719 52.9148C96.9425 64.9216 88.4545 74.711 77.2 78.6836V70.3586C77.2 67.8233 76.3674 65.0276 74.9188 62.6961C74.4789 61.9882 73.9615 61.3188 73.3844 60.718C77.0887 59.9862 80.1318 58.6773 82.5 56.8461C84.2989 55.4551 85.6602 53.7519 86.6125 51.843ZM63.9188 61.5586H68.4C69.7005 61.5586 71.0887 62.5951 72.2 64.3836C73.3113 66.1721 74 68.5739 74 70.3586V79.6367C71.4359 80.262 68.7581 80.5992 66 80.5992C63.2419 80.5992 60.5642 80.262 58 79.6367V70.3586C58 68.6134 58.7485 66.2173 59.9344 64.4211C61.1202 62.6249 62.6182 61.5586 63.9188 61.5586ZM45.6938 63.4492C47.079 64.886 48.7561 66.1992 51.2813 66.1992C52.5279 66.1992 54.084 66.2441 55.5625 66.1117C55.5678 66.1112 55.5729 66.1091 55.5781 66.1086C55.3833 66.6686 55.238 67.2321 55.1156 67.7992H50.6406C48.6673 67.7992 47.2732 67.0863 46.6313 65.8023L46.6188 65.7805L46.6094 65.7617C46.3463 65.2731 46.001 64.2962 45.6938 63.4492Z" fill="#512D5D"/>
<path d="M34.352 130.288C32.976 130.288 31.752 129.968 30.68 129.328C29.608 128.672 28.768 127.736 28.16 126.52C27.552 125.304 27.248 123.84 27.248 122.128C27.248 120.432 27.56 118.976 28.184 117.76C28.808 116.544 29.664 115.608 30.752 114.952C31.84 114.296 33.08 113.968 34.472 113.968C35.56 113.968 36.472 114.176 37.208 114.592C37.96 114.992 38.56 115.432 39.008 115.912L37.904 117.208C37.504 116.792 37.04 116.44 36.512 116.152C35.984 115.864 35.32 115.72 34.52 115.72C33.464 115.72 32.544 115.984 31.76 116.512C30.976 117.024 30.368 117.752 29.936 118.696C29.52 119.64 29.312 120.768 29.312 122.08C29.312 124.064 29.76 125.64 30.656 126.808C31.568 127.96 32.864 128.536 34.544 128.536C35.104 128.536 35.64 128.456 36.152 128.296C36.664 128.12 37.072 127.888 37.376 127.6V123.496H34.04V121.84H39.2V128.464C38.704 128.992 38.032 129.432 37.184 129.784C36.352 130.12 35.408 130.288 34.352 130.288ZM42.9725 130V114.256H44.9645V130H42.9725ZM52.5412 130V115.936H47.7892V114.256H59.3092V115.936H54.5572V130H52.5412ZM62.1444 130V114.256H64.1364V120.856H71.4564V114.256H73.4724V130H71.4564V122.584H64.1364V130H62.1444ZM83.3926 130.288C82.3206 130.288 81.3526 130.072 80.4886 129.64C79.6406 129.208 78.9686 128.496 78.4726 127.504C77.9766 126.512 77.7286 125.176 77.7286 123.496V114.256H79.7206V123.544C79.7206 124.808 79.8806 125.808 80.2006 126.544C80.5366 127.264 80.9766 127.776 81.5206 128.08C82.0806 128.384 82.7046 128.536 83.3926 128.536C84.0966 128.536 84.7286 128.384 85.2886 128.08C85.8486 127.776 86.2886 127.264 86.6086 126.544C86.9446 125.808 87.1126 124.808 87.1126 123.544V114.256H89.0326V123.496C89.0326 125.176 88.7846 126.512 88.2886 127.504C87.7926 128.496 87.1206 129.208 86.2726 129.64C85.4246 130.072 84.4646 130.288 83.3926 130.288ZM93.2694 130V114.256H97.9494C99.0214 114.256 99.9574 114.384 100.757 114.64C101.573 114.896 102.205 115.304 102.653 115.864C103.117 116.424 103.349 117.168 103.349 118.096C103.349 118.88 103.149 119.592 102.749 120.232C102.365 120.856 101.797 121.288 101.045 121.528V121.624C101.989 121.8 102.757 122.2 103.349 122.824C103.957 123.448 104.261 124.304 104.261 125.392C104.261 126.416 104.005 127.272 103.493 127.96C102.997 128.648 102.301 129.16 101.405 129.496C100.509 129.832 99.4694 130 98.2854 130H93.2694ZM95.2614 120.952H97.5894C98.9334 120.952 99.9014 120.72 100.493 120.256C101.085 119.792 101.381 119.16 101.381 118.36C101.381 117.448 101.069 116.8 100.445 116.416C99.8374 116.032 98.9174 115.84 97.6854 115.84H95.2614V120.952ZM95.2614 128.416H97.9974C99.3574 128.416 100.413 128.168 101.165 127.672C101.917 127.16 102.293 126.376 102.293 125.32C102.293 124.344 101.917 123.632 101.165 123.184C100.429 122.72 99.3734 122.488 97.9974 122.488H95.2614V128.416Z" fill="#512D5D"/>
</svg>
