<svg width="132" height="143" viewBox="0 0 132 143" fill="none" xmlns="http://www.w3.org/2000/svg">
<path d="M65.2827 32.3004L65.2805 32.2982L74.2148 28.0019C73.1892 26.9946 72.1635 26.9763 71.0463 27.892L70.7317 27.5034C70.7313 27.5037 70.7309 27.504 70.7305 27.5044C70.3218 27.8354 69.9572 28.2007 69.6234 28.553C68.3333 29.877 67.0116 31.2169 65.6291 32.6019C65.6157 32.5911 65.6026 32.5805 65.5898 32.5701C65.4716 32.4742 65.3736 32.3913 65.2827 32.3004ZM92.1804 46.3144C92.1835 45.5805 91.8075 44.9159 91.2017 44.3001L60.4053 28.1301L60.7562 27.7739C60.7559 27.7736 60.7556 27.7734 60.7554 27.7731C60.0925 27.1204 59.3838 26.7291 58.6098 26.7442C57.8401 26.7593 57.1377 27.1742 56.4803 27.8315L56.479 27.8328C54.0257 30.3045 51.5723 32.7578 49.1007 35.2111L49.1005 35.2114C46.1152 38.1783 43.1293 41.1459 40.1434 44.1318C39.4823 44.7929 39.0804 45.4996 39.0835 46.2708C39.0865 47.0408 39.4929 47.7415 40.1434 48.3921L40.1433 48.3921L40.1482 48.3969C41.5004 49.7124 42.8346 51.0467 44.1717 52.3838C45.5372 53.7615 46.9009 55.1395 48.2641 56.517C50.9768 59.2581 53.6874 61.9971 56.4056 64.7276C57.0983 65.4296 57.8224 65.8544 58.62 65.8392C59.4109 65.8241 60.128 65.3782 60.8138 64.6924C61.9261 63.58 63.0518 62.4856 64.2012 61.3681C64.6937 60.8893 65.1905 60.4063 65.6924 59.9159C66.4145 60.6468 67.1274 61.3716 67.8373 62.0933L67.878 62.1347C68.6884 62.9586 69.495 63.7787 70.3062 64.5989C71.0819 65.3839 71.8294 65.8959 72.6695 65.8804C73.5021 65.865 74.2482 65.3332 75.0283 64.5438C77.4582 62.0864 79.898 59.6501 82.3416 57.2099C83.1568 56.3959 83.9723 55.5814 84.7881 54.7657C85.3994 54.1544 86.0114 53.5454 86.6231 52.9366C88.1517 51.4155 89.6782 49.8965 91.1846 48.3508L91.1856 48.3498C91.7978 47.7178 92.1774 47.0461 92.1804 46.3144ZM105.455 46.4992C105.418 68.3847 87.7847 85.9638 65.9905 86C44.254 86.0361 26.3836 68.149 26.5464 46.2291C26.7092 24.6677 44.3473 6.94589 65.8253 7.00012C87.8604 7.0544 105.491 24.6358 105.455 46.4992Z" stroke="#512D5D"/>
<path d="M62.8962 36.317C59.9291 39.2107 57.0354 42.0129 54.1966 44.8518C53.2991 45.7309 53.3907 46.9397 54.3248 47.8737C57.0171 50.5843 59.7094 53.2583 62.4017 55.9689C62.5115 56.0788 62.6031 56.1887 62.6214 56.207C61.5225 57.3975 60.4603 58.5697 59.3431 59.6869C58.757 60.2546 58.1892 59.9433 57.6764 59.4305C54.8742 56.61 52.072 53.8078 49.2698 51.0056C48.061 49.7968 46.8522 48.588 45.6435 47.3792C44.7827 46.5001 44.7827 46.1704 45.6251 45.3463C49.6544 41.317 53.702 37.2694 57.7313 33.2401C58.5189 32.4525 58.8302 32.4708 59.6178 33.2401C60.6617 34.2108 61.6874 35.1815 62.8962 36.317Z" fill="#512D5D"/>
<path d="M11.9739 134.5L8.63794 118.756H10.7019L12.3579 127.324C12.5019 128.172 12.6539 129.02 12.8139 129.868C12.9739 130.716 13.1259 131.564 13.2699 132.412H13.3659C13.5419 131.564 13.7259 130.716 13.9179 129.868C14.1099 129.004 14.2939 128.156 14.4699 127.324L16.6539 118.756H18.4779L20.6619 127.324C20.8539 128.156 21.0459 129.004 21.2379 129.868C21.4299 130.716 21.6219 131.564 21.8139 132.412H21.9099C22.0539 131.564 22.1979 130.716 22.3419 129.868C22.4859 129.004 22.6379 128.156 22.7979 127.324L24.4539 118.756H26.3739L23.1099 134.5H20.7099L18.3339 125.02C18.1899 124.412 18.0539 123.82 17.9259 123.244C17.8139 122.652 17.6939 122.052 17.5659 121.444H17.4699C17.3579 122.052 17.2299 122.652 17.0859 123.244C16.9419 123.82 16.8059 124.412 16.6779 125.02L14.3499 134.5H11.9739ZM29.1131 134.5V118.756H31.1051V125.356H38.4251V118.756H40.4411V134.5H38.4251V127.084H31.1051V134.5H29.1131ZM44.7694 134.5V118.756H46.7614V134.5H44.7694ZM51.0741 134.5V118.756H53.4741L56.4981 127.156C56.6901 127.7 56.8741 128.252 57.0501 128.812C57.2421 129.356 57.4341 129.9 57.6261 130.444H57.7221C57.9141 129.9 58.0901 129.356 58.2501 128.812C58.4261 128.252 58.6101 127.7 58.8021 127.156L61.7781 118.756H64.2021V134.5H62.3301V125.836C62.3301 125.132 62.3621 124.356 62.4261 123.508C62.4901 122.644 62.5461 121.868 62.5941 121.18H62.4981L61.2501 124.756L58.2741 132.916H56.9541L53.9781 124.756L52.7301 121.18H52.6341C52.6821 121.868 52.7301 122.644 52.7781 123.508C52.8421 124.356 52.8741 125.132 52.8741 125.836V134.5H51.0741ZM72.8796 134.788C71.7756 134.788 70.7516 134.58 69.8076 134.164C68.8636 133.732 68.0476 133.164 67.3596 132.46L68.5596 131.068C69.1196 131.66 69.7756 132.14 70.5276 132.508C71.2956 132.86 72.0876 133.036 72.9036 133.036C73.9436 133.036 74.7516 132.804 75.3276 132.34C75.9036 131.86 76.1916 131.236 76.1916 130.468C76.1916 129.924 76.0716 129.492 75.8316 129.172C75.6076 128.852 75.2956 128.58 74.8956 128.356C74.5116 128.132 74.0716 127.908 73.5756 127.684L71.3196 126.7C70.8236 126.492 70.3276 126.22 69.8316 125.884C69.3516 125.548 68.9436 125.116 68.6076 124.588C68.2876 124.06 68.1276 123.412 68.1276 122.644C68.1276 121.844 68.3356 121.132 68.7516 120.508C69.1836 119.868 69.7756 119.372 70.5276 119.02C71.2796 118.652 72.1276 118.468 73.0716 118.468C74.0156 118.468 74.8876 118.652 75.6876 119.02C76.4876 119.372 77.1676 119.836 77.7276 120.412L76.6476 121.708C76.1676 121.244 75.6316 120.884 75.0396 120.628C74.4636 120.356 73.8076 120.22 73.0716 120.22C72.1916 120.22 71.4796 120.428 70.9356 120.844C70.4076 121.26 70.1436 121.82 70.1436 122.524C70.1436 123.02 70.2716 123.436 70.5276 123.772C70.7996 124.092 71.1356 124.356 71.5356 124.564C71.9356 124.772 72.3436 124.964 72.7596 125.14L74.9916 126.1C75.5996 126.356 76.1436 126.668 76.6236 127.036C77.1196 127.388 77.5116 127.828 77.7996 128.356C78.0876 128.868 78.2316 129.516 78.2316 130.3C78.2316 131.132 78.0156 131.892 77.5836 132.58C77.1516 133.252 76.5356 133.788 75.7356 134.188C74.9356 134.588 73.9836 134.788 72.8796 134.788ZM81.3319 134.5V118.756H83.3239V134.5H81.3319ZM93.5886 134.788C92.2766 134.788 91.1006 134.468 90.0606 133.828C89.0366 133.172 88.2206 132.236 87.6126 131.02C87.0206 129.804 86.7246 128.34 86.7246 126.628C86.7246 124.932 87.0286 123.476 87.6366 122.26C88.2446 121.044 89.0766 120.108 90.1326 119.452C91.1886 118.796 92.3806 118.468 93.7086 118.468C94.6686 118.468 95.5166 118.668 96.2526 119.068C96.9886 119.452 97.5806 119.9 98.0286 120.412L96.9486 121.708C96.5326 121.26 96.0606 120.9 95.5326 120.628C95.0046 120.356 94.4046 120.22 93.7326 120.22C92.7406 120.22 91.8686 120.484 91.1166 121.012C90.3806 121.524 89.8046 122.252 89.3886 123.196C88.9886 124.14 88.7886 125.268 88.7886 126.58C88.7886 127.892 88.9886 129.036 89.3886 130.012C89.7886 130.972 90.3486 131.716 91.0686 132.244C91.8046 132.772 92.6686 133.036 93.6606 133.036C94.4126 133.036 95.0846 132.876 95.6766 132.556C96.2686 132.236 96.8126 131.804 97.3086 131.26L98.4126 132.508C97.7886 133.228 97.0846 133.788 96.3006 134.188C95.5166 134.588 94.6126 134.788 93.5886 134.788ZM104.06 125.692L103.316 128.092H108.044L107.3 125.692C107.012 124.812 106.74 123.94 106.484 123.076C106.228 122.196 105.972 121.3 105.716 120.388H105.62C105.38 121.3 105.132 122.196 104.876 123.076C104.62 123.94 104.348 124.812 104.06 125.692ZM99.2595 134.5L104.588 118.756H106.844L112.172 134.5H110.036L108.548 129.7H102.812L101.3 134.5H99.2595ZM114.402 134.5V118.756H116.394V132.796H123.282V134.5H114.402Z" fill="#512D5D"/>
</svg>
