<svg width="132" height="143" viewBox="0 0 132 143" fill="none" xmlns="http://www.w3.org/2000/svg">
<path d="M66 14.1992C45.6949 14.1992 29.2 30.6941 29.2 50.9992C29.2 71.3043 45.6949 87.7992 66 87.7992C86.3052 87.7992 102.8 71.3043 102.8 50.9992C102.8 30.6941 86.3052 14.1992 66 14.1992ZM66 17.3992C84.5757 17.3992 99.6 32.4235 99.6 50.9992C99.6 69.5749 84.5757 84.5992 66 84.5992C47.4243 84.5992 32.4 69.5749 32.4 50.9992C32.4 32.4235 47.4243 17.3992 66 17.3992ZM75.0375 25.4023C72.2573 25.4486 69.2558 25.9762 66.3063 27.0242C60.6887 29.0194 54.6087 32.1534 50.2375 36.243C45.0391 41.1054 44.2092 45.3359 44.55 47.1055C45.7548 53.3455 54.3067 57.4251 57.8219 60.4523V60.4711C56.7851 60.9815 49.1994 64.8182 47.425 68.743C45.5514 72.8838 47.721 75.8555 49.1594 76.2555C53.6138 77.4955 58.183 75.2647 60.6406 71.6023C63.0102 68.0663 62.8148 63.5025 61.7844 61.2305C63.2052 60.8561 64.86 60.6857 66.9656 60.9305C72.9064 61.6249 74.0724 65.3347 73.85 66.8867C73.6276 68.4387 72.3816 69.2947 71.9656 69.5523C71.5496 69.8099 71.4211 69.8978 71.4563 70.0898C71.5075 70.3682 71.6979 70.36 72.0531 70.2992C72.5427 70.216 75.1755 69.0367 75.2875 66.1711C75.4315 62.5327 71.9416 58.4624 65.7688 58.568C63.2264 58.6112 61.6302 58.8548 60.475 59.2836C60.3902 59.186 60.3021 59.089 60.2125 58.993C56.3965 54.921 49.3383 52.0416 49.6375 46.568C49.7463 44.5776 50.437 39.3373 63.1938 32.9805C73.6434 27.7741 82.0115 29.2076 83.4563 32.3836C85.5219 36.9212 78.9841 45.352 68.1313 46.568C63.9969 47.032 61.8221 45.4304 61.2813 44.8336C60.7117 44.2048 60.6253 44.1762 60.4125 44.293C60.0653 44.485 60.2861 45.0415 60.4125 45.3711C60.7373 46.2143 62.0657 47.7083 64.3313 48.4523C66.3249 49.1067 71.1811 49.4681 77.0531 47.1961C83.6259 44.6521 88.7603 37.5753 87.2531 31.6617C86.1993 27.5268 81.154 25.3006 75.0375 25.4023ZM59.2781 62.3148C59.7709 64.1372 59.7182 65.835 59.2094 67.3742C59.1534 67.5454 59.0891 67.7172 59.0219 67.8836C58.9547 68.05 58.8815 68.2141 58.8031 68.3773C58.4111 69.1917 57.8839 69.9515 57.2375 70.6555C55.2695 72.8027 52.523 73.6153 51.3438 72.9305C50.0702 72.1929 50.7059 69.1667 52.9875 66.7555C55.4419 64.1603 58.975 62.493 58.975 62.493L58.9688 62.4805C59.0696 62.4277 59.1741 62.3724 59.2781 62.3148Z" fill="#512D5D"/>
<path d="M46.528 126.288C45.424 126.288 44.4 126.08 43.456 125.664C42.512 125.232 41.696 124.664 41.008 123.96L42.208 122.568C42.768 123.16 43.424 123.64 44.176 124.008C44.944 124.36 45.736 124.536 46.552 124.536C47.592 124.536 48.4 124.304 48.976 123.84C49.552 123.36 49.84 122.736 49.84 121.968C49.84 121.424 49.72 120.992 49.48 120.672C49.256 120.352 48.944 120.08 48.544 119.856C48.16 119.632 47.72 119.408 47.224 119.184L44.968 118.2C44.472 117.992 43.976 117.72 43.48 117.384C43 117.048 42.592 116.616 42.256 116.088C41.936 115.56 41.776 114.912 41.776 114.144C41.776 113.344 41.984 112.632 42.4 112.008C42.832 111.368 43.424 110.872 44.176 110.52C44.928 110.152 45.776 109.968 46.72 109.968C47.664 109.968 48.536 110.152 49.336 110.52C50.136 110.872 50.816 111.336 51.376 111.912L50.296 113.208C49.816 112.744 49.28 112.384 48.688 112.128C48.112 111.856 47.456 111.72 46.72 111.72C45.84 111.72 45.128 111.928 44.584 112.344C44.056 112.76 43.792 113.32 43.792 114.024C43.792 114.52 43.92 114.936 44.176 115.272C44.448 115.592 44.784 115.856 45.184 116.064C45.584 116.272 45.992 116.464 46.408 116.64L48.64 117.6C49.248 117.856 49.792 118.168 50.272 118.536C50.768 118.888 51.16 119.328 51.448 119.856C51.736 120.368 51.88 121.016 51.88 121.8C51.88 122.632 51.664 123.392 51.232 124.08C50.8 124.752 50.184 125.288 49.384 125.688C48.584 126.088 47.632 126.288 46.528 126.288ZM57.6923 117.192L56.9483 119.592H61.6763L60.9323 117.192C60.6443 116.312 60.3723 115.44 60.1163 114.576C59.8603 113.696 59.6043 112.8 59.3483 111.888H59.2523C59.0123 112.8 58.7643 113.696 58.5083 114.576C58.2523 115.44 57.9803 116.312 57.6923 117.192ZM52.8923 126L58.2203 110.256H60.4763L65.8043 126H63.6683L62.1803 121.2H56.4443L54.9323 126H52.8923ZM72.403 126.288C71.299 126.288 70.275 126.08 69.331 125.664C68.387 125.232 67.571 124.664 66.883 123.96L68.083 122.568C68.643 123.16 69.299 123.64 70.051 124.008C70.819 124.36 71.611 124.536 72.427 124.536C73.467 124.536 74.275 124.304 74.851 123.84C75.427 123.36 75.715 122.736 75.715 121.968C75.715 121.424 75.595 120.992 75.355 120.672C75.131 120.352 74.819 120.08 74.419 119.856C74.035 119.632 73.595 119.408 73.099 119.184L70.843 118.2C70.347 117.992 69.851 117.72 69.355 117.384C68.875 117.048 68.467 116.616 68.131 116.088C67.811 115.56 67.651 114.912 67.651 114.144C67.651 113.344 67.859 112.632 68.275 112.008C68.707 111.368 69.299 110.872 70.051 110.52C70.803 110.152 71.651 109.968 72.595 109.968C73.539 109.968 74.411 110.152 75.211 110.52C76.011 110.872 76.691 111.336 77.251 111.912L76.171 113.208C75.691 112.744 75.155 112.384 74.563 112.128C73.987 111.856 73.331 111.72 72.595 111.72C71.715 111.72 71.003 111.928 70.459 112.344C69.931 112.76 69.667 113.32 69.667 114.024C69.667 114.52 69.795 114.936 70.051 115.272C70.323 115.592 70.659 115.856 71.059 116.064C71.459 116.272 71.867 116.464 72.283 116.64L74.515 117.6C75.123 117.856 75.667 118.168 76.147 118.536C76.643 118.888 77.035 119.328 77.323 119.856C77.611 120.368 77.755 121.016 77.755 121.8C77.755 122.632 77.539 123.392 77.107 124.08C76.675 124.752 76.059 125.288 75.259 125.688C74.459 126.088 73.507 126.288 72.403 126.288ZM84.8952 126.288C83.7912 126.288 82.7672 126.08 81.8232 125.664C80.8792 125.232 80.0632 124.664 79.3752 123.96L80.5752 122.568C81.1352 123.16 81.7912 123.64 82.5432 124.008C83.3112 124.36 84.1032 124.536 84.9192 124.536C85.9592 124.536 86.7672 124.304 87.3432 123.84C87.9192 123.36 88.2072 122.736 88.2072 121.968C88.2072 121.424 88.0872 120.992 87.8472 120.672C87.6232 120.352 87.3112 120.08 86.9112 119.856C86.5272 119.632 86.0872 119.408 85.5912 119.184L83.3352 118.2C82.8392 117.992 82.3432 117.72 81.8472 117.384C81.3672 117.048 80.9592 116.616 80.6232 116.088C80.3032 115.56 80.1432 114.912 80.1432 114.144C80.1432 113.344 80.3512 112.632 80.7672 112.008C81.1992 111.368 81.7912 110.872 82.5432 110.52C83.2952 110.152 84.1432 109.968 85.0872 109.968C86.0312 109.968 86.9032 110.152 87.7032 110.52C88.5032 110.872 89.1832 111.336 89.7432 111.912L88.6632 113.208C88.1832 112.744 87.6472 112.384 87.0552 112.128C86.4792 111.856 85.8232 111.72 85.0872 111.72C84.2072 111.72 83.4952 111.928 82.9512 112.344C82.4232 112.76 82.1592 113.32 82.1592 114.024C82.1592 114.52 82.2872 114.936 82.5432 115.272C82.8152 115.592 83.1512 115.856 83.5512 116.064C83.9512 116.272 84.3592 116.464 84.7752 116.64L87.0072 117.6C87.6152 117.856 88.1592 118.168 88.6392 118.536C89.1352 118.888 89.5272 119.328 89.8152 119.856C90.1032 120.368 90.2472 121.016 90.2472 121.8C90.2472 122.632 90.0312 123.392 89.5992 124.08C89.1672 124.752 88.5512 125.288 87.7512 125.688C86.9512 126.088 85.9992 126.288 84.8952 126.288Z" fill="#512D5D"/>
</svg>
