<svg width="100" height="85" viewBox="0 0 100 85" fill="none" xmlns="http://www.w3.org/2000/svg">
<path d="M88.8782 12.4722C88.8098 29.1018 63.5188 29.1018 63.4503 12.4722C63.3819 -4.1574 88.8098 -4.1574 88.8782 12.4722Z" fill="#487382"/>
<path d="M75.5128 66.4673L40.0747 31.0695C46.0809 23.3706 57.4429 21.4887 64.5614 28.7427L99.9994 64.1405C93.9933 71.8394 82.6312 73.7042 75.4957 66.4502L75.5128 66.4673Z" fill="#487382"/>
<path d="M70.3799 71.1036L64.716 65.4406L54.1923 54.9017C52.2416 52.9513 50.3251 50.9838 48.3915 49.0163C46.7487 47.1173 44.8665 45.4578 42.7789 44.0548C40.2293 42.498 37.2861 41.6939 34.2915 41.7281C30.835 41.8479 27.5495 43.3021 25.1539 45.817L0 71.0009L13.2785 84.2773L35.0616 62.498L57.0499 84.4826L70.3799 71.1207V71.1036Z" fill="#487382"/>
</svg>
