<svg width="100" height="85" viewBox="0 0 100 85" fill="none" xmlns="http://www.w3.org/2000/svg">
<path d="M88.8781 12.4722C88.8096 29.1018 63.5187 29.1018 63.4502 12.4722C63.3818 -4.1574 88.8096 -4.1574 88.8781 12.4722Z" fill="#512D5D"/>
<path d="M75.5129 66.4673L40.0748 31.0695C46.081 23.3706 57.4431 21.4887 64.5615 28.7427L99.9996 64.1405C93.9934 71.8394 82.6313 73.7042 75.4958 66.4502L75.5129 66.4673Z" fill="#512D5D"/>
<path d="M70.3799 71.1036L64.716 65.4406L54.1923 54.9017C52.2416 52.9513 50.3251 50.9838 48.3915 49.0163C46.7487 47.1173 44.8665 45.4578 42.7789 44.0548C40.2293 42.498 37.2861 41.6939 34.2915 41.7281C30.835 41.8479 27.5495 43.3021 25.1539 45.817L0 71.0009L13.2785 84.2773L35.0616 62.498L57.0499 84.4826L70.3799 71.1207V71.1036Z" fill="#512D5D"/>
</svg>
