<svg width="210" height="77" viewBox="0 0 210 77" fill="none" xmlns="http://www.w3.org/2000/svg">
<path d="M0.32 60.912C1.81333 60.912 3.136 60.4 4.288 59.376C5.44 58.3093 6.016 56.4747 6.016 53.872V21.552L1.856 21.424V17.2H10.624V54.064C10.624 57.4773 9.87733 60.0373 8.384 61.744C6.93333 63.4507 4.672 64.3253 1.6 64.368L0.32 60.912ZM39.106 60.016C37.058 61.7653 34.3273 62.64 30.914 62.64C28.5247 62.64 26.306 62.192 24.258 61.296C22.21 60.4 20.546 58.992 19.266 57.072C18.0287 55.152 17.41 52.7627 17.41 49.904V29.808C17.41 26.8213 17.8793 24.432 18.818 22.64C19.7993 20.8053 21.186 19.3333 22.978 18.224C24.8553 17.1573 27.1593 16.624 29.89 16.624C33.218 16.624 36.226 17.328 38.914 18.736L37.57 22.32C35.266 21.4667 33.0687 21.04 30.978 21.04C25.0047 21.04 22.018 23.7707 22.018 29.232V50.032C22.018 52.6347 22.8287 54.64 24.45 56.048C26.0713 57.4133 28.2047 58.096 30.85 58.096C33.3247 58.096 35.33 57.392 36.866 55.984C38.4447 54.576 39.234 52.6133 39.234 50.096V47.28H35.202L33.666 42.8H43.714V62H39.874L39.106 60.016ZM74.633 62C70.025 62.4693 66.697 62.704 64.649 62.704C60.169 62.704 56.6063 61.872 53.961 60.208C51.3157 58.544 49.993 55.536 49.993 51.184V45.872C49.993 41.648 51.465 38.8107 54.409 37.36C55.817 36.6773 57.545 36.336 59.593 36.336C61.4703 36.336 63.369 36.6347 65.289 37.232C67.209 37.7867 68.7877 38.512 70.025 39.408C70.025 35.0133 67.017 32.816 61.001 32.816L61.321 29.424C65.417 29.424 68.425 30.0853 70.345 31.408C72.3077 32.688 73.5023 34.224 73.929 36.016C74.3983 37.808 74.633 40.112 74.633 42.928V62ZM70.025 43.568C68.5317 42.8427 66.889 42.2027 65.097 41.648C63.305 41.0507 61.6623 40.752 60.169 40.752C56.457 40.752 54.601 42.5867 54.601 46.256V51.248C54.601 56.112 57.929 58.544 64.585 58.544C65.9077 58.544 67.721 58.3947 70.025 58.096V43.568ZM81.9295 17.2H86.5375V62H81.9295V17.2ZM115.368 59.76C113.832 60.7413 112.082 61.488 110.12 62C108.157 62.512 106.194 62.768 104.232 62.768C101.074 62.768 98.5568 62 96.6795 60.464C94.8448 58.8853 93.9275 56.5387 93.9275 53.424V40.304C93.9275 36.848 94.9942 34.16 97.1275 32.24C99.3035 30.32 102.162 29.36 105.704 29.36C109.245 29.36 111.997 30.32 113.96 32.24C115.965 34.1173 116.968 36.7413 116.968 40.112V48.88L98.5355 49.84V53.168C98.5355 54.96 99.0902 56.304 100.2 57.2C101.309 58.096 102.824 58.544 104.744 58.544C107.517 58.544 110.482 57.6907 113.64 55.984L115.368 59.76ZM112.296 39.856C112.296 37.5947 111.592 35.9947 110.184 35.056C108.776 34.0747 107.261 33.584 105.64 33.584C103.506 33.584 101.778 34.16 100.456 35.312C99.1755 36.464 98.5355 38.1493 98.5355 40.368V45.488L112.296 44.784V39.856ZM146.446 62C141.838 62.4693 138.51 62.704 136.462 62.704C131.982 62.704 128.419 61.872 125.774 60.208C123.128 58.544 121.806 55.536 121.806 51.184V45.872C121.806 41.648 123.278 38.8107 126.222 37.36C127.63 36.6773 129.358 36.336 131.406 36.336C133.283 36.336 135.182 36.6347 137.102 37.232C139.022 37.7867 140.6 38.512 141.838 39.408C141.838 35.0133 138.83 32.816 132.814 32.816L133.134 29.424C137.23 29.424 140.238 30.0853 142.158 31.408C144.12 32.688 145.315 34.224 145.742 36.016C146.211 37.808 146.446 40.112 146.446 42.928V62ZM141.838 43.568C140.344 42.8427 138.702 42.2027 136.91 41.648C135.118 41.0507 133.475 40.752 131.982 40.752C128.27 40.752 126.414 42.5867 126.414 46.256V51.248C126.414 56.112 129.742 58.544 136.398 58.544C137.72 58.544 139.534 58.3947 141.838 58.096V43.568ZM171.854 40.56C171.854 38.256 171.15 36.5493 169.742 35.44C168.377 34.288 166.627 33.712 164.494 33.712C163.299 33.712 162.083 33.8827 160.846 34.224C159.609 34.5227 158.478 34.9707 157.454 35.568V62H152.846V29.936H157.198L157.262 31.6C158.243 30.9173 159.417 30.384 160.782 30C162.19 29.616 163.662 29.424 165.198 29.424C167.417 29.424 169.358 29.808 171.022 30.576C172.729 31.344 174.051 32.496 174.99 34.032C175.971 35.568 176.462 37.5093 176.462 39.856V62H171.854V40.56ZM209.614 50.224C209.614 53.808 208.633 56.7733 206.67 59.12C204.707 61.4667 201.742 62.64 197.774 62.64C193.806 62.64 190.798 61.4667 188.75 59.12C186.745 56.7307 185.742 53.7653 185.742 50.224V41.776C185.742 37.7227 186.766 34.6293 188.814 32.496C190.905 30.32 193.891 29.232 197.774 29.232C201.486 29.232 204.387 30.3627 206.478 32.624C208.569 34.8427 209.614 37.8933 209.614 41.776V50.224ZM205.006 41.776C205.006 36.3573 202.595 33.648 197.774 33.648C195.513 33.648 193.699 34.288 192.334 35.568C191.011 36.848 190.35 38.9173 190.35 41.776V50.864C190.35 53.168 191.011 55.0027 192.334 56.368C193.699 57.6907 195.513 58.352 197.774 58.352C200.035 58.352 201.806 57.6907 203.086 56.368C204.366 55.0027 205.006 53.168 205.006 50.864V41.776Z" fill="#865297"/>
</svg>
