<svg width="131" height="48" viewBox="0 0 131 48" fill="none" xmlns="http://www.w3.org/2000/svg">
<path d="M0.199481 38.3218C1.13039 38.3218 1.95491 38.0026 2.67304 37.3643C3.39117 36.6993 3.75023 35.5556 3.75023 33.9332V13.7857L1.15699 13.7059V11.0727H6.62275V34.0529C6.62275 36.1807 6.1573 37.7765 5.22639 38.8404C4.32208 39.9043 2.91242 40.4496 0.997403 40.4762L0.199481 38.3218ZM24.3778 37.7632C23.1011 38.8537 21.3989 39.399 19.2711 39.399C17.7816 39.399 16.3985 39.1197 15.1219 38.5611C13.8452 38.0026 12.8079 37.1249 12.01 35.928C11.2386 34.7311 10.853 33.2417 10.853 31.4596V18.9323C10.853 17.0704 11.1456 15.581 11.7307 14.4639C12.3424 13.3202 13.2069 12.4026 14.3239 11.7111C15.4942 11.0461 16.9305 10.7137 18.6327 10.7137C20.7073 10.7137 22.5824 11.1525 24.2581 12.0302L23.4203 14.2644C21.984 13.7325 20.6142 13.4665 19.311 13.4665C15.5873 13.4665 13.7255 15.1687 13.7255 18.5732V31.5394C13.7255 33.1619 14.2309 34.4119 15.2416 35.2897C16.2523 36.1408 17.5821 36.5663 19.2312 36.5663C20.7738 36.5663 22.0239 36.1275 22.9814 35.2498C23.9655 34.3721 24.4576 33.1486 24.4576 31.5793V29.8239H21.9441L20.9866 27.0312H27.2503V39H24.8565L24.3778 37.7632ZM46.5245 39C43.6519 39.2926 41.5774 39.4389 40.3007 39.4389C37.5079 39.4389 35.2871 38.9202 33.638 37.8829C31.989 36.8456 31.1645 34.9705 31.1645 32.2576V28.9462C31.1645 26.313 32.0821 24.5443 33.9173 23.64C34.795 23.2144 35.8722 23.0017 37.1489 23.0017C38.3192 23.0017 39.5028 23.1878 40.6996 23.5602C41.8965 23.906 42.8806 24.3581 43.6519 24.9167C43.6519 22.1771 41.7768 20.8074 38.0266 20.8074L38.2261 18.6929C40.7794 18.6929 42.6545 19.1051 43.8514 19.9297C45.0749 20.7276 45.8196 21.6851 46.0856 22.8022C46.3782 23.9193 46.5245 25.3555 46.5245 27.111V39ZM43.6519 27.5099C42.721 27.0578 41.697 26.6588 40.5799 26.313C39.4629 25.9407 38.4389 25.7545 37.5079 25.7545C35.194 25.7545 34.037 26.8982 34.037 29.1856V32.2975C34.037 35.3296 36.1116 36.8456 40.2608 36.8456C41.0853 36.8456 42.2157 36.7525 43.6519 36.5663V27.5099ZM51.0729 11.0727H53.9455V39H51.0729V11.0727ZM71.9174 37.6036C70.9599 38.2154 69.8694 38.6808 68.6459 39C67.4224 39.3192 66.199 39.4788 64.9755 39.4788C63.0073 39.4788 61.438 39 60.2677 38.0425C59.124 37.0584 58.5522 35.5955 58.5522 33.6539V25.4752C58.5522 23.3208 59.2171 21.6452 60.547 20.4483C61.9035 19.2514 63.6855 18.653 65.8931 18.653C68.1007 18.653 69.8162 19.2514 71.0397 20.4483C72.2898 21.6186 72.9148 23.2543 72.9148 25.3555V30.8213L61.4247 31.4197V33.4943C61.4247 34.6114 61.7705 35.4492 62.462 36.0078C63.1536 36.5663 64.0978 36.8456 65.2946 36.8456C67.0235 36.8456 68.872 36.3137 70.8402 35.2498L71.9174 37.6036ZM70.0024 25.1959C70.0024 23.7863 69.5635 22.7889 68.6858 22.2037C67.8081 21.592 66.8639 21.2861 65.8532 21.2861C64.5233 21.2861 63.4461 21.6452 62.6216 22.3633C61.8237 23.0815 61.4247 24.1321 61.4247 25.5151V28.7068L70.0024 28.2679V25.1959ZM91.2907 39C88.4182 39.2926 86.3436 39.4389 85.0669 39.4389C82.2742 39.4389 80.0533 38.9202 78.4043 37.8829C76.7552 36.8456 75.9307 34.9705 75.9307 32.2576V28.9462C75.9307 26.313 76.8483 24.5443 78.6835 23.64C79.5612 23.2144 80.6384 23.0017 81.9151 23.0017C83.0854 23.0017 84.269 23.1878 85.4659 23.5602C86.6628 23.906 87.6469 24.3581 88.4182 24.9167C88.4182 22.1771 86.5431 20.8074 82.7928 20.8074L82.9923 18.6929C85.5457 18.6929 87.4208 19.1051 88.6177 19.9297C89.8411 20.7276 90.5859 21.6851 90.8518 22.8022C91.1444 23.9193 91.2907 25.3555 91.2907 27.111V39ZM88.4182 27.5099C87.4873 27.0578 86.4633 26.6588 85.3462 26.313C84.2291 25.9407 83.2051 25.7545 82.2742 25.7545C79.9602 25.7545 78.8032 26.8982 78.8032 29.1856V32.2975C78.8032 35.3296 80.8778 36.8456 85.027 36.8456C85.8515 36.8456 86.9819 36.7525 88.4182 36.5663V27.5099ZM107.13 25.6348C107.13 24.1985 106.691 23.1346 105.813 22.4431C104.962 21.725 103.872 21.3659 102.542 21.3659C101.797 21.3659 101.039 21.4723 100.268 21.6851C99.4963 21.8713 98.7915 22.1505 98.1531 22.5229V39H95.2806V19.0121H97.9936L98.0335 20.0494C98.6452 19.6238 99.3766 19.2913 100.228 19.0519C101.105 18.8126 102.023 18.6929 102.981 18.6929C104.364 18.6929 105.574 18.9323 106.611 19.411C107.675 19.8898 108.5 20.6079 109.085 21.5654C109.696 22.5229 110.002 23.7331 110.002 25.1959V39H107.13V25.6348ZM130.668 31.6591C130.668 33.8933 130.057 35.7418 128.833 37.2047C127.61 38.6675 125.761 39.399 123.288 39.399C120.814 39.399 118.939 38.6675 117.662 37.2047C116.412 35.7152 115.787 33.8667 115.787 31.6591V26.3928C115.787 23.8661 116.426 21.9378 117.702 20.6079C119.006 19.2514 120.867 18.5732 123.288 18.5732C125.602 18.5732 127.41 19.278 128.714 20.6877C130.017 22.0708 130.668 23.9725 130.668 26.3928V31.6591ZM127.796 26.3928C127.796 23.015 126.293 21.326 123.288 21.326C121.878 21.326 120.748 21.725 119.897 22.5229C119.072 23.3208 118.66 24.6108 118.66 26.3928V32.0581C118.66 33.4943 119.072 34.638 119.897 35.4891C120.748 36.3137 121.878 36.7259 123.288 36.7259C124.697 36.7259 125.801 36.3137 126.599 35.4891C127.397 34.638 127.796 33.4943 127.796 32.0581V26.3928Z" fill="#667F9A"/>
</svg>
