<svg width="1286" height="143" viewBox="0 0 1286 143" fill="none" xmlns="http://www.w3.org/2000/svg">
<path d="M65.43 3.56055C57.0952 3.56055 50.3 10.3557 50.3 18.6905C50.3 24.5651 53.7709 29.5358 58.682 32.0405C53.7709 34.5453 50.3 39.516 50.3 45.3905C50.3 51.2651 53.7709 56.2358 58.682 58.7405C53.7709 61.2453 50.3 66.216 50.3 72.0906C50.3 80.4254 57.0952 87.2206 65.43 87.2206C73.7648 87.2206 80.56 80.4254 80.56 72.0906V58.7405V52.7887C82.9476 57.3196 87.5591 60.5205 93.02 60.5205C100.863 60.5205 107.26 54.124 107.26 46.2805C107.26 39.8338 102.857 34.5836 96.9624 32.8402C102.905 30.7976 107.26 25.3125 107.26 18.6905C107.26 10.3557 100.465 3.56055 92.13 3.56055H78.78H65.43ZM65.43 7.12055H77V30.2605H65.43C59.0193 30.2605 53.86 25.1013 53.86 18.6905C53.86 12.2798 59.0193 7.12055 65.43 7.12055ZM80.56 7.12055H92.13C98.5407 7.12055 103.7 12.2798 103.7 18.6905C103.7 25.1013 98.5407 30.2605 92.13 30.2605H80.56V7.12055ZM65.43 33.8205H77V56.9605H65.43C59.0193 56.9605 53.86 51.8013 53.86 45.3905C53.86 38.9798 59.0193 33.8205 65.43 33.8205ZM80.56 33.8205H86.5119C83.9577 35.1665 81.9059 37.2183 80.56 39.7724V33.8205ZM93.02 35.6005C98.9395 35.6005 103.7 40.3611 103.7 46.2805C103.7 52.2 98.9395 56.9605 93.02 56.9605C87.1005 56.9605 82.34 52.2 82.34 46.2805C82.34 40.3611 87.1005 35.6005 93.02 35.6005ZM65.43 60.5205H77V72.0906C77 78.5013 71.8407 83.6606 65.43 83.6606C59.0193 83.6606 53.86 78.5013 53.86 72.0906C53.86 65.6798 59.0193 60.5205 65.43 60.5205Z" fill="#512D5D"/>
<path d="M47.4256 137V121.256H56.4976V122.936H49.4176V128.264H55.4176V129.944H49.4176V137H47.4256ZM59.285 137V121.256H61.277V137H59.285ZM71.7817 137.288C70.4057 137.288 69.1817 136.968 68.1097 136.328C67.0377 135.672 66.1977 134.736 65.5897 133.52C64.9817 132.304 64.6777 130.84 64.6777 129.128C64.6777 127.432 64.9897 125.976 65.6137 124.76C66.2377 123.544 67.0937 122.608 68.1817 121.952C69.2697 121.296 70.5097 120.968 71.9017 120.968C72.9897 120.968 73.9017 121.176 74.6377 121.592C75.3897 121.992 75.9897 122.432 76.4377 122.912L75.3337 124.208C74.9337 123.792 74.4697 123.44 73.9417 123.152C73.4137 122.864 72.7497 122.72 71.9497 122.72C70.8937 122.72 69.9737 122.984 69.1897 123.512C68.4057 124.024 67.7977 124.752 67.3657 125.696C66.9497 126.64 66.7417 127.768 66.7417 129.08C66.7417 131.064 67.1897 132.64 68.0857 133.808C68.9977 134.96 70.2937 135.536 71.9737 135.536C72.5337 135.536 73.0697 135.456 73.5817 135.296C74.0937 135.12 74.5017 134.888 74.8057 134.6V130.496H71.4697V128.84H76.6297V135.464C76.1337 135.992 75.4617 136.432 74.6137 136.784C73.7817 137.12 72.8377 137.288 71.7817 137.288ZM80.4022 137V121.256H82.8022L85.8262 129.656C86.0182 130.2 86.2022 130.752 86.3782 131.312C86.5702 131.856 86.7622 132.4 86.9542 132.944H87.0502C87.2422 132.4 87.4182 131.856 87.5782 131.312C87.7542 130.752 87.9382 130.2 88.1302 129.656L91.1062 121.256H93.5302V137H91.6582V128.336C91.6582 127.632 91.6902 126.856 91.7542 126.008C91.8182 125.144 91.8742 124.368 91.9222 123.68H91.8262L90.5782 127.256L87.6022 135.416H86.2822L83.3062 127.256L82.0582 123.68H81.9622C82.0102 124.368 82.0582 125.144 82.1062 126.008C82.1702 126.856 82.2022 127.632 82.2022 128.336V137H80.4022ZM100.552 128.192L99.8077 130.592H104.536L103.792 128.192C103.504 127.312 103.232 126.44 102.976 125.576C102.72 124.696 102.464 123.8 102.208 122.888H102.112C101.872 123.8 101.624 124.696 101.368 125.576C101.112 126.44 100.84 127.312 100.552 128.192ZM95.7517 137L101.08 121.256H103.336L108.664 137H106.528L105.04 132.2H99.3037L97.7917 137H95.7517Z" fill="#512D5D"/>
<path d="M349.2 4C340.819 4 334 10.819 334 19.2V64.8C334 73.181 340.819 80 349.2 80H394.8C403.181 80 410 73.181 410 64.8V19.2C410 10.819 403.181 4 394.8 4H349.2ZM349.2 6.33846H394.8C401.891 6.33846 407.662 12.1086 407.662 19.2V64.8C407.662 71.8914 401.891 77.6615 394.8 77.6615H349.2C342.109 77.6615 336.338 71.8914 336.338 64.8V19.2C336.338 12.1086 342.109 6.33846 349.2 6.33846ZM352.518 9.84615C345.531 9.84615 339.846 15.5297 339.846 22.5159V61.4819C339.846 68.4692 345.531 74.1538 352.518 74.1538H391.482C398.469 74.1538 404.154 68.4692 404.154 61.4819V39.6615C404.154 39.3388 403.892 39.0769 403.569 39.0769C403.247 39.0769 402.985 39.3388 402.985 39.6615V61.4819C402.985 67.8238 397.824 72.9846 391.482 72.9846H352.518C346.176 72.9846 341.015 67.8238 341.015 61.4819V22.5159C341.015 16.174 346.176 11.0154 352.518 11.0154H391.877C392.2 11.0154 392.462 10.7535 392.462 10.4308C392.462 10.1081 392.2 9.84615 391.877 9.84615H352.518ZM355.631 26.2154C355.308 26.2154 355.046 26.4773 355.046 26.8V54.8615C355.046 55.1842 355.308 55.4462 355.631 55.4462H359.138C359.461 55.4462 359.723 55.1842 359.723 54.8615V44.9231H361.637C363.395 44.9231 365.06 44.7015 366.583 44.2677C368.12 43.8304 369.478 43.193 370.618 42.3722C371.774 41.5409 372.688 40.5172 373.336 39.3281C373.99 38.1297 374.32 36.7699 374.32 35.2838C374.319 33.7731 374.011 32.4308 373.402 31.2897C372.797 30.1555 371.946 29.1952 370.874 28.4328C369.818 27.6833 368.566 27.1191 367.156 26.7543C365.767 26.3954 364.248 26.2154 362.637 26.2154H355.631ZM403.569 26.2154C403.247 26.2154 402.985 26.4773 402.985 26.8V29.1385C402.985 29.4612 403.247 29.7231 403.569 29.7231C403.892 29.7231 404.154 29.4612 404.154 29.1385V26.8C404.154 26.4773 403.892 26.2154 403.569 26.2154ZM356.215 27.3869H362.637C364.149 27.3869 365.573 27.5549 366.866 27.8893C368.138 28.2167 369.26 28.7221 370.2 29.3874C371.123 30.0445 371.853 30.8707 372.372 31.8423C372.889 32.8116 373.151 33.9706 373.151 35.2883C373.15 36.5733 372.867 37.7455 372.308 38.7709C371.745 39.8045 370.946 40.6972 369.936 41.4268C368.905 42.1693 367.671 42.7465 366.266 43.1464C364.846 43.5509 363.288 43.7561 361.637 43.7561H359.138C358.816 43.7561 358.554 44.018 358.554 44.3407V54.2792H356.215V27.3869ZM359.138 29.7231C358.816 29.7231 358.554 29.985 358.554 30.3077V40.8308C358.554 41.1535 358.816 41.4154 359.138 41.4154H361.331C362.563 41.4154 363.717 41.2833 364.759 41.0249C365.813 40.7641 366.749 40.3702 367.535 39.8534C368.339 39.3249 368.971 38.6689 369.417 37.9054C369.871 37.1302 370.1 36.2374 370.1 35.2564C370.1 34.2438 369.874 33.3685 369.429 32.6553C368.994 31.9619 368.395 31.3846 367.645 30.938C366.92 30.5077 366.06 30.19 365.087 29.9994C364.145 29.8147 363.138 29.7231 362.091 29.7231H359.138ZM359.723 30.8923H362.091C363.063 30.8923 363.995 30.9785 364.864 31.1481C365.703 31.3141 366.438 31.5803 367.047 31.9428C367.643 32.2982 368.097 32.7362 368.438 33.2787C368.765 33.8025 368.931 34.4683 368.931 35.2587C368.931 36.0409 368.761 36.713 368.408 37.3139C368.052 37.9219 367.543 38.4469 366.891 38.876C366.217 39.3203 365.404 39.6619 364.478 39.8899C363.527 40.1249 362.468 40.2462 361.331 40.2462H359.723V30.8923ZM403.569 30.8923C403.247 30.8923 402.985 31.1542 402.985 31.4769V36.1538C402.985 36.4766 403.247 36.7385 403.569 36.7385C403.892 36.7385 404.154 36.4766 404.154 36.1538V31.4769C404.154 31.1542 403.892 30.8923 403.569 30.8923ZM382.498 34.1031C381.467 34.0919 380.439 34.197 379.463 34.432C378.531 34.6565 377.694 35.02 376.976 35.5076C376.246 36.0057 375.648 36.6495 375.199 37.4236C374.742 38.2116 374.512 39.1612 374.512 40.2439C374.512 41.2424 374.73 42.1187 375.161 42.8518C375.574 43.558 376.116 44.1856 376.768 44.7153C377.406 45.2332 378.117 45.6829 378.883 46.0512C379.618 46.4055 380.368 46.7297 381.098 47.0103C381.625 47.2325 382.134 47.4551 382.619 47.6749C383.074 47.8842 383.471 48.1123 383.802 48.3531C384.105 48.5741 384.354 48.8339 384.54 49.1227C384.704 49.3799 384.784 49.6686 384.784 50.0065C384.784 50.7419 384.488 51.2398 383.854 51.5731C383.115 51.9613 382.18 52.1577 381.075 52.1577C379.98 52.1577 378.977 52.0388 378.093 51.8014C377.177 51.5547 376.359 51.2785 375.663 50.9839C375.502 50.9126 375.318 50.9214 375.163 51.0044C375.009 51.0851 374.898 51.2299 374.861 51.4018L374.231 54.3911C374.17 54.6589 374.308 54.9308 374.555 55.0442C374.948 55.2243 375.421 55.399 375.96 55.5581C376.498 55.7182 377.06 55.8545 377.631 55.9691C378.201 56.0837 378.786 56.1721 379.372 56.2317C379.954 56.2902 380.512 56.3185 381.03 56.3185C382.232 56.3185 383.364 56.1625 384.396 55.8526C385.437 55.5405 386.356 55.0919 387.125 54.519C387.906 53.9379 388.528 53.2231 388.974 52.3906C389.426 51.55 389.655 50.5951 389.655 49.5475C389.655 48.3899 389.347 47.3792 388.741 46.549C388.172 45.7703 387.495 45.1101 386.727 44.5828C385.985 44.073 385.222 43.6484 384.457 43.3245C383.736 43.0194 383.193 42.7848 382.847 42.6234C382.446 42.4247 382.019 42.2217 381.559 42.0206C381.143 41.8405 380.751 41.6364 380.395 41.4131C380.072 41.2097 379.809 40.9838 379.611 40.7394C379.458 40.55 379.383 40.318 379.383 40.0315C379.383 39.1476 379.775 38.8497 380.07 38.7024C381.22 38.126 383.121 38.1516 384.83 38.5585C385.669 38.7596 386.488 39.0499 387.259 39.4218C387.422 39.5001 387.608 39.5001 387.769 39.4218C387.93 39.3434 388.045 39.1952 388.084 39.0198L388.716 36.1584C388.774 35.9 388.648 35.6349 388.413 35.5121C387.558 35.0713 386.592 34.7232 385.542 34.4754C384.561 34.2433 383.529 34.1144 382.498 34.1031ZM382.503 35.2746C383.442 35.2863 384.382 35.4044 385.275 35.6149C386.069 35.8032 386.806 36.0519 387.474 36.3594L387.097 38.0698C386.453 37.8021 385.784 37.5873 385.101 37.4236C383.125 36.9547 380.956 36.9514 379.547 37.6565C378.938 37.9605 378.214 38.6202 378.214 40.0315C378.214 40.588 378.38 41.0738 378.703 41.4725C378.98 41.8162 379.34 42.1284 379.771 42.3996C380.177 42.6557 380.62 42.8904 381.089 43.0939C381.529 43.2868 381.942 43.4786 382.34 43.6762C382.709 43.8469 383.263 44.0903 384.001 44.4001C384.693 44.6936 385.387 45.0789 386.065 45.5442C386.723 45.9967 387.306 46.5676 387.796 47.2387C388.259 47.8736 388.483 48.6285 388.483 49.5475C388.483 50.3998 388.302 51.1704 387.944 51.838C387.58 52.5173 387.068 53.1034 386.426 53.5804C385.768 54.0715 384.971 54.4578 384.06 54.7314C382.728 55.1289 381.258 55.2413 379.488 55.0671C378.941 55.0109 378.393 54.9291 377.86 54.8227C377.316 54.714 376.794 54.5864 376.291 54.4368C375.992 54.3479 375.717 54.2552 375.471 54.1605L375.859 52.3244C376.444 52.5419 377.088 52.7436 377.784 52.9319C378.768 53.1973 379.874 53.3292 381.073 53.3292C382.37 53.3292 383.486 53.0869 384.396 52.6099C385.413 52.0755 385.951 51.1757 385.951 50.0088C385.951 49.4487 385.806 48.9414 385.522 48.4947C385.257 48.0831 384.91 47.7186 384.489 47.4123C384.096 47.1246 383.63 46.855 383.103 46.613C382.607 46.3873 382.088 46.1617 381.534 45.9279C380.818 45.6531 380.097 45.3399 379.39 44.9984C378.707 44.6711 378.073 44.2717 377.506 43.8087C376.961 43.3667 376.51 42.8472 376.168 42.2626C375.844 41.7107 375.681 41.0319 375.681 40.2439C375.681 39.3705 375.86 38.6173 376.213 38.0105C376.573 37.3884 377.051 36.8722 377.634 36.4758C378.235 36.0666 378.942 35.7633 379.737 35.5715C380.624 35.3564 381.563 35.2629 382.503 35.2746Z" fill="#512D5D"/>
<path d="M308.746 133V117.256H313.234C314.418 117.256 315.45 117.4 316.33 117.688C317.21 117.976 317.898 118.464 318.394 119.152C318.89 119.824 319.138 120.736 319.138 121.888C319.138 123.536 318.602 124.76 317.53 125.56C316.458 126.36 315.058 126.76 313.33 126.76H310.738V133H308.746ZM310.738 125.128H313.09C314.466 125.128 315.482 124.872 316.138 124.36C316.81 123.832 317.146 123.008 317.146 121.888C317.146 120.752 316.794 119.968 316.09 119.536C315.402 119.088 314.37 118.864 312.994 118.864H310.738V125.128ZM322.34 133V117.256H324.332V123.856H331.652V117.256H333.668V133H331.652V125.584H324.332V133H322.34ZM343.804 133.288C342.492 133.288 341.324 132.952 340.3 132.28C339.292 131.608 338.5 130.656 337.924 129.424C337.364 128.192 337.084 126.736 337.084 125.056C337.084 123.376 337.364 121.936 337.924 120.736C338.5 119.52 339.292 118.592 340.3 117.952C341.324 117.296 342.492 116.968 343.804 116.968C345.132 116.968 346.3 117.296 347.308 117.952C348.316 118.592 349.108 119.52 349.684 120.736C350.26 121.936 350.548 123.376 350.548 125.056C350.548 126.736 350.26 128.192 349.684 129.424C349.108 130.656 348.316 131.608 347.308 132.28C346.3 132.952 345.132 133.288 343.804 133.288ZM343.804 131.536C344.748 131.536 345.564 131.272 346.252 130.744C346.956 130.2 347.5 129.448 347.884 128.488C348.268 127.512 348.46 126.368 348.46 125.056C348.46 123.104 348.036 121.56 347.188 120.424C346.34 119.288 345.212 118.72 343.804 118.72C342.396 118.72 341.268 119.288 340.42 120.424C339.572 121.56 339.148 123.104 339.148 125.056C339.148 126.368 339.34 127.512 339.724 128.488C340.108 129.448 340.652 130.2 341.356 130.744C342.06 131.272 342.876 131.536 343.804 131.536ZM356.612 133V118.936H351.86V117.256H363.38V118.936H358.628V133H356.612ZM371.437 133.288C370.125 133.288 368.957 132.952 367.933 132.28C366.925 131.608 366.133 130.656 365.557 129.424C364.997 128.192 364.717 126.736 364.717 125.056C364.717 123.376 364.997 121.936 365.557 120.736C366.133 119.52 366.925 118.592 367.933 117.952C368.957 117.296 370.125 116.968 371.437 116.968C372.765 116.968 373.933 117.296 374.941 117.952C375.949 118.592 376.741 119.52 377.317 120.736C377.893 121.936 378.181 123.376 378.181 125.056C378.181 126.736 377.893 128.192 377.317 129.424C376.741 130.656 375.949 131.608 374.941 132.28C373.933 132.952 372.765 133.288 371.437 133.288ZM371.437 131.536C372.381 131.536 373.197 131.272 373.885 130.744C374.589 130.2 375.133 129.448 375.517 128.488C375.901 127.512 376.093 126.368 376.093 125.056C376.093 123.104 375.669 121.56 374.821 120.424C373.973 119.288 372.845 118.72 371.437 118.72C370.029 118.72 368.901 119.288 368.053 120.424C367.205 121.56 366.781 123.104 366.781 125.056C366.781 126.368 366.973 127.512 367.357 128.488C367.741 129.448 368.285 130.2 368.989 130.744C369.693 131.272 370.509 131.536 371.437 131.536ZM385.934 133.288C384.83 133.288 383.806 133.08 382.862 132.664C381.918 132.232 381.102 131.664 380.414 130.96L381.614 129.568C382.174 130.16 382.83 130.64 383.582 131.008C384.35 131.36 385.142 131.536 385.958 131.536C386.998 131.536 387.806 131.304 388.382 130.84C388.958 130.36 389.246 129.736 389.246 128.968C389.246 128.424 389.126 127.992 388.886 127.672C388.662 127.352 388.35 127.08 387.95 126.856C387.566 126.632 387.126 126.408 386.63 126.184L384.374 125.2C383.878 124.992 383.382 124.72 382.886 124.384C382.406 124.048 381.998 123.616 381.662 123.088C381.342 122.56 381.182 121.912 381.182 121.144C381.182 120.344 381.39 119.632 381.806 119.008C382.238 118.368 382.83 117.872 383.582 117.52C384.334 117.152 385.182 116.968 386.126 116.968C387.07 116.968 387.942 117.152 388.742 117.52C389.542 117.872 390.222 118.336 390.782 118.912L389.702 120.208C389.222 119.744 388.686 119.384 388.094 119.128C387.518 118.856 386.862 118.72 386.126 118.72C385.246 118.72 384.534 118.928 383.99 119.344C383.462 119.76 383.198 120.32 383.198 121.024C383.198 121.52 383.326 121.936 383.582 122.272C383.854 122.592 384.19 122.856 384.59 123.064C384.99 123.272 385.398 123.464 385.814 123.64L388.046 124.6C388.654 124.856 389.198 125.168 389.678 125.536C390.174 125.888 390.566 126.328 390.854 126.856C391.142 127.368 391.286 128.016 391.286 128.8C391.286 129.632 391.07 130.392 390.638 131.08C390.206 131.752 389.59 132.288 388.79 132.688C387.99 133.088 387.038 133.288 385.934 133.288ZM394.387 133V117.256H396.379V123.856H403.699V117.256H405.715V133H403.699V125.584H396.379V133H394.387ZM415.851 133.288C414.539 133.288 413.371 132.952 412.347 132.28C411.339 131.608 410.547 130.656 409.971 129.424C409.411 128.192 409.131 126.736 409.131 125.056C409.131 123.376 409.411 121.936 409.971 120.736C410.547 119.52 411.339 118.592 412.347 117.952C413.371 117.296 414.539 116.968 415.851 116.968C417.179 116.968 418.347 117.296 419.355 117.952C420.363 118.592 421.155 119.52 421.731 120.736C422.307 121.936 422.595 123.376 422.595 125.056C422.595 126.736 422.307 128.192 421.731 129.424C421.155 130.656 420.363 131.608 419.355 132.28C418.347 132.952 417.179 133.288 415.851 133.288ZM415.851 131.536C416.795 131.536 417.611 131.272 418.299 130.744C419.003 130.2 419.547 129.448 419.931 128.488C420.315 127.512 420.507 126.368 420.507 125.056C420.507 123.104 420.083 121.56 419.235 120.424C418.387 119.288 417.259 118.72 415.851 118.72C414.443 118.72 413.315 119.288 412.467 120.424C411.619 121.56 411.195 123.104 411.195 125.056C411.195 126.368 411.387 127.512 411.771 128.488C412.155 129.448 412.699 130.2 413.403 130.744C414.107 131.272 414.923 131.536 415.851 131.536ZM425.98 133V117.256H430.468C431.652 117.256 432.684 117.4 433.564 117.688C434.444 117.976 435.132 118.464 435.628 119.152C436.124 119.824 436.372 120.736 436.372 121.888C436.372 123.536 435.836 124.76 434.764 125.56C433.692 126.36 432.292 126.76 430.564 126.76H427.972V133H425.98ZM427.972 125.128H430.324C431.7 125.128 432.716 124.872 433.372 124.36C434.044 123.832 434.38 123.008 434.38 121.888C434.38 120.752 434.028 119.968 433.324 119.536C432.636 119.088 431.604 118.864 430.228 118.864H427.972V125.128Z" fill="#512D5D"/>
<path d="M668.7 6.5C660.319 6.5 653.5 13.319 653.5 21.7V67.3C653.5 75.681 660.319 82.5 668.7 82.5H714.3C722.681 82.5 729.5 75.681 729.5 67.3V21.7C729.5 13.319 722.681 6.5 714.3 6.5H668.7ZM668.7 8.83846H714.3C721.391 8.83846 727.162 14.6086 727.162 21.7V67.3C727.162 74.3914 721.391 80.1615 714.3 80.1615H668.7C661.609 80.1615 655.838 74.3914 655.838 67.3V21.7C655.838 14.6086 661.609 8.83846 668.7 8.83846ZM672.016 12.3462C665.029 12.3462 659.344 18.0285 659.344 25.0159V63.9819C659.344 70.9692 665.029 76.6538 672.016 76.6538H710.982C717.969 76.6538 723.652 70.9692 723.652 63.9819V42.1615C723.653 41.8388 723.392 41.5769 723.069 41.5769C722.747 41.5769 722.485 41.8388 722.485 42.1615V63.9819C722.485 70.3238 717.324 75.4846 710.982 75.4846H672.016C665.674 75.4846 660.513 70.3238 660.513 63.9819V25.0159C660.513 18.674 665.674 13.5154 672.016 13.5154H711.375C711.697 13.5154 711.959 13.2535 711.959 12.9308C711.959 12.6081 711.697 12.3462 711.375 12.3462H672.016ZM723.069 28.7154C722.747 28.7154 722.485 28.9773 722.485 29.3V31.6385C722.485 31.9612 722.747 32.2231 723.069 32.2231C723.392 32.2231 723.654 31.9612 723.654 31.6385V29.3C723.654 28.9773 723.392 28.7154 723.069 28.7154ZM705.7 29.131C704.802 29.131 704.068 29.4366 703.521 30.0376C702.987 30.6234 702.715 31.323 702.715 32.1157C702.715 32.9108 702.986 33.6081 703.519 34.1916C704.066 34.7937 704.8 35.0982 705.697 35.0982C706.594 35.0982 707.328 34.7926 707.876 34.1916C708.41 33.607 708.682 32.9085 708.682 32.1157C708.683 31.3242 708.412 30.6234 707.876 30.0376C707.328 29.4355 706.597 29.131 705.7 29.131ZM685.693 29.8846C685.453 29.8846 685.239 30.0301 685.151 30.2523L673.984 58.3138C673.912 58.4927 673.935 58.6971 674.044 58.8573C674.152 59.0187 674.334 59.1154 674.528 59.1154H678.179C678.424 59.1154 678.642 58.962 678.728 58.734L681.198 52.1H693.941L696.456 58.7363C696.542 58.9631 696.758 59.1154 697.001 59.1154H700.653C700.847 59.1154 701.028 59.0187 701.137 58.8573C701.246 58.6971 701.268 58.4927 701.196 58.3138L690.029 30.2523C689.94 30.0301 689.724 29.8846 689.486 29.8846H685.693ZM705.7 30.3002C706.262 30.3002 706.692 30.4724 707.015 30.8255C707.352 31.1938 707.515 31.6165 707.515 32.1157C707.515 32.615 707.352 33.0377 707.015 33.406C706.692 33.7591 706.262 33.9313 705.7 33.9313C705.137 33.9313 704.707 33.7592 704.384 33.4037C704.048 33.0378 703.884 32.6162 703.884 32.1157C703.884 31.6153 704.048 31.195 704.384 30.8255C704.706 30.4712 705.137 30.3002 705.7 30.3002ZM686.09 31.0538H689.091L699.79 57.9462H697.406L694.891 51.3076C694.805 51.0807 694.589 50.9308 694.345 50.9308H680.792C680.548 50.9308 680.329 51.0819 680.244 51.3099L677.773 57.9462H675.391L686.09 31.0538ZM687.59 32.8557C687.359 32.8557 687.128 32.969 687.042 33.1982L681.653 47.8044C681.586 47.9833 681.614 48.1833 681.724 48.3411C681.832 48.4978 682.01 48.5923 682.201 48.5923H692.978C693.169 48.5923 693.348 48.4978 693.457 48.3411C693.567 48.1833 693.592 47.9833 693.526 47.8044L688.138 33.1982C688.053 32.969 687.822 32.8557 687.59 32.8557ZM723.069 33.3923C722.747 33.3923 722.485 33.6542 722.485 33.9769V38.6538C722.485 38.9766 722.747 39.2385 723.069 39.2385C723.392 39.2385 723.654 38.9766 723.654 38.6538V33.9769C723.654 33.6542 723.392 33.3923 723.069 33.3923ZM687.59 35.0891L692.139 47.4231H683.041L687.59 35.0891ZM704.362 38.0692C704.039 38.0692 703.777 38.3311 703.777 38.6538V58.5308C703.777 58.8535 704.039 59.1154 704.362 59.1154H707.869C708.192 59.1154 708.454 58.8535 708.454 58.5308V38.6538C708.454 38.3311 708.192 38.0692 707.869 38.0692H704.362ZM704.946 39.2385H707.285V57.9462H704.946V39.2385Z" fill="#512D5D"/>
<path d="M625.363 130.5V114.756H627.355V130.5H625.363ZM631.668 130.5V114.756H633.66V128.796H640.548V130.5H631.668ZM643.34 130.5V114.756H645.332V128.796H652.22V130.5H643.34ZM659.9 130.788C658.828 130.788 657.86 130.572 656.996 130.14C656.148 129.708 655.476 128.996 654.98 128.004C654.484 127.012 654.236 125.676 654.236 123.996V114.756H656.228V124.044C656.228 125.308 656.388 126.308 656.708 127.044C657.044 127.764 657.484 128.276 658.028 128.58C658.588 128.884 659.212 129.036 659.9 129.036C660.604 129.036 661.236 128.884 661.796 128.58C662.356 128.276 662.796 127.764 663.116 127.044C663.452 126.308 663.62 125.308 663.62 124.044V114.756H665.54V123.996C665.54 125.676 665.292 127.012 664.796 128.004C664.3 128.996 663.628 129.708 662.78 130.14C661.932 130.572 660.972 130.788 659.9 130.788ZM673.911 130.788C672.807 130.788 671.783 130.58 670.839 130.164C669.895 129.732 669.079 129.164 668.391 128.46L669.591 127.068C670.151 127.66 670.807 128.14 671.559 128.508C672.327 128.86 673.119 129.036 673.935 129.036C674.975 129.036 675.783 128.804 676.359 128.34C676.935 127.86 677.223 127.236 677.223 126.468C677.223 125.924 677.103 125.492 676.863 125.172C676.639 124.852 676.327 124.58 675.927 124.356C675.543 124.132 675.103 123.908 674.607 123.684L672.351 122.7C671.855 122.492 671.359 122.22 670.863 121.884C670.383 121.548 669.975 121.116 669.639 120.588C669.319 120.06 669.159 119.412 669.159 118.644C669.159 117.844 669.367 117.132 669.783 116.508C670.215 115.868 670.807 115.372 671.559 115.02C672.311 114.652 673.159 114.468 674.103 114.468C675.047 114.468 675.919 114.652 676.719 115.02C677.519 115.372 678.199 115.836 678.759 116.412L677.679 117.708C677.199 117.244 676.663 116.884 676.071 116.628C675.495 116.356 674.839 116.22 674.103 116.22C673.223 116.22 672.511 116.428 671.967 116.844C671.439 117.26 671.175 117.82 671.175 118.524C671.175 119.02 671.303 119.436 671.559 119.772C671.831 120.092 672.167 120.356 672.567 120.564C672.967 120.772 673.375 120.964 673.791 121.14L676.023 122.1C676.631 122.356 677.175 122.668 677.655 123.036C678.151 123.388 678.543 123.828 678.831 124.356C679.119 124.868 679.263 125.516 679.263 126.3C679.263 127.132 679.047 127.892 678.615 128.58C678.183 129.252 677.567 129.788 676.767 130.188C675.967 130.588 675.015 130.788 673.911 130.788ZM685.158 130.5V116.436H680.406V114.756H691.926V116.436H687.174V130.5H685.158ZM694.762 130.5V114.756H699.682C700.754 114.756 701.706 114.9 702.538 115.188C703.37 115.46 704.018 115.924 704.482 116.58C704.962 117.22 705.202 118.084 705.202 119.172C705.202 120.388 704.882 121.372 704.242 122.124C703.602 122.86 702.738 123.364 701.65 123.636L705.658 130.5H703.402L699.61 123.852H696.754V130.5H694.762ZM696.754 122.22H699.394C700.626 122.22 701.57 121.972 702.226 121.476C702.882 120.964 703.21 120.196 703.21 119.172C703.21 118.132 702.882 117.404 702.226 116.988C701.57 116.572 700.626 116.364 699.394 116.364H696.754V122.22ZM711.044 121.692L710.3 124.092H715.028L714.284 121.692C713.996 120.812 713.724 119.94 713.468 119.076C713.212 118.196 712.956 117.3 712.7 116.388H712.604C712.364 117.3 712.116 118.196 711.86 119.076C711.604 119.94 711.332 120.812 711.044 121.692ZM706.244 130.5L711.572 114.756H713.828L719.156 130.5H717.02L715.532 125.7H709.796L708.284 130.5H706.244ZM723.338 130.5V116.436H718.586V114.756H730.106V116.436H725.354V130.5H723.338ZM738.163 130.788C736.851 130.788 735.683 130.452 734.659 129.78C733.651 129.108 732.859 128.156 732.283 126.924C731.723 125.692 731.443 124.236 731.443 122.556C731.443 120.876 731.723 119.436 732.283 118.236C732.859 117.02 733.651 116.092 734.659 115.452C735.683 114.796 736.851 114.468 738.163 114.468C739.491 114.468 740.659 114.796 741.667 115.452C742.675 116.092 743.467 117.02 744.043 118.236C744.619 119.436 744.907 120.876 744.907 122.556C744.907 124.236 744.619 125.692 744.043 126.924C743.467 128.156 742.675 129.108 741.667 129.78C740.659 130.452 739.491 130.788 738.163 130.788ZM738.163 129.036C739.107 129.036 739.923 128.772 740.611 128.244C741.315 127.7 741.859 126.948 742.243 125.988C742.627 125.012 742.819 123.868 742.819 122.556C742.819 120.604 742.395 119.06 741.547 117.924C740.699 116.788 739.571 116.22 738.163 116.22C736.755 116.22 735.627 116.788 734.779 117.924C733.931 119.06 733.507 120.604 733.507 122.556C733.507 123.868 733.699 125.012 734.083 125.988C734.467 126.948 735.011 127.7 735.715 128.244C736.419 128.772 737.235 129.036 738.163 129.036ZM748.293 130.5V114.756H753.213C754.285 114.756 755.237 114.9 756.069 115.188C756.901 115.46 757.549 115.924 758.013 116.58C758.493 117.22 758.733 118.084 758.733 119.172C758.733 120.388 758.413 121.372 757.773 122.124C757.133 122.86 756.269 123.364 755.181 123.636L759.189 130.5H756.933L753.141 123.852H750.285V130.5H748.293ZM750.285 122.22H752.925C754.157 122.22 755.101 121.972 755.757 121.476C756.413 120.964 756.741 120.196 756.741 119.172C756.741 118.132 756.413 117.404 755.757 116.988C755.101 116.572 754.157 116.364 752.925 116.364H750.285V122.22Z" fill="#512D5D"/>
<path d="M969.064 25.5C969.79 25.5 970.517 25.5 971.244 25.5C971.379 25.5359 971.513 25.5719 971.648 25.5899C973.299 25.8055 974.851 26.3177 976.287 27.1625C977.059 27.6208 977.444 28.3037 977.426 29.2113C977.409 30.4874 976.475 31.6196 975.129 31.9521C974.053 32.2217 972.994 32.0779 971.944 31.7994C969.485 31.1434 967.35 31.7095 965.564 33.5337C964.9 34.2077 964.218 34.8727 963.545 35.5376C960.01 39.0513 956.456 42.5469 952.93 46.0695C950.794 48.1993 950.525 51.4253 952.248 53.8336C954.464 56.9249 958.852 57.2484 961.625 54.5076C970.122 46.0875 978.62 37.6674 987.108 29.2383C988.786 27.5758 990.734 26.3986 993.04 25.8505C993.65 25.7067 994.278 25.6168 994.897 25.5C995.597 25.5 996.288 25.5 996.988 25.5C997.096 25.527 997.194 25.5719 997.302 25.5809C1000.07 25.8954 1002.47 27.0097 1004.45 28.9597C1008.86 33.3001 1013.25 37.6584 1017.63 42.0347C1019.05 43.4545 1020.02 45.1709 1020.54 47.1209C1020.74 47.8488 1020.86 48.6036 1021 49.3405C1021 50.0325 1021 50.7334 1021 51.4253C1020.93 51.8297 1020.87 52.2341 1020.78 52.6295C1018.99 61.7236 1007.94 65.5607 1000.92 59.486C999.303 58.0931 997.858 56.5115 996.324 55.0198C996.189 54.894 996.055 54.7682 995.875 54.5975C995.741 54.7592 995.651 54.894 995.543 55.0019C993.686 56.835 991.882 58.7311 989.944 60.4835C986.13 63.9342 980.28 64.4644 975.838 61.8673C974.959 61.3551 974.555 60.5913 974.645 59.5759C974.744 58.3987 975.65 57.3562 976.888 57.0417C977.974 56.7632 979.051 56.9069 980.118 57.1855C982.559 57.8325 984.677 57.2754 986.462 55.4691C988.185 53.7438 989.917 52.0364 991.658 50.32C994.125 47.8847 997.724 47.8758 1000.19 50.311C1001.64 51.7309 1003.06 53.1687 1004.51 54.5885C1005.93 55.9814 1007.66 56.5924 1009.62 56.3138C1012.07 55.9724 1013.8 54.5975 1014.58 52.2431C1015.37 49.8707 1014.79 47.7499 1013.02 45.9797C1011.55 44.4969 1010.05 43.0412 1008.57 41.5674C1005.8 38.8176 1003.04 36.0499 1000.25 33.318C997.769 30.9007 994.063 30.9277 991.577 33.336C991.263 33.6415 990.949 33.9561 990.635 34.2706C982.407 42.4301 974.187 50.5896 965.959 58.7311C962.917 61.7415 959.229 62.9816 955.021 62.1909C950.301 61.3012 947.035 58.4885 945.608 53.8786C944.19 49.3225 945.276 45.2248 948.623 41.828C952.858 37.5326 957.174 33.327 961.454 29.0765C963.087 27.459 965.017 26.3627 967.251 25.8325C967.852 25.6977 968.462 25.6168 969.064 25.5Z" fill="#512D5D"/>
<path d="M957.211 111.5V95.756H959.611L962.635 104.156C962.827 104.7 963.011 105.252 963.187 105.812C963.379 106.356 963.571 106.9 963.763 107.444H963.859C964.051 106.9 964.227 106.356 964.387 105.812C964.563 105.252 964.747 104.7 964.939 104.156L967.915 95.756H970.339V111.5H968.467V102.836C968.467 102.132 968.499 101.356 968.563 100.508C968.627 99.644 968.683 98.868 968.731 98.18H968.635L967.387 101.756L964.411 109.916H963.091L960.115 101.756L958.867 98.18H958.771C958.819 98.868 958.867 99.644 958.915 100.508C958.979 101.356 959.011 102.132 959.011 102.836V111.5H957.211ZM977.36 102.692L976.616 105.092H981.344L980.6 102.692C980.312 101.812 980.04 100.94 979.784 100.076C979.528 99.196 979.272 98.3 979.016 97.388H978.92C978.68 98.3 978.432 99.196 978.176 100.076C977.92 100.94 977.648 101.812 977.36 102.692ZM972.56 111.5L977.888 95.756H980.144L985.472 111.5H983.336L981.848 106.7H976.112L974.6 111.5H972.56ZM986.435 111.5V110.3L994.715 97.436H987.179V95.756H997.211V96.932L988.907 109.796H997.283V111.5H986.435ZM1000.45 111.5V95.756H1009.52V97.436H1002.44V102.38H1008.42V104.084H1002.44V109.796H1009.76V111.5H1000.45Z" fill="#512D5D"/>
<g clip-path="url(#clip0_105_1331)">
<path d="M1213.54 79.3033L1213.74 67.7221L1217.2 66.4555C1218.71 70.1836 1221.94 72.9296 1226.24 74.6448L1213.54 79.3033Z" stroke="#E6B6F5"/>
<path d="M1213.4 66.7839L1205.85 58.0445L1218.59 53.3737C1216.38 57.4838 1215.65 61.6857 1216.86 65.5166L1213.4 66.7839Z" stroke="#512D5D"/>
<path d="M1217.8 65.1684C1216.25 60.2091 1218.21 54.3995 1222.89 48.9125C1227.7 43.2622 1235.32 38.0476 1244.62 34.6389C1253.91 31.2303 1263.07 30.2896 1270.36 31.5003C1277.44 32.6762 1282.65 35.8557 1284.63 40.6564L1217.8 65.1684Z" stroke="#BD7ED1"/>
<path d="M1284.97 41.6013C1286.53 46.5909 1284.56 52.4015 1279.89 57.881C1275.07 63.5231 1267.45 68.722 1258.15 72.1308C1248.85 75.5397 1239.7 76.4962 1232.41 75.2931C1225.33 74.1243 1220.12 70.9437 1218.13 66.1102L1284.97 41.6013Z" stroke="#512D5D"/>
<path d="M1218.15 66.1049L1284.96 41.6023C1285.34 43.1267 1285.01 44.8635 1284 46.7562C1282.89 48.8522 1280.95 51.0902 1278.32 53.3397C1273.08 57.8363 1265.16 62.3061 1255.84 65.7242C1246.64 69.0986 1237.83 70.8023 1230.98 70.8023C1227.46 70.8023 1224.49 70.3531 1222.25 69.472C1220.22 68.6744 1218.84 67.542 1218.15 66.1049Z" stroke="#6B3F7A"/>
<path d="M1280.52 37.2955C1282.55 38.0922 1283.93 39.2239 1284.62 40.661L1217.81 65.1634C1217.43 63.639 1217.75 61.9025 1218.76 60.0101C1219.88 57.9144 1221.82 55.6768 1224.44 53.4277C1229.69 48.9319 1237.61 44.463 1246.93 41.0449C1256.13 37.6705 1264.94 35.9668 1271.79 35.9668C1275.3 35.9668 1278.28 36.4151 1280.52 37.2955Z" stroke="#A167B4"/>
<path d="M1268.04 80.6953C1266.05 80.6953 1263.1 78.8877 1259.3 75.3197C1254.79 71.0997 1249.63 64.9166 1244.76 57.9125C1239.89 50.9084 1235.89 43.9077 1233.5 38.1943C1230.89 31.9706 1230.52 28.1459 1232.39 26.8215C1232.83 26.5241 1233.34 26.3721 1233.87 26.3856C1235.39 26.3856 1238.37 27.5242 1243.86 32.9572L1243.98 33.0755L1243.97 33.2444C1243.93 33.6363 1243.89 34.0283 1243.86 34.4168L1243.8 35.1838L1243.27 34.6398C1237.34 28.6493 1234.74 28.004 1233.89 28.004C1233.65 28.004 1233.46 28.0513 1233.32 28.1493C1232.5 28.7237 1232.45 31.5348 1234.98 37.5658C1237.33 43.1745 1241.27 50.0705 1246.08 56.9834C1250.88 63.8996 1255.96 69.9881 1260.39 74.1338C1265.16 78.6039 1267.31 79.087 1268.02 79.087C1268.26 79.087 1268.46 79.0363 1268.6 78.9316C1269.46 78.3268 1269.46 75.3164 1266.64 68.8224L1266.51 68.5251L1266.79 68.3697C1267.08 68.2143 1267.35 68.0622 1267.61 67.9136L1267.95 67.721L1268.11 68.0791C1270.1 72.6809 1271.98 78.5295 1269.52 80.2594C1269.09 80.5568 1268.57 80.7088 1268.04 80.6953Z" fill="#6B3F7A"/>
<path d="M1258.78 72.4035L1258.75 72.7548C1258.28 78.6338 1257.03 85.7021 1253.78 85.9893C1253.71 85.9961 1253.64 85.9961 1253.58 85.9961C1251.37 85.9961 1249.28 82.8201 1247.37 76.5593C1245.56 70.633 1244.16 62.6795 1243.42 54.1617C1242.68 45.6439 1242.69 37.5654 1243.45 31.4127C1244.28 24.7093 1245.86 21.209 1248.14 21.0062C1248.21 20.9995 1248.28 20.9961 1248.34 20.9961C1249.95 20.9961 1252.36 22.8172 1254.83 31.2978L1253.22 31.6087C1252.39 28.7773 1251.49 26.473 1250.6 24.885C1249.78 23.422 1248.97 22.6145 1248.34 22.6145C1248.32 22.6145 1248.3 22.6145 1248.28 22.6179C1247.29 22.7057 1245.85 25.1114 1245.05 31.6121C1244.3 37.6532 1244.29 45.6135 1245.02 54.0198C1245.75 62.4294 1247.13 70.2647 1248.91 76.0829C1249.7 78.6879 1250.58 80.8368 1251.43 82.293C1252.22 83.6377 1252.98 84.3777 1253.58 84.3777C1253.6 84.3777 1253.62 84.3777 1253.64 84.3743C1254.59 84.2932 1256.37 81.7862 1257.12 72.9711L1258.78 72.4035Z" fill="#6B3F7A"/>
</g>
<path d="M1210.23 116V114.8L1218.51 101.936H1210.97V100.256H1221V101.432L1212.7 114.296H1221.08V116H1210.23ZM1224.25 116V100.256H1233.32V101.936H1226.24V106.88H1232.21V108.584H1226.24V114.296H1233.56V116H1224.25ZM1236.9 116V100.256H1241.39C1242.57 100.256 1243.61 100.4 1244.49 100.688C1245.37 100.976 1246.05 101.464 1246.55 102.152C1247.05 102.824 1247.29 103.736 1247.29 104.888C1247.29 106.536 1246.76 107.76 1245.69 108.56C1244.61 109.36 1243.21 109.76 1241.49 109.76H1238.89V116H1236.9ZM1238.89 108.128H1241.25C1242.62 108.128 1243.64 107.872 1244.29 107.36C1244.97 106.832 1245.3 106.008 1245.3 104.888C1245.3 103.752 1244.95 102.968 1244.25 102.536C1243.56 102.088 1242.53 101.864 1241.15 101.864H1238.89V108.128ZM1250.5 116V100.256H1252.49V114.296H1259.38V116H1250.5ZM1262.17 116V100.256H1264.16V116H1262.17ZM1268.47 116V100.256H1270.54L1276.22 110.144L1277.93 113.408H1278.02C1277.98 112.608 1277.92 111.784 1277.86 110.936C1277.81 110.072 1277.78 109.224 1277.78 108.392V100.256H1279.68V116H1277.62L1271.9 106.088L1270.2 102.848H1270.1C1270.17 103.632 1270.22 104.44 1270.27 105.272C1270.34 106.104 1270.37 106.936 1270.37 107.768V116H1268.47Z" fill="#512D5D"/>
<defs>
<clipPath id="clip0_105_1331">
<rect width="81" height="65" fill="white" transform="translate(1205 21)"/>
</clipPath>
</defs>
</svg>
